SplineFontDB: 3.0
FontName: Miama
FullName: Miama
FamilyName: Miama
Weight: Regular
Copyright: Copyright (c) 2008-2010, Linus Romer, with Reserved Font Name Miama.\n\nThis Font Software is licensed under the SIL Open Font License, Version 1.1.
Version: 0.314
ItalicAngle: -28
UnderlinePosition: -80
UnderlineWidth: 48
Ascent: 800
Descent: 200
LayerCount: 2
Layer: 0 0 "Back"  1
Layer: 1 0 "Zeichenebene"  0
XUID: [1021 573 979596882 7664732]
FSType: 4
OS2Version: 0
OS2_WeightWidthSlopeOnly: 0
OS2_UseTypoMetrics: 1
CreationTime: 1252426677
ModificationTime: 1285485773
PfmFamily: 65
TTFWeight: 400
TTFWidth: 5
LineGap: 6
VLineGap: 0
Panose: 3 3 5 2 4 7 0 0 0 3
OS2TypoAscent: 58
OS2TypoAOffset: 1
OS2TypoDescent: -400
OS2TypoDOffset: 1
OS2TypoLinegap: 12
OS2WinAscent: 8
OS2WinAOffset: 1
OS2WinDescent: -100
OS2WinDOffset: 1
HheadAscent: 8
HheadAOffset: 1
HheadDescent: 10
HheadDOffset: 1
OS2SubXSize: 700
OS2SubYSize: 650
OS2SubXOff: 0
OS2SubYOff: 140
OS2SupXSize: 700
OS2SupYSize: 650
OS2SupXOff: 0
OS2SupYOff: 477
OS2StrikeYSize: 50
OS2StrikeYPos: 250
OS2FamilyClass: 2565
OS2Vendor: 'free'
OS2CodePages: 20000193.4d000000
OS2UnicodeRanges: a00000af.5000205b.00000000.00000000
Lookup: 1 0 0 "'subs' Subscript lookup 7"  {"'subs' Subscript lookup 7-1" ("inferior" ) } ['subs' ('DFLT' <'dflt' > 'cyrl' <'dflt' > 'grek' <'dflt' > 'latn' <'dflt' > ) ]
Lookup: 6 0 0 "'ss02' Stilgruppe 2 lookup 7"  {"'ss02' Stilgruppe 2 lookup 7-1"  } ['ss02' ('DFLT' <'dflt' > 'cyrl' <'dflt' > 'grek' <'dflt' > 'latn' <'dflt' > ) ]
Lookup: 1 0 0 "'ss02' Stilgruppe 2 lookup 6"  {"'ss02' Stilgruppe 2 lookup 6-1"  } ['ss02' ('DFLT' <'dflt' > 'cyrl' <'dflt' > 'grek' <'dflt' > 'latn' <'dflt' > ) ]
Lookup: 2 0 0 "Multiple Substitution"  {"Multiple Substitution-1"  } []
Lookup: 4 0 1 "'liga' Standard Ligatures lookup 0"  {"'liga' Standard Ligatures lookup"  } ['liga' ('DFLT' <'dflt' > 'cyrl' <'dflt' > 'grek' <'dflt' > 'latn' <'dflt' > ) ]

StartChar: numbersign
Encoding: 35 35 1
Width: 291
Flags: W
HStem: -14 21G<48 51 144.5 151.5> 130 32<152 204 213.919 222> 266 36<148.026 192.386> 274 39<315.123 368.033> 429 20G<289 295 379.5 384>
VStem: 46 20<-14.467 10.7026>
LayerCount: 2
Fore
SplineSet
225 167 m 1xdc
 282 274 l 1
 258 274 234 273 208 272 c 1
 152 162 l 1
 173 163 204 166 225 167 c 1xdc
239 168 m 1
 259 169 284 170 290 170 c 0
 298 170 300 169 300 166 c 0
 300 163 296 159 294 154 c 0
 288 136 274 131 258 131 c 0
 254 131 238 130 222 130 c 1
 162 16 157 -13 146 -14 c 0
 143 -14 134 -11 134 -6 c 0
 134 -2 138 14 204 130 c 1
 190 130 167 129 133 125 c 1
 115 90 86 36 66 -10 c 0
 65 -12 52 -16 50 -16 c 0
 46 -16 46 -12 46 -9 c 0
 46 -3 69 35 116 123 c 1
 99 121 83 119 63 119 c 0
 61 119 60 120 60 122 c 0
 60 125 71 153 93 157 c 0
 102 159 128 161 137 161 c 1
 193 271 l 1
 180 270 160 269 146 266 c 0
 143 266 141 266 141 269 c 0
 141 292 178 299 209 302 c 1xec
 250 381 285 448 293 449 c 0
 297 449 307 446 307 442 c 0
 307 435 294 436 224 303 c 1
 248 305 275 307 300 309 c 1
 304 317 376 456 383 456 c 0
 385 456 397 454 397 452 c 0
 397 450 396 448 395 446 c 0
 374 416 343 366 314 310 c 1
 338 312 359 313 374 313 c 0
 377 313 381 312 381 309 c 0
 381 306 374 302 370 296 c 0
 363 286 356 274 351 274 c 0
 332 274 314 274 295 274 c 1
 239 168 l 1
EndSplineSet
Validated: 1
EndChar

StartChar: dollar
Encoding: 36 36 2
Width: 380
Flags: W
HStem: -17 21<161.374 205.777> 421 22<316.578 357.765>
VStem: 38 36<41.3948 99.5> 209 35<293.007 368.016> 312 41<82.2596 176.249> 415 35<380.249 402.703>
LayerCount: 2
Fore
SplineSet
267 212 m 1
 161 6 l 1
 169 5 176 4 182 4 c 0
 266 4 312 72 312 114 c 0
 312 150 290 182 267 212 c 1
279 268 m 1
 358 420 l 1
 353 421 347 421 341 421 c 0
 277 421 244 378 244 340 c 0
 244 316 260 292 279 268 c 1
38 68 m 0
 38 72 44 77 50 83 c 0
 66 99 78 117 80 117 c 0
 81 117 83 117 83 115 c 0
 83 113 74 104 74 95 c 0
 74 43 110 19 144 9 c 1
 256 225 l 1
 232 256 209 286 209 319 c 0
 209 388 303 442 370 443 c 1
 405 510 410 517 411 517 c 0
 412 517 418 516 421 516 c 0
 422 516 423 516 423 515 c 0
 423 510 413 493 386 442 c 1
 433 436 450 400 450 395 c 0
 450 390 436 383 427 376 c 0
 420 371 420 370 418 370 c 0
 416 370 415 371 415 373 c 0
 415 390 398 408 372 416 c 1
 289 256 l 1
 319 221 353 184 353 143 c 0
 353 60 238 -16 150 -17 c 1
 98 -113 l 2
 94 -121 72 -135 66 -135 c 0
 65 -135 64 -134 64 -133 c 0
 64 -132 65 -131 66 -129 c 2
 131 -16 l 1
 62 -9 38 37 38 68 c 0
EndSplineSet
Validated: 1
EndChar

StartChar: percent
Encoding: 37 37 3
Width: 443
Flags: W
HStem: -12 18<291.831 341.783> 152 18<323.587 375.372> 261 18<209.832 259.783> 425 18<241.587 293.372>
VStem: 152 28<301.435 370.846> 234 28<28.4353 97.8458> 322 28<333.154 403.311> 404 28<60.1542 130.311>
LayerCount: 2
Fore
SplineSet
180 340 m 0
 180 303 209 279 243 279 c 0
 297 279 322 333 322 364 c 0
 322 401 294 425 260 425 c 0
 206 425 180 371 180 340 c 0
152 325 m 0
 152 388 228 443 283 443 c 0
 321 443 350 417 350 379 c 0
 350 316 274 261 219 261 c 0
 181 261 152 287 152 325 c 0
462 327 m 2
 471 333 480 335 482 333 c 0
 484 331 479 324 470 319 c 2
 135 113 l 2
 126 108 117 104 115 106 c 0
 113 108 118 116 127 121 c 2
 462 327 l 2
262 67 m 0
 262 30 291 6 325 6 c 0
 379 6 404 60 404 91 c 0
 404 128 376 152 342 152 c 0
 288 152 262 98 262 67 c 0
234 52 m 0
 234 115 310 170 365 170 c 0
 403 170 432 144 432 106 c 0
 432 43 356 -12 301 -12 c 0
 263 -12 234 14 234 52 c 0
EndSplineSet
Validated: 1
EndChar

StartChar: ampersand
Encoding: 38 38 4
Width: 508
Flags: W
HStem: -15 22<200.181 282.209> 104 14<485.67 527.22> 192 5<301.803 325.223> 243 10<278.06 305.753> 283 20<251.622 304.434> 422 20<300.324 369.101>
VStem: 76 36<76.4247 190.805> 220 13<301.565 358.508> 259 28<142.33 183.849> 308 25<253.19 277.863> 411 22<375.493 389.196>
LayerCount: 2
Fore
SplineSet
251 283 m 1
 261 270 277 253 294 253 c 0
 305 253 308 258 308 266 c 0
 308 279 282 283 251 283 c 1
333 273 m 0
 333 255 311 243 287 243 c 0
 264 243 240 260 229 281 c 1
 141 267 112 192 112 140 c 0
 112 59 184 7 255 7 c 0
 343 7 390 78 401 143 c 1
 367 164 341 192 311 192 c 0
 298 192 287 179 287 165 c 0
 287 147 310 138 310 133 c 0
 310 131 303 130 296 130 c 0
 295 130 294 130 292 130 c 0
 282 130 259 132 259 161 c 0
 259 181 287 197 317 197 c 0
 395 197 459 118 517 118 c 0
 530 118 536 123 545 132 c 0
 551 138 555 145 556 145 c 0
 557 145 558 144 558 143 c 0
 558 142 555 137 548 130 c 0
 532 112 520 104 507 104 c 0
 478 104 454 114 428 128 c 1
 410 76 326 -15 221 -15 c 0
 149 -15 76 37 76 120 c 0
 76 209 151 269 224 293 c 1
 221 301 220 311 220 322 c 0
 220 400 295 442 346 442 c 0
 385 442 433 423 433 395 c 0
 433 390 428 386 423 377 c 0
 417 366 415 361 413 361 c 0
 412 361 411 362 411 363 c 0
 411 397 362 422 330 422 c 0
 270 422 233 384 233 333 c 0
 233 321 236 309 241 298 c 1
 258 301 278 303 288 303 c 0
 308 303 333 294 333 273 c 0
EndSplineSet
Validated: 1
EndChar

StartChar: quotesingle
Encoding: 39 39 5
Width: 180
Flags: W
HStem: 272 187
VStem: 146 128
LayerCount: 2
Fore
SplineSet
152 272 m 0
 149 272 146 274 146 278 c 0
 146 280 148 283 158 302 c 2
 231 440 l 2
 233 444 250 450 259 454 c 0
 264 456 268 459 271 459 c 0
 273 459 274 458 274 456 c 0
 274 452 248 427 172 300 c 0
 159 279 156 272 152 272 c 0
EndSplineSet
Validated: 1
EndChar

StartChar: parenleft
Encoding: 40 40 6
Width: 241
Flags: W
HStem: -71 21G<170 171.5>
VStem: 91 35<-22.7693 129.742>
LayerCount: 2
Fore
SplineSet
163 -69 m 0
 101 -44 91 12 91 50 c 0
 91 145 173 358 425 498 c 0
 431 501 444 507 446 507 c 0
 448 507 449 506 449 504 c 0
 449 502 446 500 442 498 c 0
 199 355 126 128 126 32 c 0
 126 -42 158 -55 168 -61 c 0
 173 -64 174 -66 174 -68 c 0
 174 -70 172 -71 171 -71 c 0
 169 -71 167 -71 163 -69 c 0
EndSplineSet
Validated: 1
Substitution2: "'subs' Subscript lookup 7-1" uni208D
EndChar

StartChar: asterisk
Encoding: 42 42 8
Width: 215
Flags: W
HStem: 223 12<259 280> 228 29<165.332 181.872> 322 18<252 343.314> 324 23<121.344 159.797 167 213> 402 36<169.342 187.009>
VStem: 108 25<314.187 333.5> 157 8<257.009 281 286.816 323> 262 38<229.204 272.224>
LayerCount: 2
Fore
SplineSet
159 293 m 1x1f
 160 323 l 1
 160 323 142 324 137 324 c 0
 134 324 133 323 133 321 c 0
 133 313 151 299 159 293 c 1x1f
218 322 m 1x2f
 165 323 l 1
 165 323 165 301 165 290 c 1
 172 284 179 280 186 275 c 1
 197 290 208 306 218 322 c 1x2f
225 312 m 1
 215 296 209 286 199 266 c 1
 226 247 254 235 259 235 c 0x8f
 261 235 262 237 262 239 c 0
 262 256 237 289 225 312 c 1
213 340 m 1x2f
 192 375 178 402 173 402 c 0
 169 402 168 366 167 343 c 1
 213 340 l 1x2f
236 353 m 1
 265 401 274 433 284 433 c 0
 288 433 295 419 295 414 c 0
 295 413 295 412 294 411 c 0
 272 382 260 362 246 340 c 1
 281 340 314 340 339 340 c 0
 344 340 345 338 345 336 c 0
 345 331 337 321 331 321 c 0
 326 321 319 322 311 322 c 0
 292 322 275 322 252 322 c 1
 269 293 286 264 299 245 c 0
 300 243 300 242 300 241 c 0
 300 230 280 223 280 223 c 1xaf
 265 223 231 239 196 260 c 1
 189 249 182 228 176 228 c 0
 171 228 157 232 157 264 c 0
 157 269 158 280 158 285 c 1
 132 302 108 323 108 330 c 0
 108 337 117 347 135 347 c 0x5f
 143 347 151 345 161 344 c 1
 164 392 161 438 184 438 c 0
 193 438 203 410 236 353 c 1
182 270 m 1
 178 273 169 278 165 281 c 1
 165 269 166 257 169 257 c 0x4f
 172 257 179 265 182 270 c 1
EndSplineSet
Validated: 1
EndChar

StartChar: plus
Encoding: 43 43 9
Width: 336
Flags: W
HStem: 38 6<78.2728 107.111> 153 25<246.45 350.647> 273 17<189.85 245>
VStem: 56 7<58.012 86.5929> 237 35<192.249 271.192>
LayerCount: 2
Fore
SplineSet
201 149 m 1
 134 144 63 114 63 71 c 0
 63 57 74 44 91 44 c 0
 134 44 181 111 201 149 c 1
272 261 m 0
 272 229 259 200 245 172 c 1
 276 174 302 176 360 178 c 0
 361 178 361 178 361 177 c 0
 361 175 357 169 350 165 c 0
 341 160 331 153 328 153 c 0
 279 153 255 152 234 151 c 1
 184 53 120 38 91 38 c 0
 68 38 56 54 56 68 c 0
 56 106 97 159 211 170 c 1
 223 196 237 226 237 248 c 0
 237 260 227 273 209 273 c 0
 164 273 139 246 134 246 c 0
 133 246 132 246 132 248 c 0
 132 253 180 290 239 290 c 0
 251 290 272 281 272 261 c 0
EndSplineSet
Validated: 1
EndChar

StartChar: comma
Encoding: 44 44 10
Width: 160
Flags: W
HStem: -134 176
VStem: 63 37<-50.8185 33.2684>
LayerCount: 2
Fore
SplineSet
80 42 m 0
 97 42 100 14 100 -2 c 0
 99 -66 -4 -134 -11 -134 c 0
 -13 -134 -14 -133 -14 -132 c 0
 -14 -129 -12 -129 5 -116 c 0
 33 -95 63 -63 63 -28 c 0
 63 -1 52 17 52 25 c 0
 52 33 76 42 80 42 c 0
EndSplineSet
Validated: 1
EndChar

StartChar: hyphen
Encoding: 45 45 11
Width: 268
Flags: W
HStem: 149 26<90.7949 282.471>
VStem: 84 204<153.132 174.907>
LayerCount: 2
Fore
SplineSet
240 175 m 0
 250 175 279 176 286 176 c 0
 287 176 288 176 288 175 c 0
 288 173 286 170 283 163 c 0
 280 156 280 149 277 149 c 0
 264 149 207 153 159 153 c 0
 130 153 94 151 86 151 c 0
 85 151 84 151 84 152 c 0
 84 154 89 159 92 164 c 0
 96 171 97 177 100 177 c 0
 124 177 183 175 240 175 c 0
EndSplineSet
Validated: 1
EndChar

StartChar: period
Encoding: 46 46 12
Width: 160
Flags: W
HStem: -4 64<64.4805 107.025>
VStem: 56 61<5.29883 52.248>
LayerCount: 2
Fore
SplineSet
56 14 m 0
 56 35 77 60 100 60 c 0
 111 60 117 54 117 42 c 0
 117 21 90 -4 76 -4 c 0
 64 -4 56 2 56 14 c 0
EndSplineSet
Validated: 1
EndChar

StartChar: slash
Encoding: 47 47 13
Width: 261
Flags: W
HStem: -35 21G<46.5 48.5>
VStem: 47 326
LayerCount: 2
Fore
SplineSet
346 528 m 2
 349 533 368 543 373 543 c 0
 374 543 374 542 374 542 c 1
 374 542 374 541 373 540 c 0
 214 241 73 -20 73 -20 c 2
 71 -24 50 -35 47 -35 c 0
 46 -35 46 -34 46 -34 c 2
 46 -33 47 -31 49 -28 c 2
 346 528 l 2
EndSplineSet
Validated: 1
EndChar

StartChar: zero
Encoding: 48 48 14
Width: 363
Flags: W
HStem: -12 23<116.5 193.66> 420 23<327.81 404.5>
VStem: 74 44<25.6637 181.729> 405 38<263.389 400.181>
LayerCount: 2
Fore
SplineSet
118 94 m 0
 118 48 137 11 172 11 c 0
 267 11 405 208 405 333 c 0
 405 370 393 420 345 420 c 0
 253 420 118 212 118 94 c 0
379 443 m 0
 430 443 443 394 443 353 c 0
 443 222 284 -12 137 -12 c 0
 96 -12 74 18 74 76 c 0
 74 249 269 443 379 443 c 0
EndSplineSet
Validated: 1
Substitution2: "'subs' Subscript lookup 7-1" uni2080
Substitution2: "'onum' Minuskelziffern lookup" uniE000
EndChar

StartChar: one
Encoding: 49 49 15
Width: 270
Flags: W
HStem: -23 21G<109 114> 423 20G<396.5 404>
LayerCount: 2
Fore
SplineSet
308 337 m 1
 292 323 275 309 261 297 c 0
 200 246 143 203 74 163 c 0
 66 158 38 150 60 163 c 0
 129 204 175 239 233 287 c 0
 248 300 304 346 321 363 c 0
 333 376 341 414 362 426 c 0
 377 434 392 443 401 443 c 0
 407 443 408 439 408 434 c 0
 408 423 392 399 364 375 c 1
 300 261 229 127 183 26 c 0
 175 8 173 -6 164 -7 c 0
 123 -12 117 -23 111 -23 c 0
 107 -23 106 -21 106 -19 c 0
 106 -16 131 22 154 63 c 0
 205 155 257 245 308 337 c 1
EndSplineSet
Validated: 1
Substitution2: "'subs' Subscript lookup 7-1" uni2081
Substitution2: "'onum' Minuskelziffern lookup" uniE001
EndChar

StartChar: two
Encoding: 50 50 16
Width: 325
Flags: W
HStem: -58 24<251.864 340.173> -15 21G<-30 -24.5> 29 24<37.0934 93.4942> 426 17<261.095 319.046>
VStem: 347 48<312.343 412.513>
LayerCount: 2
Fore
SplineSet
312 443 m 0
 363 443 395 413 395 372 c 0
 395 290 264 201 64 51 c 1
 71 53 72 53 77 53 c 0
 148 53 198 -9 269 -28 c 0
 287 -33 304 -34 319 -34 c 0
 349 -34 374 -27 389 -20 c 0
 397 -16 399 -17 394 -21 c 0
 389 -25 379 -30 371 -34 c 0
 338 -49 304 -58 272 -58 c 0
 258 -58 245 -57 232 -53 c 0
 161 -33 111 29 42 29 c 0
 39 29 36 28 32 27 c 1
 -18 -13 -20 -15 -29 -15 c 0
 -31 -15 -33 -14 -33 -12 c 0
 -33 -6 34 45 77 82 c 0
 186 177 347 292 347 366 c 0
 347 397 323 426 290 426 c 0
 277 426 236 421 206 391 c 0
 200 385 197 381 195 381 c 0
 193 381 192 382 192 384 c 0
 192 386 196 391 203 398 c 0
 236 432 278 443 312 443 c 0
EndSplineSet
Validated: 1
Substitution2: "'subs' Subscript lookup 7-1" uni2082
Substitution2: "'onum' Minuskelziffern lookup" uniE002
EndChar

StartChar: three
Encoding: 51 51 17
Width: 310
Flags: W
HStem: -13 24<83.7241 171.687> 230 25<186.372 209.166> 424 24<273.484 335.712>
VStem: 5 35<26.5067 64.5> 297 39<113.366 208.332> 355 40<337.584 412.113>
LayerCount: 2
Fore
SplineSet
305 294 m 0
 326 306 355 328 355 369 c 0
 355 413 322 424 291 424 c 0
 270 424 257 419 244 405 c 0
 237 398 219 387 209 387 c 0
 208 387 207 388 207 389 c 0
 207 393 265 448 325 448 c 0
 385 448 395 414 395 391 c 0
 395 350 365 317 310 285 c 0
 293 276 275 267 258 259 c 1
 308 255 336 213 336 178 c 0
 336 76 195 -13 111 -13 c 0
 52 -13 5 15 5 39 c 0
 5 43 7 47 9 49 c 0
 27 63 46 81 47 81 c 0
 49 81 50 80 50 78 c 0
 50 77 40 69 40 60 c 0
 40 50 75 11 145 11 c 0
 226 11 297 85 297 156 c 0
 297 204 261 236 210 236 c 0
 192 236 188 230 180 230 c 0
 179 230 176 231 176 233 c 0
 176 238 198 251 215 255 c 0
 225 257 280 279 305 294 c 0
EndSplineSet
Validated: 1
Substitution2: "'subs' Subscript lookup 7-1" uni2083
Substitution2: "'onum' Minuskelziffern lookup" uniE003
EndChar

StartChar: four
Encoding: 52 52 18
Width: 338
Flags: W
HStem: -23 21G<159 164> 200 21<148.557 286.289> 238 20G<423 425.5> 426 20G<325 328.5 449.5 455.5>
VStem: 88 42<216.926 272.143>
LayerCount: 2
Fore
SplineSet
425 258 m 0
 426 258 427 257 427 257 c 1
 427 254 406 241 401 239 c 0
 376 230 351 222 326 217 c 1
 289 148 252 76 229 26 c 0
 221 8 219 -6 210 -7 c 0
 169 -12 167 -23 161 -23 c 0
 157 -23 156 -21 156 -19 c 0
 156 -16 182 22 205 63 c 2
 288 210 l 1
 238 202 193 200 161 200 c 0
 139 200 88 203 88 231 c 0
 88 276 174 326 246 384 c 0
 262 398 276 411 288 427 c 0
 291 431 322 446 328 446 c 0
 329 446 329 445 329 445 c 1
 329 437 291 406 254 375 c 0
 209 337 130 287 130 253 c 0
 130 227 182 221 216 221 c 0
 244 221 272 224 298 228 c 1
 388 386 l 2
 399 405 401 411 414 419 c 0
 431 429 445 443 454 443 c 0
 457 443 457 442 457 441 c 0
 457 434 444 428 436 415 c 0
 422 393 380 318 335 235 c 1
 385 246 421 258 425 258 c 0
EndSplineSet
Validated: 1
Substitution2: "'subs' Subscript lookup 7-1" uni2084
Substitution2: "'onum' Minuskelziffern lookup" uniE004
EndChar

StartChar: five
Encoding: 53 53 19
Width: 310
Flags: W
HStem: -21 22<62.0068 148.346> 241 24<186.751 258.03> 384 32<246.039 411.585>
VStem: -1 39<15.014 61.4396> 300 39<107.285 210.887>
LayerCount: 2
Fore
SplineSet
77 -21 m 0
 47 -21 -1 -12 -1 25 c 0
 -1 58 40 76 65 101 c 0
 67 103 68 103 69 103 c 0
 71 103 71 102 71 102 c 1
 71 93 38 85 38 47 c 0
 38 29 55 1 112 1 c 0
 209 1 300 66 300 155 c 0
 300 206 265 241 210 241 c 0
 188 241 170 236 152 227 c 0
 144 224 138 218 131 218 c 0
 127 218 127 221 127 222 c 0
 127 227 187 295 233 418 c 0
 236 426 238 429 249 429 c 0
 263 429 255 416 344 416 c 0
 366 416 412 417 452 433 c 0
 457 435 457 440 459 440 c 0
 460 440 462 440 462 437 c 0
 462 435 447 411 415 401 c 0
 377 389 334 384 298 384 c 0
 282 384 251 388 242 389 c 1
 222 339 201 298 166 245 c 1
 192 256 218 265 247 265 c 0
 321 265 339 209 339 174 c 0
 339 66 190 -21 77 -21 c 0
EndSplineSet
Validated: 1
Substitution2: "'subs' Subscript lookup 7-1" uni2085
Substitution2: "'onum' Minuskelziffern lookup" uniE005
EndChar

StartChar: six
Encoding: 54 54 20
Width: 314
Flags: W
HStem: -21 24<79.5 162.733> 199 24<209.502 281.03> 431 20G<487.5 488.5>
VStem: 34 40<16.3986 104.436> 301 40<108.526 187.014>
LayerCount: 2
Fore
SplineSet
231 199 m 0
 201 199 151 185 79 100 c 1
 75 86 74 73 74 60 c 0
 74 26 100 3 131 3 c 0
 217 3 301 82 301 144 c 0
 301 177 283 199 231 199 c 0
266 223 m 0
 307 223 341 212 341 166 c 0
 341 91 217 -21 94 -21 c 0
 65 -21 34 3 34 38 c 0
 34 183 280 387 483 450 c 0
 485 451 487 451 488 451 c 0
 489 451 490 451 490 450 c 0
 490 446 467 423 455 419 c 0
 313 372 150 254 94 138 c 1
 121 163 197 223 266 223 c 0
EndSplineSet
Validated: 1
Substitution2: "'subs' Subscript lookup 7-1" uni2086
Substitution2: "'onum' Minuskelziffern lookup" uniE006
EndChar

StartChar: seven
Encoding: 55 55 21
Width: 310
Flags: W
HStem: -29 21G<51.5 56> 181 21<137.759 220.492> 190 12<258 345.408> 381 33<209.316 437.41> 424 20G<480 483>
VStem: 169 28<402 444>
LayerCount: 2
Fore
SplineSet
104 -2 m 0xbc
 100 -8 88 -9 83 -11 c 0
 68 -17 59 -29 53 -29 c 0
 50 -29 48 -28 48 -25 c 0
 48 -23 49 -20 54 -13 c 0
 124 77 170 132 223 188 c 1
 169 185 147 181 139 181 c 0
 135 181 133 182 133 184 c 0
 133 186 135 188 138 192 c 0
 141 196 145 202 151 202 c 2xdc
 236 202 l 1
 428 396 l 1
 408 391 358 381 295 381 c 0
 257 381 219 381 189 389 c 0
 178 392 169 396 169 402 c 0
 169 407 177 416 181 424 c 0
 188 437 192 446 195 446 c 0
 196 446 197 446 197 444 c 0
 197 419 292 414 314 414 c 0
 345 414 449 421 465 433 c 0
 473 439 479 444 481 444 c 0
 485 444 485 441 485 438 c 0
 485 435 481 429 439 389 c 0
 361 314 304 255 258 202 c 1
 347 202 l 2
 349 202 351 201 351 199 c 0
 351 192 282 190 247 190 c 1
 191 124 150 67 104 -2 c 0xbc
EndSplineSet
Validated: 1
Substitution2: "'subs' Subscript lookup 7-1" uni2087
Substitution2: "'onum' Minuskelziffern lookup" uniE007
EndChar

StartChar: eight
Encoding: 56 56 22
Width: 330
Flags: W
HStem: -12 26<102.056 204.792> 313 9<333.024 362.783> 427 16<336.994 395.962>
VStem: 28 44<32.6531 128.527> 206 35<286.879 359.383> 317 32<106.213 176.936> 394 44<353.341 422.014>
LayerCount: 2
Fore
SplineSet
242 241 m 1
 149 195 72 139 72 76 c 0
 72 51 88 14 160 14 c 0
 258 14 317 80 317 128 c 0
 317 180 273 206 242 241 c 1
438 401 m 0
 438 356 377 313 340 313 c 0
 335 313 333 315 333 318 c 0
 333 320 335 322 339 322 c 0
 342 322 344 320 349 320 c 0
 366 320 394 358 394 388 c 0
 394 404 385 427 348 427 c 0
 298 427 241 376 241 333 c 0
 241 306 254 289 273 271 c 1
 310 282 361 309 370 309 c 1
 370 309 371 309 371 308 c 0
 371 305 296 271 280 264 c 1
 303 240 349 203 349 158 c 0
 349 88 247 -12 136 -12 c 0
 71 -12 28 21 28 66 c 0
 28 161 160 213 235 250 c 1
 224 264 206 281 206 312 c 0
 206 382 323 443 377 443 c 0
 414 443 438 426 438 401 c 0
EndSplineSet
Validated: 1
Substitution2: "'subs' Subscript lookup 7-1" uni2088
Substitution2: "'onum' Minuskelziffern lookup" uniE008
EndChar

StartChar: nine
Encoding: 57 57 23
Width: 317
Flags: W
HStem: -12 16<109.67 174.861> 134 6<111.905 129.911> 235 16<239.307 303.802> 426 17<301.259 373>
VStem: 37 40<20.2292 115.943> 170 37<267.937 352.333> 380 46<311.139 413.288>
LayerCount: 2
Fore
SplineSet
170 298 m 0
 170 360 252 443 359 443 c 0
 387 443 426 426 426 382 c 0
 426 341 386 276 377 258 c 0
 248 3 187 -12 123 -12 c 0
 74 -12 37 18 37 60 c 0
 37 107 60 125 85 129 c 0
 102 132 115 140 123 140 c 0
 127 140 130 140 130 136 c 0
 130 134 129 133 127 133 c 0
 125 133 122 134 118 134 c 0
 96 134 77 99 77 64 c 0
 77 30 103 4 147 4 c 0
 226 4 268 100 342 257 c 1
 314 243 277 235 253 235 c 0
 213 235 170 250 170 298 c 0
322 426 m 0
 265 426 207 372 207 310 c 0
 207 269 241 251 276 251 c 0
 299 251 330 259 349 275 c 1
 367 317 380 346 380 373 c 0
 380 393 361 426 322 426 c 0
EndSplineSet
Validated: 1
Substitution2: "'subs' Subscript lookup 7-1" uni2089
Substitution2: "'onum' Minuskelziffern lookup" uniE009
EndChar

StartChar: less
Encoding: 60 60 26
Width: 245
Flags: W
HStem: 33 276
VStem: 88 30<136.18 175.891>
LayerCount: 2
Fore
SplineSet
118 165 m 0
 118 152 185 56 185 47 c 0
 185 43 175 42 170 39 c 0
 164 36 160 33 155 33 c 0
 150 33 88 136 88 151 c 0
 88 161 98 172 103 176 c 0
 156 212 270 309 276 309 c 0
 277 309 279 307 279 305 c 0
 279 303 274 298 272 297 c 0
 119 176 118 177 118 165 c 0
EndSplineSet
Validated: 1
EndChar

StartChar: question
Encoding: 63 63 29
Width: 259
Flags: W
HStem: -4 64<70.4805 113.025> 419 24<248.769 306.899>
VStem: 62 61<5.29883 52.248> 124 35<150.862 212.981> 328 39<338.925 405.784>
LayerCount: 2
Fore
SplineSet
269 419 m 0
 226 419 186 377 178 377 c 0
 175 377 174 378 174 379 c 0
 174 380 174 381 177 384 c 0
 212 414 252 443 305 443 c 0
 341 443 367 422 367 383 c 0
 367 328 293 300 249 276 c 0
 218 259 159 229 159 187 c 0
 159 166 196 127 196 125 c 0
 196 118 181 117 173 114 c 0
 164 111 160 110 156 110 c 0
 150 110 124 150 124 172 c 0
 125 219 191 256 240 283 c 0
 274 302 328 318 328 367 c 0
 328 396 303 419 269 419 c 0
EndSplineSet
Refer: 12 46 N 1 0 0 1 6 0 2
Validated: 1
EndChar

StartChar: at
Encoding: 64 64 30
Width: 463
Flags: W
HStem: -15 20<186.008 296.529> 95 20<321.5 382.228> 104 15<213.5 258.596> 279 4<314.991 340.5> 377 20<303.623 398.863>
VStem: 74 33<71.9531 206.599> 185 37<119.478 204.443> 296 37<115.919 132> 478 33<216.046 318.263>
LayerCount: 2
Fore
SplineSet
300 144 m 1xbf80
 312 184 333 220 363 255 c 1
 358 270 345 279 328 279 c 0
 278 279 222 200 222 150 c 0
 222 139 227 119 243 119 c 0
 260 119 283 133 300 144 c 1xbf80
356 115 m 0xdf80
 438 115 478 218 478 265 c 0
 478 338 407 377 347 377 c 0
 190 377 107 253 107 136 c 0
 107 58 168 5 232 5 c 0
 311 5 374 22 426 70 c 0
 433 76 448 84 454 84 c 0
 455 84 456 84 456 83 c 2
 456 83 370 -15 215 -15 c 0
 137 -15 74 46 74 118 c 0
 74 286 235 397 376 397 c 0
 437 397 511 357 511 283 c 0
 511 195 425 95 332 95 c 0xdf80
 311 95 296 108 296 125 c 0
 296 127 297 130 297 132 c 1
 281 121 251 104 225 104 c 0xbf80
 202 104 185 122 185 146 c 0
 185 212 260 283 322 283 c 0
 341 283 364 281 371 262 c 1
 376 267 384 271 387 272 c 0
 391 274 399 277 407 277 c 0
 410 277 410 275 410 274 c 0
 410 272 406 269 403 266 c 0
 385 248 374 233 359 208 c 0
 349 191 333 159 333 135 c 0
 333 124 343 115 356 115 c 0xdf80
EndSplineSet
Validated: 1
EndChar

StartChar: A
Encoding: 65 65 31
Width: 490
Flags: W
HStem: -7 11<-24.7738 -4.32886> -4 17<372.5 434.453> 143 16<264.997 351> 154 17<202 255.672> 431 20G<457.5 461>
VStem: 346 44<15.2053 148> 403 61<382.199 403.999>
AnchorPoint: "below" 178 -50 basechar 0
AnchorPoint: "cedilla" 395 0 basechar 0
AnchorPoint: "above" 470 500 basechar 0
LayerCount: 2
Fore
SplineSet
202 171 m 1x1e
 206 171 210 171 219 171 c 0x1e
 258 171 298 159 333 159 c 0x2e
 338 159 345 159 353 160 c 1
 366 263 403 399 403 401 c 0
 403 403 403 404 402 404 c 0
 400 404 393 397 388 390 c 2
 202 171 l 1x1e
186 153 m 1
 130 89 80 35 51 11 c 0
 39 2 27 -1 8 -3 c 0
 0 -4 -9 -7 -19 -7 c 0
 -22 -7 -25 -6 -25 -3 c 0
 -25 1 -21 3 -17 4 c 0x9e
 -8 7 6 14 15 22 c 0
 99 95 199 189 373 392 c 0
 409 434 411 431 438 442 c 0
 444 444 455 451 460 451 c 0
 462 451 464 449 464 447 c 2
 464 446 l 2
 464 437 454 420 453 415 c 0
 435 367 408 256 396 166 c 1
 440 177 463 204 468 204 c 0
 470 204 471 204 471 201 c 0
 471 196 431 166 395 157 c 1
 392 131 390 108 390 89 c 0
 390 31 403 13 422 13 c 0
 449 13 496 46 525 71 c 0
 551 94 570 118 574 124 c 0
 576 127 577 127 578 127 c 0
 579 127 580 126 580 125 c 0
 580 124 580 124 579 122 c 0
 542 73 509 45 463 18 c 0
 437 3 412 -4 393 -4 c 0
 352 -4 346 24 346 77 c 0
 346 101 348 127 351 148 c 1
 315 144 303 143 291 143 c 0x6e
 254 143 217 154 196 154 c 0
 192 154 189 154 186 153 c 1
EndSplineSet
Validated: 1
EndChar

StartChar: B
Encoding: 66 66 32
Width: 450
Flags: W
HStem: -73 21G<21 24.5> -12 12<219.626 277.062> 238 8<330.758 374.228> 421 22<357.843 419>
VStem: 133 35<30.4553 70.1085> 405 45<107.312 227.025> 417 46<331.651 415.099>
AnchorPoint: "below" 198 -50 basechar 0
AnchorPoint: "above" 434 500 basechar 0
LayerCount: 2
Fore
SplineSet
142 129 m 0xfa
 97 38 82 0 63 -55 c 0
 61 -62 52 -62 41 -66 c 0
 33 -69 27 -73 22 -73 c 0
 20 -73 18 -72 18 -69 c 0
 18 -64 20 -61 119 130 c 0
 217 320 312 443 406 443 c 0
 432 443 463 432 463 398 c 0xfa
 463 327 385 260 330 243 c 1
 340 244 359 246 368 246 c 0
 410 246 450 229 450 170 c 0
 450 120 404 71 371 43 c 0
 339 16 294 -12 224 -12 c 0
 172 -12 133 26 133 62 c 0
 133 66 145 67 154 72 c 0
 165 78 167 81 169 81 c 0
 170 81 171 80 171 79 c 0
 171 77 168 76 168 73 c 0
 168 37 204 0 251 0 c 0
 307 0 405 71 405 185 c 1xfc
 404 214 387 238 354 238 c 0
 316 238 303 221 287 221 c 0
 284 221 282 225 280 228 c 0
 279 230 276 231 276 234 c 0
 276 241 299 240 308 243 c 0
 356 259 417 324 417 381 c 0
 417 406 396 421 369 421 c 0
 325 421 258 363 142 129 c 0xfa
EndSplineSet
Validated: 1
EndChar

StartChar: C
Encoding: 67 67 33
Width: 430
Flags: W
HStem: -12 16<190.314 276.121> 421 22<351.864 431.355>
VStem: 80 48<45.0889 209.364> 395 22<83.4897 117.685> 464 32<382.737 399.143>
AnchorPoint: "above" 425 500 basechar 0
AnchorPoint: "cedilla" 207 0 basechar 0
LayerCount: 2
Fore
SplineSet
472 372 m 0
 470 369 469 368 467 368 c 0
 465 368 464 370 464 372 c 0
 464 394 427 421 392 421 c 0
 343 421 313 404 296 394 c 0
 210 338 128 232 128 114 c 0
 128 53 170 4 228 4 c 0
 332 4 378 55 395 108 c 0
 397 115 399 120 401 120 c 0
 408 120 417 104 417 97 c 0
 417 77 348 -12 211 -12 c 0
 136 -12 80 43 80 117 c 0
 80 225 177 342 289 405 c 0
 334 431 379 443 424 443 c 0
 476 443 496 410 496 404 c 0
 496 395 480 386 472 372 c 0
EndSplineSet
Validated: 1
EndChar

StartChar: D
Encoding: 68 68 34
Width: 597
Flags: W
HStem: -10 13<358.06 431.671> -8 21<100.684 152.244> 148 28<169.957 224> 434 9<341.036 411> 503 12<351.161 402.682>
VStem: 65 28<18.761 71.6484> 168 28<301.002 347.153> 420 40<442.192 498.405> 585 43<150.355 336.882>
AnchorPoint: "cedilla" 358 0 basechar 0
AnchorPoint: "below" 228 -50 basechar 0
AnchorPoint: "above" 458 530 basechar 0
LayerCount: 2
Fore
SplineSet
240 93 m 1x7f80
 220 121 202 148 180 148 c 0
 138 148 93 81 93 45 c 0
 93 26 103 13 133 13 c 0
 157 13 200 34 240 93 c 1x7f80
279 120 m 1
 304 76 320 3 389 3 c 0xbf80
 508 3 585 143 585 258 c 0
 585 358 536 410 452 427 c 1
 452 427 346 214 279 120 c 1
196 307 m 0
 196 297 199 295 199 293 c 0
 199 292 198 291 196 291 c 0
 192 291 188 295 182 301 c 0
 175 308 168 310 168 318 c 0
 168 390 288 443 383 443 c 0
 394 443 405 443 415 442 c 1
 418 449 420 457 420 464 c 0
 420 492 405 503 370 503 c 0
 336 503 307 477 303 477 c 0
 301 477 300 478 300 480 c 0
 300 482 338 515 387 515 c 0
 414 515 460 506 460 463 c 0
 460 455 458 446 455 437 c 1
 571 418 628 348 628 234 c 0
 628 106 520 -10 390 -10 c 0xbf80
 315 -10 291 27 249 81 c 1
 234 64 219 48 204 35 c 0
 172 8 135 -8 113 -8 c 0x7f80
 89 -8 65 2 65 28 c 0
 65 83 157 176 214 176 c 0
 234 176 252 159 267 138 c 1
 331 252 387 372 411 433 c 1
 401 434 391 434 380 434 c 0
 297 434 196 370 196 307 c 0
EndSplineSet
Validated: 1
EndChar

StartChar: E
Encoding: 69 69 35
Width: 417
Flags: W
HStem: -12 21<185.716 279.499> 431 12<341.462 415.031>
VStem: 79 50<43.2174 169.505> 242 34<319.7 385.771> 278 56<268.275 299.643> 389 20<91.3032 134.307> 473 24<378.103 392.971>
AnchorPoint: "below" 178 -50 basechar 0
AnchorPoint: "cedilla" 216 0 basechar 0
AnchorPoint: "above" 422 500 basechar 0
LayerCount: 2
Fore
SplineSet
215 -12 m 0
 154 -12 79 28 79 95 c 0
 79 240 278 268 278 277 c 0
 278 278 278 281 272 285 c 0
 250 300 242 323 242 342 c 0
 242 382 291 443 391 443 c 0
 413 443 497 434 497 403 c 0
 497 393 490 390 483 373 c 0
 481 369 480 365 477 365 c 0
 474 365 474 368 473 371 c 0
 467 392 436 431 380 431 c 0
 289 431 276 388 276 368 c 0
 276 344 291 313 314 300 c 1
 329 293 334 291 334 288 c 0
 334 279 332 270 313 268 c 0
 161 250 129 168 129 102 c 0
 129 32 193 9 237 9 c 0
 335 9 389 70 389 125 c 0
 389 131 387 135 387 138 c 0
 387 139 387 141 389 141 c 0
 390 141 395 137 401 133 c 0
 406 129 409 128 409 122 c 0
 409 85 340 -12 215 -12 c 0
EndSplineSet
Validated: 1
EndChar

StartChar: F
Encoding: 70 70 36
Width: 384
Flags: W
HStem: -14 21G<73 84> 201 20<153.682 217 271 352.913> 414 21<206.264 320 371 512.928> 533 10<265.18 308.634>
VStem: 334 42<436.55 524.458> 366 2<225.846 226>
AnchorPoint: "above" 374 530 basechar 0
LayerCount: 2
Fore
SplineSet
363 415 m 1xf8
 347 371 317 308 271 222 c 1
 366 225 366 226 366 226 c 0
 367 226 368 226 368 225 c 0xf4
 368 223 365 220 360 216 c 0
 348 207 349 202 260 202 c 1
 207 104 155 16 143 -1 c 0
 139 -6 131 -11 127 -11 c 0
 119 -12 90 -14 78 -14 c 0
 76 -14 75 -14 74 -14 c 0
 72 -14 71 -13 71 -11 c 0
 71 -8 84 -9 96 8 c 0
 132 58 177 130 217 201 c 1
 132 201 131 189 123 189 c 0
 123 189 122 189 122 190 c 0
 122 193 131 200 141 205 c 0
 156 213 167 221 228 221 c 1
 267 293 302 363 320 414 c 1
 306 414 290 413 274 412 c 0
 151 406 152 381 146 381 c 0
 144 381 143 382 143 384 c 0
 143 386 147 391 154 398 c 0
 165 409 186 421 212 426 c 0
 244 432 283 434 327 435 c 1
 332 451 334 464 334 474 c 0
 334 498 328 533 285 533 c 0
 251 533 235 515 227 508 c 0
 224 505 221 501 219 501 c 0
 218 501 216 501 216 503 c 0
 216 505 221 510 224 513 c 0
 242 530 266 543 293 543 c 0
 344 543 376 523 376 469 c 0
 376 460 375 449 371 436 c 1
 422 437 478 440 538 447 c 0
 552 449 558 449 561 449 c 0
 563 449 564 449 565 449 c 0
 566 449 571 449 571 447 c 0
 571 446 570 445 568 444 c 0
 547 430 529 426 503 423 c 0
 448 417 406 416 363 415 c 1xf8
EndSplineSet
Validated: 1
EndChar

StartChar: G
Encoding: 71 71 37
Width: 555
Flags: W
HStem: -404 9<87.5175 141.841> -11 12<165.831 228.318> 433 9<438.181 490.148>
VStem: 7 38<-355.95 -210.031> 82 43<27.2061 170.651> 523 28<378.282 414.625> 577 49<322.525 379.141>
AnchorPoint: "below" 60 -470 basechar 0
AnchorPoint: "above" 515 500 basechar 0
LayerCount: 2
Fore
SplineSet
367 -44 m 1
 298 -56 237 -68 196 -84 c 0
 85 -129 45 -217 45 -298 c 0
 45 -350 61 -395 112 -395 c 0
 171 -395 211 -352 235 -310 c 0
 278 -236 332 -122 367 -44 c 1
371 -34 m 1
 407 41 417 59 456 131 c 1
 402 86 272 -11 191 -11 c 0
 138 -11 82 21 82 90 c 0
 82 141 107 203 145 253 c 0
 215 344 357 442 480 442 c 0
 497 442 551 432 551 407 c 0
 551 402 544 394 539 383 c 0
 534 372 531 359 528 359 c 0
 525 359 522 360 522 362 c 0
 522 366 523 370 523 379 c 0
 523 402 506 433 468 433 c 0
 409 433 304 371 234 301 c 0
 179 247 126 154 125 85 c 0
 125 34 152 1 194 1 c 0
 271 1 394 96 452 150 c 1
 475 173 539 283 577 368 c 0
 581 378 584 385 589 385 c 0
 594 385 626 371 626 359 c 0
 626 337 597 285 564 247 c 0
 534 212 513 165 493 127 c 2
 414 -25 l 1
 481 -6 547 34 590 71 c 0
 616 94 635 118 639 124 c 0
 641 127 642 127 643 127 c 0
 644 127 645 126 645 125 c 0
 645 124 645 124 644 122 c 0
 607 73 574 45 528 18 c 0
 490 -4 450 -23 408 -35 c 1
 378 -93 353 -159 306 -240 c 1
 268 -302 204 -404 111 -404 c 0
 47 -404 7 -352 7 -284 c 0
 8 -177 115 -101 207 -70 c 0
 249 -56 320 -43 371 -34 c 1
EndSplineSet
Validated: 1
EndChar

StartChar: H
Encoding: 72 72 38
Width: 522
Flags: W
HStem: -12 24<369.5 454.727> 184 18<221 348.491> 219 20G<501 504> 429 14<182.181 233.035>
VStem: 248 39<334.577 424.561> 339 50<14.7892 106.683>
AnchorPoint: "cedilla" 69 0 basechar 0
AnchorPoint: "below" 198 -50 basechar 0
AnchorPoint: "above" 419 500 basechar 0
LayerCount: 2
Fore
SplineSet
492 18 m 0
 452 -5 424 -12 392 -12 c 0
 347 -12 339 16 339 36 c 0
 339 67 374 140 407 203 c 1
 345 191 293 184 228 184 c 0
 214 184 201 185 190 187 c 1
 160 131 118 53 96 5 c 0
 92 -3 75 -2 60 -5 c 0
 46 -8 49 -10 44 -10 c 0
 42 -10 41 -9 41 -8 c 0
 41 -4 46 4 74 53 c 2
 161 205 l 1
 159 209 157 216 157 220 c 0
 157 230 171 236 178 236 c 1
 205 284 248 362 248 391 c 0
 248 408 238 429 209 429 c 0
 180 429 157 421 127 391 c 0
 121 385 118 380 116 380 c 0
 114 380 113 381 113 383 c 0
 113 385 117 391 124 398 c 0
 157 432 191 443 227 443 c 0
 269 443 287 420 287 393 c 0
 287 362 254 306 208 221 c 1
 240 205 271 202 298 202 c 0
 335 202 377 208 414 216 c 1
 451 285 489 353 527 421 c 0
 532 430 543 430 559 434 c 0
 571 437 578 443 588 443 c 0
 590 443 591 442 591 440 c 0
 591 433 571 410 565 402 c 0
 520 335 481 263 461 227 c 1
 495 235 499 239 503 239 c 0
 505 239 506 238 506 236 c 0
 506 224 478 220 455 214 c 1
 428 161 389 78 389 51 c 0
 389 26 401 12 428 12 c 0
 460 12 482 22 495 29 c 0
 501 33 521 43 556 71 c 1
 583 94 601 118 606 124 c 0
 608 127 609 127 610 127 c 0
 611 127 612 126 612 125 c 0
 612 124 612 124 611 122 c 0
 574 73 545 50 492 18 c 0
EndSplineSet
Validated: 1
EndChar

StartChar: I
Encoding: 73 73 39
Width: 345
Flags: W
HStem: -6 9<101.5 159.341> 388 10<221.318 274> 475 12<245.773 285.306>
VStem: 38 35<33.039 88.1625> 170 28<406.474 449.57> 301 23<426.24 466.241>
AnchorPoint: "cedilla" 101 0 basechar 0
AnchorPoint: "above" 403 500 basechar 0
LayerCount: 2
Fore
SplineSet
282 398 m 1
 291 411 301 428 301 441 c 0
 301 463 284 475 262 475 c 0
 236 475 198 463 198 427 c 0
 198 398 242 398 282 398 c 1
73 81 m 0
 73 45 106 3 141 3 c 0
 179 3 206 42 235 104 c 0
 295 230 352 324 410 405 c 1
 387 398 315 389 288 388 c 1
 270 365 218 315 185 287 c 0
 183 285 175 279 173 279 c 0
 172 279 171 280 171 281 c 0
 171 283 174 287 179 291 c 0
 199 307 254 363 274 388 c 1
 229 388 170 392 170 422 c 0
 170 463 250 487 282 487 c 0
 304 487 324 480 324 459 c 0
 324 442 307 416 296 399 c 1
 333 401 373 406 406 418 c 0
 419 423 456 428 469 428 c 0
 472 428 473 427 473 425 c 0
 473 422 463 419 459 413 c 0
 386 308 346 238 284 112 c 0
 256 55 208 -6 121 -6 c 0
 82 -6 38 21 38 68 c 0
 38 72 44 77 50 83 c 0
 66 99 78 117 80 117 c 0
 81 117 83 117 83 115 c 0
 83 113 73 108 73 81 c 0
EndSplineSet
Validated: 1
EndChar

StartChar: J
Encoding: 74 74 40
Width: 352
Flags: W
HStem: -424 14<-98.1667 -52.8192> 388 10<218.318 271> 475 12<242.773 282.306>
VStem: -167 39<-393.439 -235.512> 167 28<406.474 449.57> 298 23<426.24 466.241>
AnchorPoint: "above" 390 500 basechar 0
LayerCount: 2
Fore
SplineSet
176 -29 m 1
 135 -39 95 -50 61 -67 c 0
 -69 -134 -127 -200 -128 -321 c 0
 -128 -376 -109 -410 -75 -410 c 0
 -34 -410 -5 -379 23 -338 c 0
 97 -228 136 -127 176 -29 c 1
403 418 m 0
 416 423 453 428 466 428 c 0
 469 428 470 427 470 425 c 0
 470 422 461 419 456 413 c 0
 378 319 344 239 284 112 c 2
 229 -5 l 1
 262 3 293 11 322 26 c 0
 345 38 369 56 387 71 c 0
 413 94 432 118 436 124 c 0
 438 127 439 127 440 127 c 0
 441 127 442 126 442 125 c 0
 442 124 442 124 441 122 c 0
 404 73 372 44 325 19 c 0
 294 2 258 -9 222 -18 c 1
 167 -132 106 -250 46 -334 c 0
 18 -373 -29 -424 -91 -424 c 0
 -138 -424 -167 -390 -167 -318 c 0
 -167 -230 -100 -122 59 -52 c 0
 102 -33 143 -23 182 -15 c 1
 198 25 215 64 235 104 c 0
 271 180 316 267 361 335 c 2
 407 405 l 1
 384 398 312 389 285 388 c 1
 267 365 215 315 182 287 c 0
 180 285 172 279 170 279 c 0
 169 279 168 280 168 281 c 0
 168 283 171 287 176 291 c 0
 196 307 251 363 271 388 c 1
 226 388 167 392 167 422 c 0
 167 463 247 487 279 487 c 0
 301 487 321 480 321 459 c 0
 321 442 304 416 293 399 c 1
 330 401 370 406 403 418 c 0
279 398 m 1
 288 411 298 428 298 441 c 0
 298 463 281 475 259 475 c 0
 233 475 195 463 195 427 c 0
 195 398 239 398 279 398 c 1
EndSplineSet
Validated: 1
EndChar

StartChar: K
Encoding: 75 75 41
Width: 407
Flags: W
HStem: -103 11<412.676 472.99> -14 21G<18 48.5> 223 21G<113 115.5> 429 14<182.181 233.343>
VStem: 250 41<320.064 424.684>
AnchorPoint: "above" 378 500 basechar 0
AnchorPoint: "below" 156 -50 basechar 0
LayerCount: 2
Fore
SplineSet
185 224 m 1
 198 247 l 1
 189 244 178 240 175 239 c 1
 178 233 181 229 185 224 c 1
227 443 m 0
 269 443 291 420 291 393 c 0
 291 362 270 316 253 283 c 1
 326 316 469 385 508 414 c 0
 519 422 547 438 554 438 c 0
 555 438 556 437 556 436 c 0
 556 430 495 376 424 347 c 1
 245 267 l 1
 204 192 l 1
 237 136 259 95 305 25 c 0
 342 -31 380 -92 444 -92 c 0
 480 -92 507 -79 537 -56 c 0
 538 -55 540 -54 541 -54 c 2
 541 -54 542 -54 542 -55 c 0
 542 -74 483 -103 433 -103 c 0
 355 -103 321 -76 272 -2 c 0
 242 44 211 95 181 150 c 1
 149 93 115 37 86 -1 c 0
 81 -7 76 -14 21 -14 c 0
 15 -14 14 -14 14 -11 c 0
 14 -8 26 -8 40 8 c 0
 79 53 125 121 162 184 c 1
 153 199 133 225 124 225 c 0
 121 225 117 223 114 223 c 0
 112 223 110 225 110 227 c 0
 110 230 180 255 207 264 c 1
 224 295 250 343 250 379 c 0
 250 411 238 429 209 429 c 0
 180 429 157 421 127 391 c 0
 121 385 118 380 116 380 c 0
 114 380 113 381 113 383 c 0
 113 385 117 391 124 398 c 0
 157 432 191 443 227 443 c 0
EndSplineSet
Validated: 1
EndChar

StartChar: L
Encoding: 76 76 42
Width: 384
Flags: W
HStem: -152 25<445.443 555.979> -91 20G<624.5 627.5> -12 21<70.5 119.474> 128 27<148.795 186.167> 424 19<287.078 334.086>
VStem: 47 30<-0.5 49.1073> 340 39<333.368 423.386>
AnchorPoint: "middleright" 385 200 basechar 0
AnchorPoint: "aboveright" 442 383 basechar 0
AnchorPoint: "below" 162 -50 basechar 0
AnchorPoint: "above" 367 500 basechar 0
LayerCount: 2
Fore
SplineSet
241 391 m 0
 235 385 232 380 230 380 c 0
 228 380 227 381 227 383 c 0
 227 385 231 391 238 398 c 0
 260 421 292 443 329 443 c 0
 350 443 379 434 379 398 c 0
 379 338 265 151 226 97 c 1
 264 -17 397 -127 513 -127 c 0
 560 -127 586 -113 609 -91 c 0
 619 -81 622 -71 627 -71 c 0
 628 -71 629 -72 629 -74 c 0
 629 -78 626 -86 615 -99 c 0
 586 -133 540 -152 485 -152 c 0
 394 -152 256 -100 204 69 c 1
 172 30 124 -12 78 -12 c 0
 63 -12 47 -9 47 8 c 0
 47 56 139 155 184 155 c 0
 200 155 210 138 218 119 c 1
 305 256 340 359 340 388 c 0
 340 406 336 424 314 424 c 0
 301 424 271 421 241 391 c 0
198 89 m 1
 192 110 180 128 167 128 c 0
 129 128 77 68 77 28 c 0
 77 18 83 9 96 9 c 0
 137 9 169 48 198 89 c 1
EndSplineSet
Validated: 1
EndChar

StartChar: M
Encoding: 77 77 43
Width: 585
Flags: W
HStem: -151 24<565.529 648.742> -14 21G<18 48.5> 408 24<347.425 390.583> 425 18<178.301 220.905> 426 24<561.4 607.671>
VStem: 232 43<335.805 422.755> 406 40<360 399.164> 461 41<-71.9844 102.326> 619 45<346.377 420.828>
AnchorPoint: "below" 271 -50 basechar 0
AnchorPoint: "above" 487 544 basechar 0
LayerCount: 2
Fore
SplineSet
268 353 m 1xd780
 301 387 345 432 388 432 c 0xe780
 418 432 446 418 446 360 c 1
 517 425 576 450 608 450 c 0
 636 450 664 435 664 406 c 0
 664 326 502 208 502 17 c 0
 502 -88 559 -127 613 -127 c 0
 664 -127 698 -93 715 -72 c 0
 726 -58 725 -56 728 -56 c 0
 729 -56 730 -57 730 -58 c 0
 730 -77 673 -151 596 -151 c 0
 521 -151 461 -101 461 -6 c 0
 461 173 619 293 619 386 c 0
 619 416 593 426 575 426 c 0
 574 426 573 426 572 426 c 0xcf80
 541 425 507 402 440 335 c 1
 435 323 430 311 423 301 c 0
 416 291 385 275 376 275 c 0
 374 275 372 275 372 277 c 0
 372 287 395 309 402 316 c 1
 405 324 406 333 406 344 c 0
 406 401 377 408 361 408 c 0xe780
 336 408 278 350 246 304 c 1
 173 185 117 52 83 -1 c 0
 79 -8 76 -14 21 -14 c 0
 15 -14 14 -14 14 -11 c 0
 14 -8 27 -9 40 8 c 0
 63 37 84 79 108 124 c 0
 180 257 232 340 232 386 c 0
 232 412 217 425 198 425 c 0
 185 425 157 421 127 391 c 0
 121 385 118 381 116 381 c 0
 114 381 113 382 113 384 c 0
 113 386 117 391 124 398 c 0
 157 432 198 443 217 443 c 0
 259 443 275 420 275 393 c 0
 275 378 273 367 268 353 c 1xd780
EndSplineSet
Validated: 1
EndChar

StartChar: N
Encoding: 78 78 44
Width: 455
Flags: W
HStem: -16 25G<45 49 309 322> 404 32<283.306 329.5 552.621 601.795>
VStem: 85 35<124 145.717> 297 41<37 403.998>
AnchorPoint: "below" 163 -50 basechar 0
AnchorPoint: "above" 456 500 basechar 0
LayerCount: 2
Fore
SplineSet
355 18 m 0
 346 -5 327 -12 317 -12 c 0
 301 -12 297 9 297 36 c 2
 299 380 l 2
 299 402 299 404 296 404 c 0
 290 404 285 394 281 386 c 2
 87 18 l 2
 79 2 69 2 59 -5 c 0
 51 -10 52 -16 46 -16 c 0
 44 -16 43 -15 43 -14 c 0
 43 -11 55 13 65 38 c 0
 74 62 85 90 85 115 c 0
 85 131 82 147 77 147 c 0
 72 147 68 142 64 142 c 0
 63 142 62 144 62 145 c 0
 62 146 70 150 78 155 c 0
 85 159 90 164 94 164 c 0
 101 164 112 157 116 146 c 0
 118 140 120 132 120 124 c 1
 274 407 l 1
 281 422 298 436 324 436 c 0
 335 436 341 429 341 406 c 2
 338 37 l 1
 353 75 498 368 532 401 c 0
 542 410 565 437 591 437 c 0
 604 437 615 430 615 426 c 0
 615 421 612 419 604 412 c 0
 592 401 579 387 576 387 c 0
 574 387 573 389 573 390 c 0
 573 394 568 399 561 399 c 0
 551 399 543 394 535 382 c 0
 474 293 371 59 355 18 c 0
EndSplineSet
Validated: 1
EndChar

StartChar: O
Encoding: 79 79 45
Width: 480
Flags: W
HStem: -12 30<179.227 297.217> 426 17<321.075 399.169>
VStem: 77 41<72.2791 218.25> 440 28<362.377 396.572> 504 31<228.509 374.545>
AnchorPoint: "below" 194 -50 basechar 0
AnchorPoint: "cedilla" 219 0 basechar 0
AnchorPoint: "above" 420 500 basechar 0
LayerCount: 2
Fore
SplineSet
535 315 m 0
 535 136 346 -12 223 -12 c 0
 149 -12 77 36 77 124 c 0
 77 192 118 276 159 326 c 0
 218 398 300 443 384 443 c 0
 418 443 468 416 468 389 c 0
 468 385 462 378 457 368 c 0
 452 359 448 348 445 348 c 0
 442 348 440 350 440 353 c 0
 440 411 390 426 363 426 c 0
 284 426 223 384 178 317 c 0
 147 271 118 211 118 153 c 0
 118 73 165 18 236 18 c 0
 366 18 504 154 504 297 c 0
 504 357 471 416 471 417 c 0
 471 420 489 444 497 444 c 0
 518 444 535 363 535 315 c 0
EndSplineSet
Validated: 1
EndChar

StartChar: P
Encoding: 80 80 46
Width: 420
Flags: W
HStem: -16 21G<37 40> 317 20<186.353 202.988> 415 28<382.58 447.351>
VStem: 203 41<273.587 333.499> 465 42<323.458 403.453>
AnchorPoint: "above" 461 500 basechar 0
LayerCount: 2
Fore
SplineSet
182 182 m 1
 240 197 274 208 322 226 c 0
 386 250 465 308 465 360 c 0
 465 387 447 415 410 415 c 0
 317 415 227 265 182 182 c 1
50 17 m 0
 80 66 107 112 131 156 c 0
 144 181 203 289 203 310 c 0
 203 320 186 317 176 317 c 0
 172 317 171 318 171 321 c 0
 171 326 231 337 237 337 c 0
 241 337 244 335 244 332 c 0
 244 328 225 290 209 258 c 1
 221 280 235 302 253 325 c 0
 303 386 377 443 438 443 c 0
 477 443 507 422 507 380 c 0
 507 300 391 240 322 213 c 0
 266 191 229 181 178 166 c 1
 147 104 112 32 100 2 c 0
 95 -10 76 0 52 -9 c 0
 42 -13 42 -16 38 -16 c 0
 36 -16 33 -15 33 -13 c 0
 33 -10 46 10 50 17 c 0
EndSplineSet
Validated: 1
EndChar

StartChar: Q
Encoding: 81 81 47
Width: 480
Flags: W
HStem: -186 26<439.215 548.368> -12 30<179.227 284.189> 426 17<321.075 399.169>
VStem: 77 41<72.2791 218.25> 263 38<38.5367 199.955> 440 28<362.377 396.572> 504 31<227.549 374.545> 649 14<-79.3223 -58.0029>
AnchorPoint: "below" 194 -50 basechar 0
AnchorPoint: "cedilla" 219 0 basechar 0
AnchorPoint: "above" 420 500 basechar 0
LayerCount: 2
Fore
SplineSet
477 -186 m 0
 403 -186 336 -131 292 1 c 1
 268 -7 244 -12 223 -12 c 0
 149 -12 77 36 77 124 c 0
 77 192 118 276 159 326 c 0
 218 398 300 443 384 443 c 0
 418 443 468 416 468 389 c 0
 468 385 462 378 457 368 c 0
 452 359 448 348 445 348 c 0
 442 348 440 350 440 353 c 0
 440 411 390 426 363 426 c 0
 284 426 223 384 178 317 c 0
 147 271 118 211 118 153 c 0
 118 73 165 18 236 18 c 0
 252 18 269 20 285 24 c 1
 269 86 263 149 263 186 c 0
 263 190 290 206 298 206 c 0
 300 206 301 205 301 204 c 0
 299 183 298 163 298 144 c 0
 298 102 302 65 309 32 c 1
 413 70 504 181 504 297 c 0
 504 357 471 416 471 417 c 0
 471 420 489 444 497 444 c 0
 518 444 535 363 535 315 c 0
 535 177 423 57 315 10 c 1
 338 -81 406 -160 501 -160 c 0
 586 -160 643 -96 649 -67 c 0
 650 -62 652 -58 656 -58 c 0
 661 -58 663 -61 663 -64 c 0
 663 -72 608 -186 477 -186 c 0
EndSplineSet
Validated: 1
EndChar

StartChar: R
Encoding: 82 82 48
Width: 390
Flags: W
HStem: -133 11<388.814 444.733> -16 21G<45 48> 423 20<366.61 441.5>
VStem: 447 37<338.762 408.717>
AnchorPoint: "below" 154 -50 basechar 0
AnchorPoint: "above" 451 500 basechar 0
LayerCount: 2
Fore
SplineSet
158 207 m 1
 163 217 l 1
 157 216 153 215 153 215 c 1
 153 215 155 212 158 207 c 1
215 239 m 1
 258 248 447 291 447 369 c 0
 447 394 428 423 389 423 c 0
 316 423 270 343 215 239 c 1
46 -16 m 0
 44 -16 41 -15 41 -13 c 0
 41 -10 57 12 61 19 c 0
 120 127 112 119 149 189 c 1
 142 203 135 219 135 222 c 0
 135 224 148 226 170 230 c 1
 189 266 201 290 226 327 c 1
 273 402 363 443 424 443 c 0
 459 443 484 424 484 389 c 0
 484 324 410 269 208 226 c 1
 180 172 l 1
 291 -11 l 1
 331 -83 366 -122 421 -122 c 0
 459 -122 488 -103 505 -79 c 0
 509 -75 516 -72 521 -72 c 0
 525 -72 528 -74 528 -76 c 0
 528 -78 528 -78 528 -79 c 0
 497 -108 455 -133 404 -133 c 0
 360 -133 324 -119 297 -79 c 0
 259 -22 207 86 169 152 c 1
 143 97 119 28 108 2 c 0
 103 -10 84 0 60 -9 c 0
 50 -13 50 -16 46 -16 c 0
EndSplineSet
Validated: 1
EndChar

StartChar: S
Encoding: 83 83 49
Width: 376
Flags: W
HStem: -17 21<129.546 208.287> 421 22<315.742 386.056>
VStem: 38 36<41.8572 99.5> 209 35<292.769 368.297> 312 41<81.9784 176.312> 415 35<380.249 402.888>
AnchorPoint: "cedilla" 150 0 basechar 0
AnchorPoint: "below" 128 -50 basechar 0
AnchorPoint: "above" 394 500 basechar 0
LayerCount: 2
Fore
SplineSet
38 68 m 0
 38 72 44 77 50 83 c 0
 66 99 78 117 80 117 c 0
 81 117 83 117 83 115 c 0
 83 113 74 104 74 95 c 0
 74 22 145 4 182 4 c 0
 266 4 312 72 312 114 c 0
 312 193 209 249 209 319 c 0
 209 389 306 443 373 443 c 0
 429 443 450 400 450 395 c 0
 450 390 436 383 427 376 c 0
 420 371 420 370 418 370 c 0
 416 370 415 371 415 373 c 0
 415 396 385 421 341 421 c 0
 277 421 244 378 244 340 c 0
 244 275 353 217 353 143 c 0
 353 59 236 -17 148 -17 c 0
 66 -17 38 34 38 68 c 0
EndSplineSet
Validated: 1
EndChar

StartChar: T
Encoding: 84 84 50
Width: 364
Flags: W
HStem: -14 21G<75 105.5> 414 21<176.264 318 370 493.525> 516 21<195.902 214.358> 544 8<246.999 300.128>
VStem: 333 43<436.69 525.361>
AnchorPoint: "below" 85 -50 basechar 0
AnchorPoint: "above" 374 530 basechar 0
AnchorPoint: "cedilla" 113 0 basechar 0
LayerCount: 2
Fore
SplineSet
143 -1 m 0
 138 -7 133 -14 78 -14 c 0
 72 -14 71 -14 71 -11 c 0
 71 -8 84 -9 96 8 c 0
 158 90 277 291 318 414 c 5
 294 414 270 413 244 412 c 4
 121 406 122 381 116 381 c 4
 114 381 113 382 113 384 c 4
 113 386 117 391 124 398 c 4
 135 409 156 421 182 426 c 4
 220 433 269 434 325 435 c 5
 330 454 333 470 333 483 c 0
 333 508 329 544 275 544 c 0
 253 544 240 540 221 531 c 0
 215 528 203 516 196 516 c 0
 193 516 191 516 191 519 c 0
 191 523 193 527 216 537 c 0
 235 546 256 552 280 552 c 0
 344 552 376 518 376 466 c 0
 376 459 374 449 370 436 c 1
 417 437 467 439 518 445 c 0
 541 448 543 449 545 449 c 0
 547 449 555 449 548 444 c 0
 527 430 509 426 483 423 c 0
 439 418 400 416 363 415 c 1
 317 294 168 35 143 -1 c 0
EndSplineSet
Validated: 1
EndChar

StartChar: U
Encoding: 85 85 51
Width: 508
Flags: W
HStem: -8 24<169.503 238.423 384.572 438.608> 429 14<182.181 234.52>
VStem: 101 47<27.1684 140.972> 249 42<338.294 425.385> 360 38<16.0826 106.594>
AnchorPoint: "below" 188 -50 basechar 0
AnchorPoint: "cedilla" 191 0 basechar 0
AnchorPoint: "above" 421 500 basechar 0
LayerCount: 2
Fore
SplineSet
291 394 m 0
 291 331 148 154 148 79 c 0
 148 35 174 16 206 16 c 0
 275 16 355 98 399 151 c 1
 469 301 494 343 539 400 c 0
 548 411 566 429 580 429 c 0
 583 429 586 427 586 425 c 0
 586 397 487 252 474 232 c 0
 449 194 398 84 398 36 c 0
 398 23 404 15 428 15 c 0
 458 15 508 46 539 71 c 0
 567 94 588 118 592 124 c 0
 594 127 595 127 596 127 c 0
 597 127 598 126 598 125 c 0
 598 124 598 124 597 122 c 0
 557 73 522 45 472 18 c 0
 444 3 417 -4 396 -4 c 0
 370 -4 360 12 360 32 c 0
 360 59 375 92 383 110 c 1
 326 56 258 -8 183 -8 c 0
 135 -8 101 21 101 70 c 0
 101 148 249 348 249 390 c 0
 249 412 238 429 209 429 c 0
 180 429 157 421 127 391 c 0
 121 385 118 381 116 381 c 0
 114 381 113 382 113 384 c 0
 113 386 117 391 124 398 c 0
 157 432 191 443 227 443 c 0
 269 443 291 421 291 394 c 0
EndSplineSet
Validated: 1
MultipleSubs2: "Multiple Substitution-1" uniE00D U
EndChar

StartChar: V
Encoding: 86 86 52
Width: 419
Flags: W
HStem: -17 21G<98 103> 425 18<178.301 219.131> 435 12<575.221 593.329>
VStem: 231 44<264.542 422.506>
AnchorPoint: "below" 92 -50 basechar 0
AnchorPoint: "above" 393 500 basechar 0
LayerCount: 2
Fore
SplineSet
181 81 m 1xd0
 243 166 323 253 424 338 c 0
 489 393 539 426 579 443 c 0xd0
 584 445 590 447 592 447 c 0
 594 447 597 446 597 444 c 0
 597 442 589 439 581 435 c 0xb0
 555 421 512 400 428 325 c 0
 328 236 248 146 186 59 c 0
 155 15 165 30 153 9 c 0
 149 2 136 -3 127 -8 c 0
 120 -11 105 -17 101 -17 c 0
 95 -17 92 -16 92 -11 c 0
 92 7 126 59 139 85 c 0
 186 183 231 295 231 376 c 0
 231 410 217 425 198 425 c 0
 185 425 157 421 127 391 c 0
 121 385 118 381 116 381 c 0
 114 381 113 382 113 384 c 0
 113 386 117 391 124 398 c 0
 157 432 198 443 217 443 c 0
 259 443 275 407 275 375 c 0
 275 293 212 150 181 81 c 1xd0
EndSplineSet
Validated: 1
EndChar

StartChar: W
Encoding: 87 87 53
Width: 601
Flags: W
HStem: -28 10<416.838 465.998> -12 21G<39 43> 135 27<267.842 336> 425 19<178.402 226.542 368.556 408.911> 437 10<399.47 470.435>
VStem: 239 45<326.059 421.229> 590 35<122.864 313.769>
AnchorPoint: "below" 234 -50 basechar 0
AnchorPoint: "above" 418 500 basechar 0
LayerCount: 2
Fore
SplineSet
221 444 m 0xf6
 272 444 284 415 284 388 c 0
 284 337 224 248 90 20 c 1
 130 59 250 162 317 162 c 0
 355 162 359 137 363 123 c 0
 387 41 382 -18 440 -18 c 0
 560 -18 590 162 590 210 c 0
 590 281 559 437 437 437 c 0
 413 437 393 432 379 423 c 0
 374 420 370 419 366 419 c 0
 362 419 358 421 358 424 c 0
 357 427 361 431 367 434 c 0
 374 437 402 447 439 447 c 0xee
 588 447 625 319 625 228 c 0
 625 115 566 -27 429 -28 c 0
 337 -28 328 33 313 110 c 0
 309 129 303 135 293 135 c 0
 239 135 93 7 76 -5 c 0
 68 -10 45 -12 41 -12 c 0
 37 -12 35 -10 35 -4 c 0
 35 0 40 9 43 15 c 0
 63 54 113 139 151 205 c 1
 163 228 239 348 239 390 c 0
 239 407 227 425 198 425 c 0
 185 425 157 421 127 391 c 0
 121 385 118 381 116 381 c 0
 114 381 113 382 113 384 c 0
 113 386 117 391 124 398 c 0
 157 432 197 444 221 444 c 0xf6
EndSplineSet
Validated: 1
EndChar

StartChar: X
Encoding: 88 88 54
Width: 445
Flags: W
HStem: -53 24<391.763 454.401> -4 25<10.0641 84.3093> 417 26<206.593 248.27 527.756 588.821>
VStem: 563 42<404.453 418.823>
AnchorPoint: "above" 418 500 basechar 0
AnchorPoint: "below" 214 -50 basechar 0
LayerCount: 2
Fore
SplineSet
26 41 m 0
 30 41 31 21 65 21 c 0
 87 21 105 28 110 32 c 0
 153 57 207 117 287 206 c 1
 276 330 272 417 220 417 c 0
 210 417 195 415 171 391 c 0
 165 385 162 381 160 381 c 0
 158 381 157 382 157 384 c 0
 157 386 161 391 168 398 c 0
 196 428 224 443 246 443 c 0
 305 443 315 358 325 248 c 1
 410 341 455 383 494 411 c 0
 502 416 542 443 574 443 c 0
 600 443 605 429 605 426 c 0
 605 420 600 419 591 411 c 0
 583 404 569 388 565 388 c 0
 564 388 563 389 563 390 c 0
 563 393 567 393 567 401 c 0
 567 409 557 419 538 419 c 0
 526 419 519 416 499 399 c 0
 461 368 409 315 327 224 c 1
 336 125 343 63 357 27 c 0
 373 -15 404 -29 434 -29 c 0
 449 -29 470 -26 483 -13 c 0
 486 -10 489 -6 492 -6 c 0
 495 -6 496 -9 496 -10 c 0
 496 -19 453 -53 400 -53 c 0
 366 -53 330 -37 313 21 c 0
 303 56 296 108 289 181 c 1
 237 122 176 58 114 22 c 0
 103 16 63 -4 29 -4 c 0
 10 -4 -10 7 -10 10 c 0
 -10 13 -2 18 6 24 c 0
 15 31 21 41 26 41 c 0
EndSplineSet
Validated: 1
EndChar

StartChar: Y
Encoding: 89 89 55
Width: 508
Flags: W
HStem: -483 15<-44.3571 10.4094> -8 24<173.918 243.757> 429 14<182.181 234.673>
VStem: -112 49<-462.837 -344.391> 107 47<26.8237 142.452> 250 40<342.095 424.684>
AnchorPoint: "above" 421 500 basechar 0
AnchorPoint: "cedilla" 197 0 basechar 0
LayerCount: 2
Fore
SplineSet
291 -84 m 1
 169 -144 -63 -267 -63 -419 c 0
 -63 -447 -50 -468 -17 -468 c 0
 70 -468 135 -375 174 -303 c 0
 242 -181 258 -152 291 -84 c 1
472 232 m 0
 422 150 388 46 338 -48 c 1
 404 -17 480 26 539 71 c 1
 567 94 588 118 592 124 c 0
 594 127 595 127 596 127 c 0
 597 127 598 126 598 125 c 0
 598 124 598 124 597 122 c 0
 577 97 559 78 538 61 c 0
 497 27 412 -24 329 -65 c 1
 297 -129 262 -191 198 -299 c 0
 157 -367 68 -483 -31 -483 c 0
 -87 -483 -112 -455 -112 -415 c 0
 -112 -264 169 -126 300 -65 c 1
 383 110 l 1
 326 56 264 -8 189 -8 c 0
 141 -8 107 19 107 68 c 0
 107 148 250 348 250 390 c 0
 250 412 238 429 209 429 c 0
 180 429 157 421 127 391 c 0
 121 385 118 380 116 380 c 0
 114 380 113 381 113 383 c 0
 113 385 117 391 124 398 c 0
 157 432 191 443 227 443 c 0
 269 443 290 420 290 393 c 0
 290 349 154 161 154 77 c 0
 154 33 180 16 212 16 c 0
 281 16 355 98 399 151 c 1
 469 301 490 353 535 410 c 0
 544 421 550 429 564 429 c 0
 567 429 570 427 570 425 c 0
 570 397 485 252 472 232 c 0
EndSplineSet
Validated: 1
MultipleSubs2: "Multiple Substitution-1" uniE00D Y
EndChar

StartChar: Z
Encoding: 90 90 56
Width: 417
Flags: W
HStem: -89 24<427.554 525.458> -30 20G<569.5 572.5> -2 21G<59 70> 15 30<110.851 221.975> 391 18<336.819 448.755> 410 21<214.265 314.882>
VStem: 568 15<-29.1406 -15.3543>
AnchorPoint: "below" 162 -50 basechar 0
AnchorPoint: "above" 381 500 basechar 0
LayerCount: 2
Fore
SplineSet
397 409 m 0xee
 476 409 474 424 494 424 c 0
 506 424 515 417 515 413 c 0
 515 406 512 411 474 377 c 2
 110 42 l 1
 127 44 137 45 151 45 c 0
 260 45 351 -65 465 -65 c 0
 529 -65 568 -30 568 -15 c 0
 568 -13 568 -10 571 -10 c 0
 574 -10 583 -29 583 -33 c 1
 583 -33 561 -89 499 -89 c 0
 381 -89 258 15 162 15 c 0xde
 96 15 78 -2 62 -2 c 0
 56 -2 48 2 42 5 c 0
 29 11 26 8 26 12 c 0
 26 16 34 22 35 23 c 2
 450 398 l 1
 426 393 398 391 383 391 c 0
 314 391 309 410 239 410 c 0
 216 410 201 405 186 391 c 0
 180 385 177 381 175 381 c 0
 173 381 172 382 172 384 c 0
 172 386 176 391 183 398 c 0
 214 430 249 431 269 431 c 0
 297 431 355 409 397 409 c 0xee
EndSplineSet
Validated: 1
EndChar

StartChar: bracketleft
Encoding: 91 91 57
Width: 270
Flags: W
HStem: -71 8<120.97 191.999> 499 8<399.968 466.816>
VStem: 22 53<-68.5 -23.0378>
LayerCount: 2
Fore
SplineSet
182 -63 m 0
 190 -63 192 -65 192 -67 c 0
 192 -69 190 -71 182 -71 c 2
 27 -71 l 2
 25 -71 22 -70 22 -67 c 0
 22 -63 41 -29 46 -19 c 2
 309 481 l 2
 316 496 322 507 329 507 c 2
 462 507 l 2
 465 507 467 506 467 504 c 0
 467 501 463 499 457 499 c 0
 420 499 356 492 349 479 c 2
 84 -23 l 2
 78 -35 75 -42 75 -45 c 0
 75 -53 125 -63 182 -63 c 0
EndSplineSet
Validated: 1
EndChar

StartChar: backslash
Encoding: 92 92 58
Width: 178
Flags: W
HStem: -69 21G<219 221.5>
VStem: 24 212
LayerCount: 2
Fore
SplineSet
24 532 m 2
 24 534 35 542 41 542 c 0
 42 542 42 542 42 542 c 1
 236 -58 l 2
 236 -60 223 -69 220 -69 c 1
 219 -68 l 1
 24 532 l 2
EndSplineSet
Validated: 1
EndChar

StartChar: asciicircum
Encoding: 94 94 60
Width: 253
Flags: W
HStem: 272 172
VStem: 109 227<276 288>
LayerCount: 2
Fore
SplineSet
218 428 m 0
 223 436 242 444 244 444 c 0
 245 444 245 443 247 438 c 0
 288 342 336 292 336 288 c 0
 336 282 313 272 308 272 c 1
 308 272 257 343 225 414 c 1
 198 380 168 340 136 290 c 0
 134 286 114 275 110 275 c 1
 110 275 109 275 109 276 c 0
 109 278 118 277 218 428 c 0
EndSplineSet
Validated: 1
EndChar

StartChar: underscore
Encoding: 95 95 61
Width: 317
Flags: W
HStem: -50 20<-13 322.656>
LayerCount: 2
Fore
SplineSet
301 -50 m 2
 -16 -50 l 2
 -19 -50 -20 -49 -20 -48 c 0
 -20 -46 -18 -46 -17 -45 c 0
 -10 -38 -12 -30 5 -30 c 2
 322 -30 l 2
 324 -30 325 -32 325 -33 c 0
 325 -44 311 -50 301 -50 c 2
EndSplineSet
Validated: 1
EndChar

StartChar: grave
Encoding: 96 96 62
Width: 126
Flags: W
HStem: 273 121
VStem: 141 65
LayerCount: 2
Fore
SplineSet
206 274 m 0
 206 273 206 273 205 273 c 0
 203 273 199 275 198 277 c 0
 170 323 160 341 142 369 c 0
 141 370 141 373 141 375 c 0
 141 383 145 394 151 394 c 0
 153 394 156 393 158 389 c 2
 201 285 l 2
 202 282 206 275 206 274 c 0
EndSplineSet
Validated: 1
EndChar

StartChar: a
Encoding: 97 97 63
Width: 306
Flags: W
HStem: 0 17<57.5 112.4 192.29 260.1> 219 12<178.6 231.088>
VStem: 31 39<18.3217 115.531> 165 38<14.4493 35> 268 13<140.45 171.5>
AnchorPoint: "above" 240 274 basechar 0
AnchorPoint: "below" 84 -50 basechar 0
AnchorPoint: "cedilla" 214 -1 basechar 0
LayerCount: 2
Fore
SplineSet
217 84 m 1
 256 123 268 144 268 152 c 0
 268 155 266 156 264 156 c 0
 255 156 232 113 217 84 c 1
207 219 m 0
 141 219 70 118 70 52 c 0
 70 35 75 17 98 17 c 0
 125 17 152 34 167 45 c 1
 175 73 196 107 210 126 c 0
 222 143 244 170 260 176 c 1
 251 199 236 219 207 219 c 0
205 231 m 0
 240 231 259 210 268 178 c 1
 273 178 281 176 281 167 c 0
 281 136 256 114 237 94 c 0
 231 88 219 77 211 69 c 1
 207 56 203 42 203 34 c 0
 203 24 207 13 235 13 c 0
 270 13 312 46 341 71 c 0
 367 94 386 118 390 124 c 0
 392 127 393 127 394 127 c 0
 395 127 396 126 396 125 c 0
 396 124 396 124 395 122 c 0
 358 73 325 45 279 18 c 0
 251 2 225 -6 205 -6 c 0
 180 -6 165 5 165 26 c 0
 165 29 166 32 166 35 c 1
 132 14 98 0 73 0 c 0
 42 0 31 23 31 51 c 0
 31 126 124 231 205 231 c 0
EndSplineSet
Validated: 513
Substitution2: "'ss02' Stilgruppe 2 lookup 6-1" uniE022
EndChar

StartChar: b
Encoding: 98 98 64
Width: 331
Flags: W
HStem: -10 20<131.669 177.282> 229 20<241.372 304.5> 690 24<451.443 498>
VStem: 68 37<26.8421 130.05> 305 34<143.654 220.679> 468 40<606.502 702.949>
AnchorPoint: "below" 88 -50 basechar 0
AnchorPoint: "above" 325 274 basechar 0
LayerCount: 2
Fore
SplineSet
141 175 m 1
 113 128 105 93 105 72 c 0
 105 38 131 10 160 10 c 0
 219 10 305 104 305 186 c 0
 305 221 276 229 260 229 c 0
 225 229 184 206 141 175 c 1
63 202 m 0
 74 210 150 265 171 282 c 1
 258 447 l 2
 306 536 347 630 429 688 c 0
 453 706 476 714 491 714 c 0
 505 714 508 698 508 692 c 0
 508 553 347 417 213 308 c 1
 149 190 l 1
 182 213 243 249 292 249 c 0
 317 249 339 232 339 204 c 0
 339 120 220 -10 136 -10 c 0
 97 -10 68 16 68 62 c 0
 68 102 79 125 164 269 c 1
 77 206 91 216 67 199 c 0
 64 197 63 196 62 196 c 0
 61 196 60 197 60 198 c 0
 60 199 60 200 63 202 c 0
221 324 m 1
 339 422 468 543 468 670 c 0
 468 681 463 690 455 690 c 0
 423 690 354 582 294 466 c 2
 221 324 l 1
EndSplineSet
Validated: 1
EndChar

StartChar: c
Encoding: 99 99 65
Width: 234
Flags: W
HStem: -11 12<97.8844 150.659> 214 20<168.164 212>
VStem: 34 38<10.7454 111.191> 197 33<181.797 212.576>
AnchorPoint: "below" 76 -50 basechar 0
AnchorPoint: "above" 204 274 basechar 0
AnchorPoint: "cedilla" 102 0 basechar 0
LayerCount: 2
Fore
SplineSet
72 60 m 0
 72 29 79 1 131 1 c 0
 170 1 230 37 269 71 c 0
 295 94 314 118 318 124 c 0
 320 127 321 127 322 127 c 0
 323 127 324 126 324 125 c 0
 324 124 324 124 323 122 c 0
 308 102 291 84 273 68 c 0
 244 42 180 -11 108 -11 c 0
 70 -11 34 5 34 45 c 0
 35 139 150 234 204 234 c 0
 220 234 230 222 230 205 c 0
 230 193 229 190 211 180 c 0
 205 177 200 175 197 175 c 0
 196 175 195 175 195 176 c 0
 195 177 197 180 197 187 c 0
 197 206 183 214 174 214 c 0
 132 214 72 112 72 60 c 0
EndSplineSet
Validated: 1
EndChar

StartChar: d
Encoding: 100 100 66
Width: 341
Flags: W
HStem: 0 17<57.5 112.804 227.787 284.828> 219 12<178.6 231.02> 651 14<549.815 576.5>
VStem: 31 39<18.3217 115.531> 189 33<16.6653 72.3939> 567 22<592.503 650.826>
AnchorPoint: "above" 225 274 basechar 0
AnchorPoint: "cedilla" 112 0 basechar 0
AnchorPoint: "below" 100 -50 basechar 0
AnchorPoint: "aboveright" 622 583 basechar 0
LayerCount: 2
Fore
SplineSet
265 163 m 1
 238 107 l 1
 300 175 419 324 467 404 c 0
 499 458 567 592 567 637 c 0
 567 646 564 651 558 651 c 0
 508 651 416 473 386 411 c 2
 270 172 l 1
 271 168 271 165 271 163 c 0
 271 161 270 160 268 160 c 0
 267 160 266 161 265 163 c 1
251 194 m 1
 242 208 228 219 207 219 c 0
 141 219 70 118 70 52 c 0
 70 35 75 17 98 17 c 0
 125 17 163 40 193 65 c 1
 199 86 221 134 251 194 c 1
256 205 m 1
 351 396 l 2
 395 485 450 599 543 655 c 0
 555 662 564 665 571 665 c 0
 582 665 589 656 589 640 c 0
 589 556 535 465 480 386 c 0
 434 319 289 147 232 90 c 1
 225 72 222 59 222 45 c 0
 222 25 234 13 257 13 c 0
 292 13 336 45 366 71 c 0
 392 94 411 118 415 124 c 0
 417 127 418 127 419 127 c 0
 420 127 421 126 421 125 c 0
 421 124 421 124 420 122 c 0
 383 73 350 45 304 18 c 0
 278 3 255 -4 236 -4 c 0
 207 -4 189 13 189 39 c 0
 189 44 189 48 191 56 c 1
 139 13 98 0 73 0 c 0
 42 0 31 23 31 51 c 0
 31 126 124 231 205 231 c 0
 229 231 245 221 256 205 c 1
EndSplineSet
Validated: 1
EndChar

StartChar: e
Encoding: 101 101 67
Width: 217
Flags: W
HStem: -8 13<86.6217 141.089> 219 14<172.57 205.5>
VStem: 30 39<10.7496 78.8914> 191 32<187.639 225.427>
AnchorPoint: "below" 79 -50 basechar 0
AnchorPoint: "cedilla" 105 0 basechar 0
AnchorPoint: "above" 207 274 basechar 0
LayerCount: 2
Fore
SplineSet
78 95 m 1
 72 78 69 62 69 50 c 0
 69 18 84 5 118 5 c 0
 162 5 216 40 252 71 c 0
 278 94 297 118 301 124 c 0
 303 127 304 127 305 127 c 0
 306 127 307 126 307 125 c 0
 307 124 307 124 306 122 c 0
 269 74 219 34 172 10 c 0
 151 0 125 -8 98 -8 c 0
 63 -8 30 2 30 39 c 0
 30 47 32 55 34 64 c 1
 27 59 15 48 14 48 c 0
 13 48 13 49 13 50 c 0
 13 51 13 52 14 53 c 0
 18 57 28 65 36 71 c 1
 69 173 166 233 197 233 c 0
 214 233 223 226 223 213 c 0
 223 188 169 159 78 95 c 1
82 104 m 1
 155 157 191 187 191 208 c 0
 191 212 189 219 180 219 c 0
 145 219 103 158 82 104 c 1
EndSplineSet
Validated: 1
EndChar

StartChar: f
Encoding: 102 102 68
Width: 200
Flags: W
HStem: -598 25<-405.123 -341.112> 734 20<480.32 549.5>
VStem: -442 32<-536.063 -386.752> 542 34<642.739 723.128>
AnchorPoint: "above" 537 788 basechar 0
LayerCount: 2
Fore
SplineSet
38 33 m 1
 -405 -292 -410 -408 -410 -448 c 0
 -410 -475 -400 -573 -356 -573 c 0
 -327 -573 -258 -520 -233 -480 c 0
 -157 -362 -60 -141 38 33 c 1
263 202 m 6
 266 204 267 205 268 205 c 4
 269 205 270 204 270 203 c 4
 270 202 270 201 267 199 c 4
 251 189 176 136 98 79 c 5
 -21 -142 -194 -460 -225 -497 c 0
 -279 -562 -359 -598 -379 -598 c 0
 -430 -598 -442 -500 -442 -446 c 0
 -442 -281 -76 -37 49 54 c 1
 49 54 70 97 84 124 c 0
 113 182 154 258 224 391 c 0
 379 685 442 754 532 754 c 0
 567 754 576 713 576 700 c 0
 576 673 569 658 554 634 c 0
 552 630 543 623 534 619 c 0
 525 615 520 614 522 618 c 0
 537 642 542 656 542 682 c 0
 542 710 523 734 502 734 c 0
 437 734 389 653 248 377 c 1
 106 95 l 5
 263 202 l 6
EndSplineSet
Validated: 1
EndChar

StartChar: g
Encoding: 103 103 69
Width: 290
Flags: W
HStem: -533 19<-283.648 -196.12> -60 20G<57.5 61> 0 17<56.5 112.011> 219 13<172.009 220.793>
VStem: -411 34<-439.396 -319.985> 31 38<19.2468 113.614> 279 6<137.201 144>
AnchorPoint: "above" 239 274 basechar 0
LayerCount: 2
Fore
SplineSet
272 161 m 1
 257 188 230 219 194 219 c 0
 148 219 69 125 69 46 c 0
 69 31 82 17 98 17 c 0
 157 17 236 104 237 105 c 0
 249 117 262 142 272 161 c 1
-259 -533 m 0
 -330 -533 -411 -483 -411 -394 c 0
 -411 -183 -100 -88 50 -42 c 0
 52 -41 56 -40 59 -40 c 0
 63 -40 65 -42 65 -45 c 0
 65 -49 60 -52 55 -54 c 16
 -86 -98 -377 -169 -377 -374 c 0
 -377 -454 -310 -514 -233 -514 c 0
 -155 -514 -67 -428 -5 -317 c 0
 74 -176 135 -70 230 89 c 1
 188 44 123 0 71 0 c 0
 42 0 31 22 31 52 c 0
 31 122 123 232 194 232 c 0
 233 232 259 201 275 166 c 1
 278 172 l 2
 286 188 291 181 299 187 c 0
 300 188 301 188 302 188 c 0
 303 188 303 188 303 186 c 0
 303 184 302 181 300 179 c 0
 296 175 289 161 282 149 c 1
 283 147 285 141 285 139 c 0
 285 137 285 136 283 136 c 0
 282 136 280 142 279 144 c 1
 279 143 33 -313 33 -313 c 2
 -20 -411 -119 -533 -259 -533 c 0
EndSplineSet
Validated: 1
EndChar

StartChar: h
Encoding: 104 104 70
Width: 335
Flags: W
HStem: -4 17<240.77 282.911> 234 20<249.23 297.5> 690 24<451.443 498>
VStem: 26 41<-1.5083 48.0069> 214 41<13.2244 98.4049> 288 35<165.555 233.303> 468 40<606.502 702.949>
AnchorPoint: "cedilla" 41 0 basechar 0
AnchorPoint: "below" 113 -50 basechar 0
AnchorPoint: "above" 499 760 basechar 0
LayerCount: 2
Fore
SplineSet
221 324 m 1
 339 422 468 543 468 670 c 0
 468 681 463 690 455 690 c 0
 423 690 354 582 294 466 c 2
 221 324 l 1
171 282 m 1
 258 447 l 2
 305 536 347 630 429 688 c 0
 453 706 476 714 491 714 c 0
 505 714 508 698 508 692 c 0
 508 553 347 417 213 308 c 1
 142 165 l 1
 155 176 233 254 287 254 c 0
 308 254 323 237 323 213 c 0
 323 161 255 92 255 30 c 0
 255 21 259 13 270 13 c 0
 294 13 343 46 372 71 c 0
 398 94 417 118 421 124 c 0
 423 127 424 127 425 127 c 0
 426 127 427 126 427 125 c 0
 427 124 427 124 426 122 c 0
 389 73 356 45 310 18 c 0
 284 3 263 -4 248 -4 c 0
 225 -4 214 10 214 33 c 0
 214 89 288 176 288 211 c 0
 288 222 280 234 266 234 c 0
 226 234 148 154 131 128 c 0
 106 91 74 39 67 3 c 0
 66 -1 63 -1 59 -1 c 0
 40 -1 40 -4 35 -4 c 0
 30 -4 26 -1 26 3 c 0
 26 10 66 88 86 124 c 0
 107 164 134 218 164 269 c 1
 77 206 91 216 67 199 c 0
 64 197 63 196 62 196 c 0
 61 196 60 197 60 198 c 0
 60 199 60 200 63 202 c 0
 74 210 150 265 171 282 c 1
EndSplineSet
Validated: 513
Substitution2: "'ss02' Stilgruppe 2 lookup 6-1" uniE021
EndChar

StartChar: k
Encoding: 107 107 73
Width: 287
Flags: W
HStem: -9 17<156.219 221.257> 203 22<246.738 302.235> 690 24<451.443 498>
VStem: 17 41<-2.26358 39.3789> 91 34<27.91 110.222> 468 40<606.502 702.949>
AnchorPoint: "above" 499 760 basechar 0
AnchorPoint: "below" 73 -50 basechar 0
LayerCount: 2
Fore
SplineSet
221 324 m 1
 339 422 468 543 468 670 c 0
 468 681 463 690 455 690 c 0
 423 690 354 582 294 466 c 2
 221 324 l 1
91 64 m 0
 91 67 92 72 92 72 c 1
 79 47 63 20 58 7 c 0
 55 1 48 1 42 -1 c 0
 38 -2 31 -5 25 -5 c 0
 21 -5 17 -4 17 -1 c 0
 17 6 33 32 35 36 c 2
 84 124 l 2
 87 128 138 221 164 269 c 1
 77 206 91 216 67 199 c 0
 64 197 63 196 62 196 c 0
 61 196 60 197 60 198 c 0
 60 199 60 200 63 202 c 0
 74 210 150 265 171 282 c 1
 258 447 l 2
 305 536 347 630 429 688 c 0
 453 706 476 714 491 714 c 0
 505 714 508 698 508 692 c 0
 508 553 347 417 213 308 c 1
 127 137 l 1
 183 196 261 225 294 225 c 0
 300 225 310 224 310 222 c 0
 310 218 289 203 278 203 c 0
 277 203 273 205 264 205 c 0
 213 205 125 145 125 82 c 0
 125 60 130 8 192 8 c 0
 239 8 283 37 322 71 c 0
 348 94 367 118 371 124 c 0
 373 127 374 127 375 127 c 0
 376 127 377 126 377 125 c 0
 377 124 377 124 376 122 c 0
 361 102 346 85 328 69 c 0
 321 62 255 -9 172 -9 c 0
 116 -9 91 20 91 64 c 0
EndSplineSet
Validated: 1
EndChar

StartChar: l
Encoding: 108 108 74
Width: 218
Flags: W
HStem: -11 14<78.5 137.187> 690 24<448.443 495>
VStem: 47 38<4.77221 88.8181> 465 40<606.502 702.949>
AnchorPoint: "middleright" 228 200 basechar 0
AnchorPoint: "aboveright" 542 603 basechar 0
AnchorPoint: "below" 48 -50 basechar 0
AnchorPoint: "above" 499 760 basechar 0
LayerCount: 2
Fore
SplineSet
218 324 m 5
 336 422 465 543 465 670 c 4
 465 681 460 690 452 690 c 0
 420 690 351 582 291 466 c 2
 218 324 l 5
161 269 m 5
 74 206 91 216 67 199 c 4
 64 197 63 196 62 196 c 4
 61 196 60 197 60 198 c 4
 60 199 60 200 63 202 c 4
 74 210 147 265 168 282 c 5
 255 447 l 5
 301 536 339 630 426 688 c 5
 450 706 473 714 488 714 c 4
 502 714 505 698 505 692 c 4
 505 553 344 417 210 308 c 5
 142 175 l 6
 115 122 85 63 85 34 c 4
 85 18 96 3 114 3 c 4
 160 3 219 41 254 71 c 4
 280 94 299 118 303 124 c 4
 305 127 306 127 307 127 c 4
 308 127 309 126 309 125 c 4
 309 124 309 124 308 122 c 4
 271 73 238 45 192 18 c 4
 157 -2 116 -11 93 -11 c 4
 64 -11 47 4 47 30 c 4
 47 56 60 79 84 124 c 6
 161 269 l 5
EndSplineSet
Validated: 1
EndChar

StartChar: m
Encoding: 109 109 75
Width: 368
Flags: W
HStem: -182 11<317.684 364.727> -81 20G<508.5 509.5> -7 21G<11.5 15> 189 23<189.126 218.677 305.931 348.999> 216 14<98.0164 133>
VStem: 119 33<161.118 215.716> 205 33<133.217 198.996> 234 33<-134.773 10.2388> 331 46<144.457 203.395>
AnchorPoint: "below" 124 -50 basechar 0
AnchorPoint: "above" 268 274 basechar 0
LayerCount: 2
Fore
SplineSet
66 197 m 0xfe80
 64 196 63 196 62 196 c 0
 60 196 60 197 60 198 c 0
 60 200 72 208 78 212 c 0
 90 220 109 230 123 230 c 0
 143 230 152 224 152 207 c 0
 152 187 139 166 130 151 c 1
 156 175 191 212 222 212 c 0
 233 212 238 200 238 186 c 0xfe80
 238 167 225 142 225 142 c 1
 225 142 303 215 351 215 c 0
 367 215 377 207 377 192 c 0
 377 154 267 48 267 -71 c 0
 267 -116 289 -171 345 -171 c 0
 396 -171 475 -108 505 -64 c 0
 507 -61 508 -61 509 -61 c 0
 510 -61 511 -62 511 -63 c 0
 511 -64 511 -64 510 -66 c 0
 467 -124 394 -182 331 -182 c 0
 276 -182 234 -139 234 -77 c 0xfd80
 234 48 331 143 331 178 c 0
 331 185 327 189 319 189 c 0
 291 189 242 148 221 123 c 0
 212 112 196 97 178 97 c 0
 177 97 175 98 175 100 c 0
 175 111 181 109 185 113 c 1
 185 113 205 156 205 172 c 0
 205 178 203 185 197 185 c 0
 178 185 141 147 127 132 c 0
 106 109 65 30 54 15 c 0
 49 8 41 7 32 2 c 0
 25 -2 17 -7 13 -7 c 0
 10 -7 9 -5 9 -2 c 0
 9 0 10 2 13 5 c 0
 27 22 63 88 84 124 c 0
 104 159 119 183 119 199 c 0
 119 212 112 216 104 216 c 0
 93 216 82 208 66 197 c 0xfe80
EndSplineSet
Validated: 1
EndChar

StartChar: n
Encoding: 110 110 76
Width: 314
Flags: W
HStem: -10 20<204 253.858> 207 21<224.945 264.916> 214 14<95.7407 134.5>
VStem: 119 34<160.139 213.882> 183 36<10.2801 69.275> 251 36<140.981 206.961>
AnchorPoint: "below" 102 -50 basechar 0
AnchorPoint: "above" 228 274 basechar 0
LayerCount: 2
Fore
SplineSet
107 214 m 4xbc
 93 214 79 207 67 199 c 4
 64 197 63 196 62 196 c 4
 61 196 60 197 60 198 c 4
 60 199 60 200 63 202 c 4
 67 205 97 228 126 228 c 4xbc
 143 228 153 217 153 204 c 4
 153 194 143 175 133 157 c 5
 188 204 232 226 258 226 c 4
 281 226 287 206 287 190 c 4
 287 154 219 65 219 29 c 4
 219 19 225 10 235 10 c 4
 274 10 313 39 344 66 c 4
 368 87 391 113 398 124 c 4
 400 127 401 127 402 127 c 4
 403 127 404 126 404 125 c 4
 404 124 404 124 403 122 c 4
 385 98 367 80 350 63 c 4
 295 10 238 -10 211 -10 c 4
 197 -10 183 -5 183 13 c 4
 183 62 251 143 251 182 c 4
 251 200 245 207 232 207 c 4xdc
 205 207 127 143 124 137 c 6
 51 4 l 6
 48 -2 42 0 31 -4 c 4
 23 -7 23 -8 18 -8 c 4
 15 -8 12 -6 12 -3 c 4
 12 1 22 16 38 43 c 4
 52 67 62 83 84 124 c 4
 92 139 119 188 119 201 c 4
 119 208 115 214 107 214 c 4xbc
EndSplineSet
Validated: 513
Substitution2: "'ss02' Stilgruppe 2 lookup 6-1" uniE020
EndChar

StartChar: o
Encoding: 111 111 77
Width: 268
Flags: W
HStem: -9 13<81.7792 121.32> 210 11<168.982 195.639> 236 22<212 238.969>
VStem: 31 37<7.43739 112.393> 195 27<179.699 201> 251 10<153.218 160 169.25 210.859>
AnchorPoint: "below" 66 -50 basechar 0
AnchorPoint: "cedilla" 91 0 basechar 0
AnchorPoint: "above" 239 274 basechar 0
LayerCount: 2
Fore
SplineSet
250 169 m 1
 251 177 251 185 251 192 c 0
 250 210 235 236 229 236 c 0
 223 236 222 222 222 216 c 1
 226 215 231 210 231 206 c 0
 231 203 226 200 225 200 c 0
 224 200 223 201 222 201 c 1
 222 187 235 173 250 169 c 1
248 160 m 1
 222 161 197 183 195 210 c 1
 133 210 68 112 68 41 c 0
 68 26 77 4 100 4 c 0
 162 4 233 88 248 160 c 1
335 199 m 4
 314 185 288 163 258 160 c 5
 242 78 165 -9 85 -9 c 0
 51 -9 31 7 31 42 c 0
 31 126 116 221 195 221 c 1
 196 233 203 258 221 258 c 0
 246 258 261 230 261 192 c 0
 261 184 260 176 259 168 c 5
 283 168 315 191 331 202 c 4
 334 204 335 205 336 205 c 4
 337 205 338 204 338 203 c 4
 338 202 338 201 335 199 c 4
EndSplineSet
Validated: 1
EndChar

StartChar: p
Encoding: 112 112 78
Width: 262
Flags: W
HStem: -533 21G<-313.5 -310> -25 20<60.0997 157.114> 209 25<217.649 263>
VStem: 73 33<116.617 204.834> 245 39<150.677 221.051>
AnchorPoint: "above" 220 274 basechar 0
LayerCount: 2
Fore
SplineSet
74 88 m 1
 37 19 l 1
 149 41 245 144 245 180 c 0
 245 205 232 209 223 209 c 0
 197 209 116 139 74 88 c 1
78 -25 m 0
 57 -25 35 -19 19 -11 c 1
 -88 -208 -120 -297 -219 -474 c 0
 -248 -526 -308 -533 -312 -533 c 0
 -315 -533 -318 -532 -318 -530 c 0
 -318 -524 -310 -525 -292 -511 c 0
 -275 -498 -251 -476 6 -2 c 1
 3 1 3 1 3 2 c 0
 3 6 12 12 14 12 c 1
 63 102 73 137 73 158 c 0
 73 172 72 190 63 193 c 0
 60 194 59 196 59 197 c 0
 59 199 64 201 68 204 c 0
 80 213 79 217 88 217 c 0
 100 217 106 189 106 173 c 0
 106 157 101 141 94 126 c 1
 167 198 225 234 258 234 c 0
 268 234 284 229 284 200 c 0
 284 142 172 42 49 10 c 1
 64 2 88 -5 108 -5 c 0
 202 -5 257 38 292 67 c 0
 319 90 342 118 346 124 c 0
 348 127 349 127 350 127 c 0
 351 127 352 126 352 125 c 0
 352 124 352 124 351 122 c 0
 334 99 316 79 297 62 c 0
 230 2 157 -25 78 -25 c 0
EndSplineSet
Validated: 1
EndChar

StartChar: q
Encoding: 113 113 79
Width: 316
Flags: W
HStem: -513 21G<-109 -100.5> -1 18<78.4948 119.189> 221 11<181.199 222.183>
VStem: 33 37<19.5679 114.29> 222 14<151.354 175.564> 234 8<178.85 208.517> 252 47<129.764 170.923>
LayerCount: 2
Fore
SplineSet
400 124 m 2xf6
 402 127 403 127 404 127 c 0
 405 127 406 126 406 125 c 0
 406 124 406 124 405 122 c 0
 394 107 401 115 342 54 c 0
 186 -108 93 -198 57 -250 c 0
 25 -296 -95 -513 -106 -513 c 0
 -112 -513 -122 -500 -122 -494 c 0
 -122 -462 -58 -377 -37 -352 c 0
 -12 -322 19 -281 34 -253 c 0
 72 -181 199 31 238 105 c 1
 222 81 143 -1 80 -1 c 0
 53 -1 33 19 33 49 c 0
 33 126 128 232 198 232 c 0
 229 232 242 213 242 188 c 0xf6
 242 178 240 168 236 157 c 0
 235 154 230 151 227 151 c 0
 225 151 222 152 222 156 c 0xfa
 222 164 234 181 234 197 c 0
 234 212 218 221 203 221 c 0
 156 221 70 126 70 46 c 0
 70 31 82 17 100 17 c 0
 141 17 208 69 240 136 c 0
 245 146 250 166 252 167 c 0
 258 170 266 171 274 171 c 0
 287 171 299 167 299 160 c 0
 299 152 258 108 237 71 c 2
 90 -186 l 1
 149 -123 132 -140 355 79 c 0
 383 106 400 124 400 124 c 2xf6
EndSplineSet
Validated: 1
EndChar

StartChar: r
Encoding: 114 114 80
Width: 220
Flags: HMW
VStem: 115 32<150.494 211.723> 206 33<179.36 210.613>
AnchorPoint: "below" 5 -50 basechar 0
AnchorPoint: "above" 197 274 basechar 0
LayerCount: 2
Fore
SplineSet
147 196 m 0
 147 181 123 142 119 134 c 1
 145 164 172 185 193 200 c 0
 219 218 245 230 275 242 c 0
 278 243 280 244 282 244 c 0
 283 244 284 243 284 242 c 0
 284 240 281 239 280 238 c 0
 276 236 239 213 239 194 c 0
 239 188 242 185 248 185 c 0
 258 185 272 194 283 202 c 0
 286 204 287 205 288 205 c 0
 289 205 290 204 290 203 c 0
 290 202 290 201 287 199 c 0
 261 180 248 173 230 173 c 0
 218 173 206 178 206 188 c 0
 206 195 208 199 212 204 c 1
 184 188 140 149 96 90 c 1
 57 18 43 -9 35 -9 c 0
 29 -9 29 -4 23 4 c 0
 21 7 17 10 17 16 c 0
 17 20 18 22 25 33 c 0
 36 50 42 52 56 71 c 1
 106 165 115 181 115 196 c 0
 115 205 109 212 100 212 c 0
 86 212 79 207 67 199 c 0
 64 197 63 196 62 196 c 0
 61 196 60 197 60 198 c 0
 60 199 60 200 63 202 c 0
 79 213 97 224 117 224 c 0
 137 224 147 211 147 196 c 0
EndSplineSet
Validated: 1
EndChar

StartChar: s
Encoding: 115 115 81
Width: 252
Flags: W
HStem: -14 8<64.2596 101.503> 215 13<188.21 217.982>
VStem: 9 31<3.83371 41.9762> 229 38<109.217 213.736>
AnchorPoint: "cedilla" 82 -10 basechar 0
AnchorPoint: "below" 56 -50 basechar 0
AnchorPoint: "above" 231 274 basechar 0
LayerCount: 2
Fore
SplineSet
89 122 m 0
 87 119 86 119 85 119 c 0
 84 119 83 120 83 121 c 0
 83 122 83 122 84 124 c 0
 146 210 190 228 216 228 c 0
 248 228 267 199 267 167 c 0
 267 89 150 -14 77 -14 c 0
 56 -14 10 -4 9 15 c 0
 9 24 34 57 40 57 c 1
 40 57 41 57 41 55 c 0
 41 52 40 49 40 42 c 0
 40 18 53 -6 82 -6 c 0
 135 -6 229 92 229 168 c 0
 229 184 227 215 203 215 c 0
 160 215 99 136 89 122 c 0
EndSplineSet
Validated: 1
EndChar

StartChar: t
Encoding: 116 116 82
Width: 230
Flags: W
HStem: -9 11<97.6659 160.03> 234 13<227.223 266.359>
VStem: 55 38<7.24761 102.194>
AnchorPoint: "aboveright" 302 343 basechar 0
AnchorPoint: "above" 271 461 basechar 0
AnchorPoint: "below" 86 -50 basechar 0
AnchorPoint: "cedilla" 96 0 basechar 0
LayerCount: 2
Fore
SplineSet
63 202 m 0
 67 205 74 210 78 213 c 0
 84 217 110 222 140 227 c 1
 221 377 l 2
 228 391 243 409 260 410 c 0
 265 410 268 409 268 406 c 0
 268 401 260 389 251 374 c 0
 233 343 205 292 174 232 c 1
 249 244 259 247 268 247 c 0
 270 247 271 247 271 246 c 0
 271 242 257 234 253 234 c 0
 243 234 199 226 168 221 c 1
 120 121 l 2
 106 90 93 60 93 42 c 0
 93 19 109 2 130 2 c 0
 187 2 215 26 258 64 c 0
 284 87 310 118 314 124 c 0
 316 127 317 127 318 127 c 0
 319 127 320 126 320 125 c 0
 320 124 320 124 319 122 c 0
 303 101 288 84 272 69 c 0
 222 21 185 -9 112 -9 c 0
 84 -9 55 6 55 43 c 0
 55 67 67 94 84 124 c 2
 132 213 l 1
 112 209 71 202 67 199 c 0
 64 197 63 196 62 196 c 0
 61 196 60 197 60 198 c 0
 60 199 60 200 63 202 c 0
EndSplineSet
Validated: 1
EndChar

StartChar: u
Encoding: 117 117 83
Width: 321
Flags: W
HStem: -8 20<67 116.287 211 269.2> 212 12<91.5232 128>
VStem: 37 38<12.984 74.1796> 117 34<155.271 211.736> 192 34<10.2801 60.5116>
AnchorPoint: "below" 119 -50 basechar 0
AnchorPoint: "cedilla" 219 0 basechar 0
AnchorPoint: "above" 225 274 basechar 0
LayerCount: 2
Fore
SplineSet
405 124 m 0
 407 127 408 127 409 127 c 0
 410 127 411 126 411 125 c 0
 411 124 411 124 410 122 c 0
 375 66 289 -10 218 -10 c 0
 204 -10 192 -5 192 13 c 0
 192 23 195 36 200 49 c 1
 164 22 110 -8 72 -8 c 0
 62 -8 37 -3 37 26 c 0
 37 60 117 168 117 199 c 4
 117 208 112 212 103 212 c 4
 89 212 79 207 67 199 c 4
 64 197 63 196 62 196 c 4
 61 196 60 197 60 198 c 4
 60 199 60 200 63 202 c 4
 79 213 98 224 118 224 c 4
 138 224 151 217 151 195 c 4
 151 166 75 59 75 33 c 0
 75 16 92 12 102 12 c 0
 141 12 192 54 208 71 c 1
 223 104 273 193 282 204 c 0
 296 219 307 223 314 223 c 0
 316 223 318 221 318 219 c 0
 318 210 285 146 243 92 c 1
 232 68 226 48 226 29 c 0
 226 19 232 10 242 10 c 0
 314 10 385 94 405 124 c 0
EndSplineSet
Validated: 1
EndChar

StartChar: v
Encoding: 118 118 84
Width: 213
Flags: W
HStem: -12 21G<51 54.5> 213 13<92.7288 131>
VStem: 111 35<147.522 212.785>
AnchorPoint: "below" 38 -50 basechar 0
AnchorPoint: "above" 199 274 basechar 0
LayerCount: 2
Fore
SplineSet
122 226 m 0
 140 226 146 211 146 198 c 0
 146 166 104 91 87 45 c 1
 144 118 216 216 311 271 c 0
 321 277 337 285 341 285 c 0
 342 285 343 284 343 282 c 0
 343 280 337 278 315 265 c 0
 190 187 84 10 68 -6 c 0
 64 -10 56 -12 53 -12 c 0
 49 -12 46 -1 46 5 c 0
 46 33 67 85 84 124 c 0
 93 146 111 187 111 200 c 0
 111 210 105 213 100 213 c 0
 92 213 79 207 67 199 c 0
 64 197 63 196 62 196 c 0
 61 196 60 197 60 198 c 0
 60 199 60 200 63 202 c 0
 67 205 93 226 122 226 c 0
EndSplineSet
Validated: 1
EndChar

StartChar: w
Encoding: 119 119 85
Width: 379
Flags: W
HStem: -12 13<215.718 261.833> -2 21G<33.5 40.5> 111 23<171.466 212> 158 15<343.243 385.583> 221 15<107.854 144.5>
VStem: 131 35<177.137 220.749> 194 32<2.39822 109.775> 266 54<192.061 236.644> 306 29<49.6768 160.391>
AnchorPoint: "below" 121 -50 basechar 0
AnchorPoint: "above" 226 274 basechar 0
LayerCount: 2
Fore
SplineSet
446 199 m 0xbf
 429 188 388 158 350 158 c 0
 343 158 337 159 330 161 c 1
 333 147 335 131 335 116 c 0
 335 15 261 -12 235 -12 c 0xbe80
 197 -12 194 15 194 45 c 0
 194 68 194 111 181 111 c 0
 167 111 92 46 79 34 c 0
 62 18 45 -2 36 -2 c 0x7e80
 31 -2 28 3 28 10 c 0
 28 36 61 93 80 124 c 0
 94 147 131 199 131 211 c 0
 131 215 126 221 120 221 c 0
 100 221 79 207 67 199 c 0
 64 197 63 196 62 196 c 0
 61 196 60 197 60 198 c 0
 60 199 60 200 63 202 c 0
 64 203 107 236 136 236 c 0
 153 236 166 226 166 206 c 0
 166 179 109 120 66 34 c 1
 86 55 169 134 200 134 c 0
 224 134 226 80 226 53 c 0
 226 28 227 1 249 1 c 0
 286 1 306 49 306 103 c 0xbe80
 306 140 297 165 286 192 c 0
 285 193 266 214 266 220 c 0
 266 229 292 239 295 239 c 0
 300 239 313 216 320 198 c 1
 335 183 352 173 373 173 c 0
 400 173 425 191 442 202 c 0
 445 204 446 205 447 205 c 0
 448 205 449 204 449 203 c 0
 449 202 449 201 446 199 c 0xbf
EndSplineSet
Validated: 1
EndChar

StartChar: x
Encoding: 120 120 86
Width: 224
Flags: W
HStem: -3 21<156.85 191.327> 210 20G<91.5 96>
VStem: 59 40<133.265 217.373>
AnchorPoint: "above" 165 274 basechar 0
LayerCount: 2
Fore
SplineSet
308 124 m 0
 310 127 311 127 312 127 c 0
 313 127 314 126 314 125 c 0
 314 124 314 124 313 122 c 0
 308 115 292 90 251 53 c 0
 207 14 179 -3 163 -3 c 0
 143 -3 135 16 122 39 c 1
 90 1 47 -48 23 -71 c 0
 -25 -119 -77 -167 -124 -203 c 0
 -137 -212 -137 -208 -154 -211 c 0
 -160 -212 -168 -214 -173 -214 c 0
 -174 -214 -175 -213 -175 -212 c 0
 -175 -211 -173 -210 -166 -205 c 0
 -110 -167 -47 -122 13 -62 c 0
 43 -33 79 3 116 49 c 1
 89 100 59 178 59 202 c 0
 59 206 74 214 78 217 c 0
 90 225 89 230 94 230 c 0
 98 230 97 224 99 208 c 0
 105 162 116 117 132 72 c 1
 163 117 190 163 205 187 c 0
 212 198 216 209 220 210 c 0
 227 212 234 213 237 213 c 0
 239 213 242 213 242 211 c 0
 242 209 240 209 238 207 c 0
 216 180 202 145 138 60 c 1
 148 37 160 18 178 18 c 0
 191 18 220 38 248 61 c 0
 270 80 295 105 308 124 c 0
EndSplineSet
Validated: 1
EndChar

StartChar: y
Encoding: 121 121 87
Width: 302
Flags: W
HStem: -505 20<-204.853 -146.44> -8 20<71 120> 213 11<92.1184 130>
VStem: -282 34<-454.471 -349.734> 41 38<12.9527 78.7292> 116 34<153.093 212.832>
AnchorPoint: "above" 225 274 basechar 0
LayerCount: 2
Fore
SplineSet
122 -83 m 1
 -87 -206 -248 -276 -248 -406 c 0
 -248 -456 -206 -485 -163 -485 c 0
 -95 -485 -35 -379 122 -83 c 1
120 224 m 0
 140 224 150 212 150 197 c 0
 150 181 129 144 112 110 c 0
 96 78 79 50 79 29 c 0
 79 16 96 12 106 12 c 0
 134 12 172 36 197 57 c 1
 252 161 l 1
 267 194 264 209 286 211 c 0
 296 212 303 213 308 213 c 0
 310 213 311 212 311 211 c 0
 311 206 283 170 268 142 c 2
 166 -47 l 1
 246 4 l 2
 288 31 347 69 386 124 c 0
 388 127 389 127 390 127 c 0
 391 127 392 126 392 125 c 0
 392 124 392 124 391 122 c 0
 367 90 347 62 250 -1 c 2
 158 -61 l 1
 33 -293 -63 -505 -193 -505 c 0
 -256 -505 -282 -458 -282 -424 c 0
 -282 -268 -92 -198 130 -68 c 1
 189 42 l 1
 143 5 99 -8 76 -8 c 0
 66 -8 41 -3 41 26 c 0
 41 50 64 85 84 124 c 0
 96 147 116 182 116 199 c 0
 116 208 112 213 104 213 c 0
 90 213 79 207 67 199 c 0
 64 197 63 196 62 196 c 0
 61 196 60 197 60 198 c 0
 60 199 60 200 63 202 c 0
 79 213 96 224 120 224 c 0
EndSplineSet
Validated: 1
EndChar

StartChar: z
Encoding: 122 122 88
Width: 239
Flags: W
HStem: -374 12<-201.609 -149.768> 40 34<61.8187 93.1546> 70 6<114 132.302> 170 22<100.372 174.973>
VStem: -258 37<-355.169 -252.995> 58 35<198.132 210.139> 152 37<4.44822 66.4456>
AnchorPoint: "below" -227 -424 basechar 0
AnchorPoint: "above" 181 274 basechar 0
LayerCount: 2
Fore
SplineSet
137 -17 m 1x9e
 102 -28 68 -34 15 -58 c 0
 -100 -109 -221 -217 -221 -317 c 0
 -221 -342 -204 -362 -183 -362 c 0
 -28 -362 94 -115 137 -17 c 1x9e
186 12 m 1
 215 25 245 45 274 71 c 0
 300 94 319 118 323 124 c 0
 325 127 326 127 327 127 c 0
 328 127 329 126 329 125 c 0
 329 124 329 124 328 122 c 0
 310 99 293 79 275 63 c 0
 255 45 221 20 182 1 c 1
 136 -129 -25 -374 -191 -374 c 0
 -222 -374 -258 -358 -258 -320 c 0
 -258 -203 -90 -90 -3 -53 c 0
 42 -34 96 -19 143 -4 c 1
 148 7 152 25 152 40 c 0xde
 152 59 142 70 108 70 c 1xbe
 96 59 76 40 57 40 c 0
 53 40 52 41 52 43 c 0
 52 58 86 71 99 74 c 1xde
 132 104 203 158 216 195 c 1
 177 180 141 170 111 170 c 0
 76 170 58 188 58 197 c 0
 58 200 67 205 80 213 c 0
 92 220 96 224 98 224 c 0
 99 224 99 223 99 223 c 1
 99 220 93 219 93 212 c 0
 93 207 105 192 154 192 c 0
 175 192 205 200 229 210 c 0
 244 216 252 221 256 221 c 0
 258 221 258 220 258 219 c 0
 258 211 243 194 236 186 c 0
 203 149 148 104 114 76 c 1xbe
 145 76 189 73 189 36 c 0
 189 29 188 20 186 12 c 1
EndSplineSet
Validated: 1
EndChar

StartChar: braceleft
Encoding: 123 123 89
Width: 270
Flags: W
HStem: -71 8<156.374 191.999> 208 25<94.8999 142.25> 499 8<409.2 466.816>
VStem: 61 35<-35.1197 46.4786> 150 32<139.892 204.782>
LayerCount: 2
Fore
SplineSet
182 -63 m 0
 190 -63 192 -65 192 -67 c 0
 192 -69 190 -71 182 -71 c 0
 129 -71 61 -61 61 -10 c 0
 61 70 150 100 150 174 c 0
 150 186 137 208 127 208 c 0
 120 208 117 205 96 205 c 0
 91 205 90 211 90 214 c 0
 90 217 105 233 121 233 c 0
 134 233 146 229 153 229 c 0
 164 229 189 247 204 265 c 0
 262 336 247 419 338 479 c 1
 369 498 412 507 462 507 c 0
 465 507 467 506 467 504 c 0
 467 501 463 499 457 499 c 0
 415 499 385 498 353 475 c 0
 281 424 295 312 218 254 c 0
 203 243 171 227 165 224 c 1
 179 215 182 201 182 186 c 0
 182 124 96 87 96 2 c 0
 96 -34 140 -63 182 -63 c 0
EndSplineSet
Validated: 1
EndChar

StartChar: bar
Encoding: 124 124 90
Width: 262
Flags: W
HStem: -52 21G<162.5 164>
VStem: 162 19<-46.3489 486.727>
LayerCount: 2
Fore
SplineSet
162 -50 m 2
 162 481 l 2
 162 484 165 484 172 487 c 0
 179 490 178 492 180 492 c 0
 181 492 181 491 181 490 c 2
 181 -41 l 2
 181 -44 177 -44 170 -47 c 0
 163 -50 165 -52 163 -52 c 0
 162 -52 162 -51 162 -50 c 2
EndSplineSet
Validated: 1
EndChar

StartChar: asciitilde
Encoding: 126 126 92
Width: 320
Flags: W
HStem: 130 14<228.5 282.258> 195 16<143.687 174.747>
VStem: 312 26<173.102 206.889>
LayerCount: 2
Fore
SplineSet
103 150 m 0
 102 148 95 146 89 143 c 0
 85 141 81 136 79 136 c 1
 79 136 78 136 78 137 c 0
 78 138 84 148 87 152 c 0
 106 179 141 211 172 211 c 0
 218 211 231 144 276 144 c 0
 299 144 312 174 312 196 c 0
 312 201 328 210 336 210 c 0
 338 210 338 208 338 207 c 0
 335 170 294 130 251 130 c 0
 206 130 195 195 150 195 c 0
 130 195 112 169 103 150 c 0
EndSplineSet
Validated: 1
EndChar

StartChar: cent
Encoding: 162 162 94
Width: 309
Flags: W
HStem: 42 16<157.376 210.867> 344 15<268.072 303.673>
VStem: 67 50<71.8648 195.838> 342 38<296.291 334.572>
LayerCount: 2
Fore
SplineSet
147 66 m 1
 304 342 l 1
 297 344 291 344 283 344 c 0
 203 344 117 200 117 125 c 0
 117 101 129 75 147 66 c 1
147 42 m 1
 49 -136 l 2
 47 -141 40 -148 37 -148 c 0
 36 -148 36 -147 36 -145 c 0
 36 -141 37 -137 39 -133 c 0
 70 -71 103 -12 134 42 c 1
 101 44 67 72 67 113 c 0
 67 220 191 357 314 359 c 1
 356 432 l 2
 380 474 401 494 421 494 c 0
 422 494 423 494 423 493 c 0
 423 487 394 462 376 434 c 2
 328 358 l 1
 354 353 380 334 380 314 c 0
 380 301 376 303 363 297 c 0
 352 292 346 286 340 286 c 0
 338 286 337 287 337 290 c 0
 337 293 342 295 342 310 c 0
 342 321 332 332 316 338 c 1
 263 251 211 161 157 62 c 1
 165 59 175 58 185 58 c 0
 224 58 266 78 296 103 c 0
 326 128 345 168 348 168 c 0
 349 168 351 168 351 166 c 0
 351 154 321 113 299 95 c 0
 256 59 209 43 147 42 c 1
EndSplineSet
Validated: 1
EndChar

StartChar: sterling
Encoding: 163 163 95
Width: 452
Flags: W
HStem: -152 25<444.335 555.979> -91 20G<624.5 627.5> -12 21<70.5 118.092> 128 27<148.795 186.058> 222 16<214.288 287.503> 229 11<330 411.873> 233 19<377.477 467.133> 418 24<443.504 514.5>
VStem: 47 30<-0.5 49.1073> 512 39<380.15 407.019>
LayerCount: 2
Fore
SplineSet
78 -12 m 0xf5c0
 63 -12 47 -9 47 8 c 0
 47 56 139 155 184 155 c 0
 204 155 217 124 223 107 c 1
 251 146 271 187 289 227 c 1
 257 225 229 224 210 222 c 0
 208 222 207 223 207 225 c 0
 207 227 228 238 231 238 c 0xf9c0
 251 238 272 238 294 239 c 1
 306 265 375 442 497 442 c 0
 532 442 551 413 551 393 c 0
 551 388 542 387 533 381 c 0
 523 375 516 368 513 368 c 0
 512 368 511 368 511 370 c 0
 511 371 512 375 512 378 c 0
 512 394 490 418 461 418 c 0
 402 418 393 363 330 240 c 1xf5c0
 381 242 432 247 472 252 c 0
 473 252 474 252 474 250 c 0
 474 247 460 234 446 233 c 0xf3c0
 410 232 366 231 324 229 c 1
 302 188 273 141 229 89 c 1
 271 -22 400 -127 513 -127 c 0
 560 -127 586 -113 609 -91 c 0
 619 -81 622 -71 627 -71 c 0
 628 -71 629 -72 629 -74 c 0
 629 -78 626 -86 615 -99 c 0
 586 -133 540 -152 485 -152 c 0
 398 -152 260 -103 206 63 c 1
 164 21 115 -12 78 -12 c 0xf5c0
167 128 m 0
 129 128 77 68 77 28 c 0
 77 18 83 9 96 9 c 0
 115 9 166 41 201 79 c 1
 197 95 186 128 167 128 c 0
EndSplineSet
Validated: 1
EndChar

StartChar: currency
Encoding: 164 164 96
Width: 440
Flags: W
HStem: 82 17<267.417 332.201> 371 20<260.254 331.395>
VStem: 142 34<177.999 296.249> 419 34<176.957 294.673>
LayerCount: 2
Fore
SplineSet
176 245 m 0
 176 171 234 99 312 99 c 0
 377 99 419 157 419 228 c 0
 419 302 361 371 284 371 c 0
 283 371 283 371 282 371 c 0
 212 371 176 308 176 245 c 0
142 228 m 0
 142 269 158 302 180 328 c 1
 162 351 139 370 139 374 c 0
 139 376 144 379 150 384 c 0
 155 388 159 392 166 392 c 0
 173 392 181 373 203 350 c 1
 229 371 273 391 309 391 c 0
 346 391 381 375 408 350 c 1
 437 375 442 384 447 384 c 0
 448 384 449 384 451 383 c 0
 453 382 456 382 456 380 c 0
 456 375 440 367 414 343 c 1
 438 317 453 283 453 245 c 0
 453 206 438 171 414 144 c 1
 422 135 455 102 455 98 c 0
 455 91 439 82 432 82 c 0
 423 82 402 109 391 122 c 1
 360 97 320 82 281 82 c 0
 249 82 218 92 192 115 c 1
 170 98 156 80 152 80 c 0
 150 80 148 82 148 85 c 0
 148 89 177 115 185 121 c 1
 156 150 142 189 142 228 c 0
EndSplineSet
Validated: 1
EndChar

StartChar: yen
Encoding: 165 165 97
Width: 388
Flags: W
HStem: -16 21G<125 128> 174 14<124.001 232 289 414.458> 235 15<142.487 259 299 310 321.511 329.445 342 445.311> 424 19<176.995 235.826>
VStem: 279 36<251.728 393.28>
LayerCount: 2
Fore
SplineSet
310 235 m 1
 294 235 l 1
 290 223 286 212 281 200 c 1
 310 235 l 1
217 443 m 0
 266 443 315 413 315 335 c 0
 315 317 309 285 299 250 c 1
 323 250 l 1
 390 326 514 447 582 447 c 0
 586 447 599 446 599 444 c 0
 599 437 501 430 342 250 c 1
 388 250 432 251 444 251 c 0
 446 251 447 249 447 248 c 0
 447 237 432 233 422 233 c 0
 393 233 362 234 328 235 c 1
 314 219 301 203 289 188 c 1
 349 188 398 189 415 189 c 0
 417 189 419 188 419 186 c 0
 419 183 415 182 411 178 c 0
 406 173 402 171 391 171 c 0
 376 171 347 174 278 174 c 1
 267 160 257 147 250 135 c 0
 221 77 191 22 180 5 c 0
 173 -6 164 0 140 -9 c 0
 130 -13 130 -16 126 -16 c 0
 124 -16 121 -15 121 -13 c 0
 121 -10 135 4 145 20 c 0
 184 83 212 133 232 174 c 1
 183 173 148 172 129 172 c 0
 126 172 124 173 124 175 c 0
 124 179 120 190 126 190 c 0
 143 190 133 188 193 188 c 0
 209 188 224 188 239 188 c 1
 247 206 254 222 259 236 c 1
 247 236 235 236 223 236 c 0
 198 236 164 234 139 234 c 0
 136 234 135 235 135 236 c 0
 135 238 138 238 141 241 c 0
 148 248 146 253 158 253 c 0
 172 253 216 251 264 250 c 1
 277 289 279 314 279 333 c 0
 279 407 227 424 198 424 c 0
 185 424 157 421 127 391 c 0
 121 385 118 381 116 381 c 0
 114 381 113 382 113 384 c 0
 113 386 117 391 124 398 c 0
 157 432 198 443 217 443 c 0
EndSplineSet
Validated: 1
EndChar

StartChar: brokenbar
Encoding: 166 166 98
Width: 262
Flags: W
HStem: -52 21G<162.5 164> 249 21G<162.5 164>
VStem: 162 19<-46.3489 192.727 254.651 486.727>
LayerCount: 2
Fore
SplineSet
162 251 m 2
 162 481 l 2
 162 484 165 484 172 487 c 0
 179 490 178 492 180 492 c 0
 181 492 181 491 181 490 c 2
 181 260 l 2
 181 257 177 257 170 254 c 0
 163 251 165 249 163 249 c 0
 162 249 162 250 162 251 c 2
162 187 m 2
 162 190 165 190 172 193 c 0
 179 196 178 198 180 198 c 0
 181 198 181 197 181 196 c 2
 181 -41 l 2
 181 -44 177 -44 170 -47 c 0
 163 -50 165 -52 163 -52 c 0
 162 -52 162 -51 162 -50 c 2
 162 187 l 2
EndSplineSet
Validated: 1
EndChar

StartChar: section
Encoding: 167 167 99
Width: 288
Flags: W
HStem: -12 20<107.733 167.403> 426 16<271.603 323.927>
VStem: 22 34<42.8055 81.5> 138 28<228.769 280.597> 190 23<317.004 375.211> 223 30<66.845 134.684> 279 20<158.449 213.005> 368 27<366.202 391.834>
LayerCount: 2
Fore
SplineSet
253 120 m 1
 271 134 279 162 279 182 c 0
 279 230 210 258 193 312 c 1
 178 303 166 287 166 268 c 0
 166 205 247 197 253 120 c 1
253 112 m 1
 253 75 201 -12 123 -12 c 0
 59 -12 22 30 22 54 c 0
 22 58 24 62 26 64 c 0
 44 78 60 97 61 97 c 0
 63 97 64 96 64 94 c 0
 64 93 56 86 56 77 c 0
 56 55 92 8 151 8 c 0
 206 8 223 66 223 85 c 0
 223 160 138 189 138 243 c 0
 138 272 165 302 192 318 c 1
 191 323 190 328 190 334 c 0
 190 381 239 442 319 442 c 0
 353 442 395 417 395 385 c 0
 395 380 375 357 370 357 c 0
 369 357 368 358 368 360 c 0
 368 388 331 426 293 426 c 0
 246 426 213 393 213 347 c 0
 213 296 299 265 299 194 c 0
 299 166 277 133 253 112 c 1
EndSplineSet
Validated: 1
EndChar

StartChar: dieresis
Encoding: 168 168 100
Width: 176
Flags: W
HStem: 283 53<143.6 182.798 219.6 258.798>
VStem: 140 46<284.719 333.635> 216 46<284.719 333.635>
AnchorPoint: "above" 182 274 mark 0
LayerCount: 2
Fore
SplineSet
140 301 m 0
 140 315 155 336 171 336 c 0
 179 336 186 328 186 318 c 0
 186 304 173 283 156 283 c 0
 146 283 140 290 140 301 c 0
216 301 m 0
 216 315 231 336 247 336 c 0
 255 336 262 328 262 318 c 0
 262 304 249 283 232 283 c 0
 222 283 216 290 216 301 c 0
EndSplineSet
Validated: 1
EndChar

StartChar: copyright
Encoding: 169 169 101
Width: 536
Flags: W
HStem: -12 16<247.551 341.26> 72 11<282.456 331.636> 338 18<340.683 407.41> 430 13<340.79 431.449>
VStem: 103 42<79.4663 252.602> 198 33<116.745 234.074> 443 25<299.021 313.899> 537 41<179.673 356.494>
LayerCount: 2
Fore
SplineSet
145 164 m 0
 145 81 197 4 298 4 c 0
 428 4 537 123 537 261 c 0
 537 364 484 430 383 430 c 0
 251 430 146 295 145 164 c 0
398 443 m 0
 506 443 578 372 578 274 c 0
 578 125 434 -12 278 -12 c 0
 170 -12 103 60 103 158 c 0
 103 301 243 443 398 443 c 0
367 338 m 0
 296 338 231 253 231 166 c 0
 231 121 267 83 307 83 c 0
 368 83 414 142 420 142 c 0
 423 142 422 138 422 123 c 0
 422 112 352 72 291 72 c 0
 235 72 198 110 198 164 c 0
 198 271 309 356 387 356 c 0
 438 356 468 323 468 317 c 0
 468 308 462 307 452 295 c 0
 450 293 448 289 446 289 c 0
 444 289 443 292 443 294 c 0
 438 318 401 338 367 338 c 0
EndSplineSet
Validated: 1
EndChar

StartChar: ordfeminine
Encoding: 170 170 102
Width: 222
Flags: W
HStem: 176 19<215.5 262.816> 183 15<109.5 154.596> 217 20G<314 315.5> 358 9<202.914 242.515>
VStem: 81 37<198.478 281.111> 192 37<195.103 211> 309 8<228.343 236.578>
LayerCount: 2
Fore
SplineSet
196 223 m 1x7e
 208 263 229 299 259 334 c 1
 254 349 241 358 224 358 c 0
 174 358 118 279 118 229 c 0
 118 218 123 198 139 198 c 0
 156 198 179 212 196 223 c 1x7e
299 345 m 0
 281 327 270 312 255 287 c 0
 245 270 229 238 229 214 c 0
 229 203 235 195 248 195 c 0
 270 195 295 209 309 234 c 0
 309 235 313 237 315 237 c 0
 316 237 317 237 317 236 c 0
 317 217 266 176 226 176 c 0xbe
 205 176 192 187 192 204 c 0
 192 206 193 209 193 211 c 1
 177 200 147 183 121 183 c 0
 98 183 81 201 81 225 c 0
 81 291 162 367 224 367 c 0
 243 367 260 360 267 341 c 1
 272 346 280 350 283 351 c 0
 287 353 295 356 303 356 c 0
 306 356 306 354 306 353 c 0
 306 351 302 348 299 345 c 0
EndSplineSet
Validated: 1
EndChar

StartChar: guillemotleft
Encoding: 171 171 103
Width: 313
Flags: W
HStem: -27 32G<141 144 225 227> 204 35G<277 280.5 339.5 344>
VStem: 104 28<60.177 109.819> 182 27<63.6972 112.712>
LayerCount: 2
Fore
SplineSet
343 224 m 0
 345 224 346 224 346 220 c 0
 346 219 344 216 340 213 c 0
 220 122 209 112 209 102 c 0
 209 80 257 -4 257 -8 c 0
 257 -12 228 -16 226 -16 c 0
 224 -16 223 -16 222 -14 c 0
 220 -11 182 75 182 91 c 0
 182 97 184 104 190 109 c 0
 289 182 336 224 343 224 c 0
280 239 m 0
 281 239 283 237 283 235 c 0
 283 233 278 228 276 227 c 0
 132 112 132 115 132 106 c 0
 132 90 173 -8 173 -18 c 0
 173 -22 165 -22 157 -24 c 0
 150 -26 146 -27 142 -27 c 0
 140 -27 139 -27 138 -25 c 0
 129 -7 104 91 104 97 c 0
 104 101 105 104 107 106 c 0
 160 142 274 239 280 239 c 0
EndSplineSet
Validated: 1
EndChar

StartChar: logicalnot
Encoding: 172 172 104
Width: 358
Flags: W
HStem: 152 23<88.8572 289>
VStem: 84 254<155.111 172.942>
LayerCount: 2
Fore
SplineSet
257 173 m 0
 267 173 325 174 332 174 c 0
 337 174 338 172 338 170 c 0
 338 168 312 119 294 87 c 0
 293 85 257 80 257 80 c 2
 254 80 250 80 254 88 c 0
 262 103 277 128 289 155 c 1
 226 155 141 152 86 152 c 0
 85 152 84 152 84 153 c 0
 84 156 94 175 100 175 c 0
 124 175 187 173 257 173 c 0
EndSplineSet
Validated: 1
EndChar

StartChar: uni00AD
Encoding: 173 173 105
Width: 248
Flags: W
HStem: 155 18<92.0012 263.817>
VStem: 84 184<155.021 172.822>
LayerCount: 2
Fore
SplineSet
220 173 m 0
 230 173 259 174 266 174 c 0
 267 174 268 174 268 173 c 0
 268 171 266 169 263 162 c 0
 260 155 260 151 257 151 c 0
 244 151 197 155 149 155 c 0
 118 155 94 153 86 153 c 0
 85 153 84 153 84 154 c 0
 84 156 89 159 92 164 c 0
 96 171 97 176 100 176 c 0
 124 176 163 173 220 173 c 0
EndSplineSet
Validated: 1
EndChar

StartChar: registered
Encoding: 174 174 106
Width: 536
Flags: W
HStem: -12 16<247.551 341.45> 13 16<444.468 513.411> 355 12<392.192 444> 430 13<340.79 431.449>
VStem: 103 42<79.4663 252.602> 440 41<294.602 352.08> 537 41<179.105 356.494>
LayerCount: 2
Fore
SplineSet
292 245 m 1
 361 261 440 283 440 319 c 0
 440 334 433 355 404 355 c 0
 364 355 324 303 292 245 c 1
398 443 m 0
 506 443 578 372 578 274 c 0
 578 180 521 92 440 39 c 1
 453 32 467 29 484 29 c 0
 522 29 544 57 554 57 c 0
 557 57 558 56 558 54 c 0
 558 38 511 13 473 13 c 0
 455 13 436 17 418 25 c 1
 375 2 327 -12 278 -12 c 0
 170 -12 103 60 103 158 c 0
 103 301 243 443 398 443 c 0
431 367 m 0
 457 367 481 351 481 331 c 0
 481 277 360 246 288 231 c 1
 344 143 392 71 427 46 c 1
 493 93 537 173 537 261 c 0
 537 364 484 430 383 430 c 0
 251 430 146 295 145 164 c 0
 145 81 197 4 298 4 c 0
 336 4 372 14 404 32 c 1
 370 52 311 146 273 204 c 1
 245 147 226 97 221 97 c 0
 202 97 190 93 184 93 c 0
 178 93 177 95 177 97 c 2
 291 297 l 1
 319 337 386 367 431 367 c 0
EndSplineSet
Validated: 1
EndChar

StartChar: macron
Encoding: 175 175 107
Width: 165
Flags: W
HStem: 321 15<113.113 286.771>
VStem: 113 174<322.077 334.977>
LayerCount: 2
Fore
SplineSet
117 336 m 0
 134 336 150 335 168 335 c 0
 210 335 254 336 279 336 c 0
 285 336 287 333 287 330 c 0
 287 322 274 321 268 321 c 0
 253 321 241 322 217 322 c 0
 197 322 158 321 120 321 c 0
 115 321 113 326 113 330 c 0
 113 333 115 336 117 336 c 0
EndSplineSet
Validated: 1
EndChar

StartChar: degree
Encoding: 176 176 108
Width: 167
Flags: W
HStem: 310 14<177.65 215.322> 426 16<179.255 215.138>
VStem: 129 24<342.481 403.644> 240 25<346.773 406.957>
LayerCount: 2
Fore
SplineSet
153 383 m 0
 153 346 173 324 204 324 c 0
 228 324 240 353 240 371 c 0
 240 397 222 426 188 426 c 0
 164 426 153 403 153 383 c 0
129 369 m 0
 129 409 175 442 212 442 c 0
 234 442 265 424 265 383 c 0
 265 344 225 310 183 310 c 0
 156 310 129 334 129 369 c 0
EndSplineSet
Validated: 1
EndChar

StartChar: acute
Encoding: 180 180 110
Width: 158
Flags: W
HStem: 273 80
VStem: 118 140
LayerCount: 2
Fore
SplineSet
129 281 m 2
 248 350 l 2
 251 352 254 353 256 353 c 0
 258 353 258 351 258 349 c 0
 258 344 253 333 248 331 c 0
 208 314 125 273 121 273 c 0
 120 273 118 273 118 274 c 0
 118 275 122 277 129 281 c 2
EndSplineSet
Validated: 1
EndChar

StartChar: paragraph
Encoding: 182 182 112
Width: 335
Flags: W
HStem: -16 21G<122 125> 166 24<198.305 222> 401 26<420.862 461.963> 423 20<283.406 363>
VStem: 100 36<234.364 325.622>
LayerCount: 2
Fore
SplineSet
222 166 m 1xe8
 167 170 100 192 100 270 c 0
 100 328 177 443 375 443 c 0xd8
 435 443 456 427 472 427 c 0
 473 427 474 426 474 425 c 0
 474 423 467 419 460 412 c 0
 453 405 450 401 446 401 c 0
 442 401 435 414 393 420 c 1
 348 339 317 275 272 185 c 1
 295 185 332 185 386 202 c 0
 388 203 389 203 390 203 c 0
 391 203 392 203 392 202 c 0
 392 201 391 200 389 199 c 0
 372 191 315 171 262 166 c 1
 231 105 194 31 182 2 c 0
 177 -10 161 0 137 -9 c 0
 127 -13 127 -16 123 -16 c 0
 121 -16 118 -15 118 -13 c 0
 118 -10 131 10 135 17 c 0
 164 64 198 123 222 166 c 1xe8
136 288 m 0
 136 226 187 200 236 190 c 1
 281 271 291 283 363 423 c 1
 169 423 136 342 136 288 c 0
EndSplineSet
Validated: 1
EndChar

StartChar: periodcentered
Encoding: 183 183 113
Width: 219
Flags: W
HStem: 161 53<148.6 187.798>
VStem: 145 46<162.719 211.635>
AnchorPoint: "middleright" 168 187 mark 0
LayerCount: 2
Fore
SplineSet
145 179 m 0
 145 193 160 214 176 214 c 0
 184 214 191 206 191 196 c 0
 191 182 178 161 161 161 c 0
 151 161 145 168 145 179 c 0
EndSplineSet
Validated: 1
EndChar

StartChar: cedilla
Encoding: 184 184 114
Width: 200
Flags: W
HStem: -145 5<49.3488 73.9499> -73 26<59 91.5546>
VStem: 98 19<-119.362 -82.3247>
AnchorPoint: "cedilla" 80 0 mark 0
LayerCount: 2
Fore
SplineSet
86 0 m 0
 86 -1 67 -33 59 -47 c 1
 105 -47 117 -73 117 -91 c 0
 117 -117 93 -145 58 -145 c 0
 29 -145 11 -124 11 -114 c 0
 11 -112 20 -108 24 -108 c 0
 28 -108 34 -140 61 -140 c 0
 83 -140 98 -122 98 -103 c 0
 98 -74 66 -73 46 -73 c 0
 37 -73 39 -77 36 -77 c 0
 34 -77 30 -77 30 -75 c 0
 30 -74 57 -34 76 0 c 0
 77 1 80 1 83 1 c 0
 84 1 86 1 86 0 c 0
EndSplineSet
Validated: 1
EndChar

StartChar: uni00B9
Encoding: 185 185 115
Width: 183
Flags: W
HStem: 231 21G<113 117> 363 6<101.698 134.838> 423 20G<251 255.5>
VStem: 97 161
LayerCount: 2
Fore
SplineSet
108 369 m 0
 141 369 177 383 211 412 c 1
 217 419 226 429 236 435 c 0
 241 438 248 443 254 443 c 0
 257 443 258 441 258 438 c 0
 258 430 249 415 234 401 c 1
 207 362 162 261 154 245 c 0
 148 232 151 237 129 233 c 0
 124 232 119 231 115 231 c 0
 111 231 109 232 109 234 c 0
 109 237 112 241 118 248 c 0
 141 272 167 330 200 390 c 1
 169 374 138 363 118 363 c 0
 112 363 97 366 97 369 c 0
 97 370 98 371 99 371 c 0
 101 371 104 369 108 369 c 0
EndSplineSet
Validated: 1
EndChar

StartChar: ordmasculine
Encoding: 186 186 116
Width: 198
Flags: W
HStem: 185 18<144.698 192.636> 343 19<171.685 222.245>
VStem: 88 29<223.053 294.256> 249 32<250.146 324.255>
LayerCount: 2
Fore
SplineSet
117 263 m 0
 117 228 143 203 178 203 c 0
 227 203 249 254 249 283 c 0
 249 319 222 343 189 343 c 0
 140 343 117 292 117 263 c 0
88 247 m 0
 88 310 159 362 215 362 c 0
 253 362 281 334 281 300 c 0
 281 237 207 185 151 185 c 0
 118 185 88 210 88 247 c 0
EndSplineSet
Validated: 1
EndChar

StartChar: Aring
Encoding: 197 197 124
Width: 490
Flags: W
HStem: -7 11<-24.7738 -4.32886> -4 17<372.5 434.453> 143 16<264.997 351> 154 17<202 255.672> 513 12<438.339 470.137>
VStem: 346 44<15.2053 148> 404 17<454.378 496.033> 483 18<462.861 503.342>
AnchorPoint: "above" 511 600 basechar 0
LayerCount: 2
Fore
SplineSet
202 171 m 1x1f
 206 171 210 171 219 171 c 0x1f
 258 171 298 159 333 159 c 0x2f
 338 159 345 159 353 160 c 1
 366 263 403 399 403 401 c 0
 403 403 403 404 402 404 c 0
 400 404 393 397 388 390 c 2
 202 171 l 1x1f
404 468 m 0
 404 499 432 525 464 525 c 0
 485 525 501 511 501 491 c 0
 501 466 480 441 454 435 c 1
 446 391 411 282 396 166 c 1
 440 177 463 204 468 204 c 0
 470 204 471 204 471 201 c 0
 471 196 431 166 395 157 c 1
 392 131 390 108 390 89 c 0
 390 31 403 13 422 13 c 0
 449 13 496 46 525 71 c 0
 551 94 570 118 574 124 c 0
 576 127 577 127 578 127 c 0
 579 127 580 126 580 125 c 0
 580 124 580 124 579 122 c 0
 542 73 509 45 463 18 c 0
 437 3 412 -4 393 -4 c 0
 352 -4 346 24 346 77 c 0
 346 101 348 127 351 148 c 1
 315 144 303 143 291 143 c 0x6f
 254 143 217 154 196 154 c 0
 192 154 189 154 186 153 c 1
 130 89 80 35 51 11 c 0
 39 2 27 -1 8 -3 c 0
 0 -4 -9 -7 -19 -7 c 0
 -22 -7 -25 -6 -25 -3 c 0
 -25 1 -21 3 -17 4 c 0x9f
 -8 7 6 14 15 22 c 0
 99 95 199 189 373 392 c 1
 417 442 l 1
 409 448 404 457 404 468 c 0
454 513 m 0
 434 513 421 494 421 474 c 0
 421 459 435 445 449 445 c 0
 467 445 483 460 483 482 c 0
 483 495 472 513 454 513 c 0
EndSplineSet
Validated: 1
EndChar

StartChar: AE
Encoding: 198 198 125
Width: 680
Flags: W
HStem: -12 21<-24.7738 11.4822 448.7 542.499> 143 16<264.997 350.777> 154 17<202 255.672> 431 20G<457.5 461> 431 12<604.462 678.031>
VStem: 348 44<43.1809 147.012> 403 61<383.069 403.999> 505 34<319.7 385.771> 541 56<268.545 299.643> 652 20<91.3032 134.307> 736 24<378.103 392.971>
AnchorPoint: "above" 551 500 basechar 0
LayerCount: 2
Fore
SplineSet
403 213 m 1xb7e0
 461 259 541 271 541 277 c 0
 541 278 541 281 535 285 c 0
 513 300 505 323 505 342 c 0
 505 382 554 443 654 443 c 0
 676 443 760 434 760 403 c 0
 760 393 753 390 746 373 c 0
 744 369 743 365 740 365 c 0
 737 365 737 368 736 371 c 0
 730 392 699 431 643 431 c 0
 552 431 539 388 539 368 c 0
 539 344 554 313 577 300 c 1
 592 293 597 291 597 288 c 0
 597 279 595 270 576 268 c 0
 424 250 392 168 392 102 c 0
 392 32 456 9 500 9 c 0
 598 9 652 70 652 125 c 0
 652 131 650 135 650 138 c 0
 650 139 650 141 652 141 c 0
 653 141 658 137 664 133 c 0
 669 129 672 128 672 122 c 0
 672 85 603 -12 478 -12 c 0
 382 -12 348 32 348 104 c 0
 348 118 349 132 351 148 c 1
 315 144 303 143 291 143 c 0xcfe0
 254 143 217 154 196 154 c 0
 192 154 189 154 186 153 c 1
 130 89 80 35 51 11 c 0
 39 2 27 -1 8 -3 c 0
 0 -4 -9 -7 -19 -7 c 0
 -22 -7 -25 -6 -25 -3 c 0
 -25 1 -21 3 -17 4 c 0
 -8 7 6 14 15 22 c 0
 99 95 199 189 373 392 c 0
 409 434 411 431 438 442 c 0
 444 444 455 451 460 451 c 0
 462 451 464 449 464 447 c 2
 464 446 l 2
 464 437 454 420 453 415 c 0
 438 375 417 292 403 213 c 1xb7e0
202 171 m 1xa7e0
 206 171 210 171 219 171 c 0xa7e0
 258 171 298 159 333 159 c 0xc7e0
 338 159 345 159 353 160 c 1
 366 263 403 399 403 401 c 0
 403 403 403 404 402 404 c 0
 400 404 393 397 388 390 c 2
 202 171 l 1xa7e0
EndSplineSet
Validated: 1
EndChar

StartChar: Eth
Encoding: 208 208 135
Width: 685
Flags: W
HStem: -10 13<358.06 431.671> -8 21<100.684 152.244> 148 28<169.957 224> 222 24<234.872 440.162> 434 9<341.036 411> 503 12<351.161 402.682>
VStem: 65 28<18.761 71.6484> 168 28<301.002 347.153> 420 40<442.192 498.405> 585 43<150.355 336.882>
LayerCount: 2
Fore
SplineSet
458 250 m 0x3fc0
 459 250 460 249 460 248 c 0
 460 244 451 240 442 235 c 0
 434 230 428 226 424 226 c 0
 347 224 308 226 224 222 c 0
 223 222 222 222 222 223 c 0
 222 228 252 246 260 246 c 0
 304 248 423 250 458 250 c 0x3fc0
EndSplineSet
Refer: 34 68 N 1 0 0 1 0 0 2
Validated: 5
EndChar

StartChar: multiply
Encoding: 215 215 142
Width: 413
Flags: W
HStem: 7 268
VStem: 112 277
LayerCount: 2
Fore
SplineSet
242 122 m 1
 173 59 133 12 115 12 c 0
 114 12 112 14 112 15 c 0
 112 28 206 110 230 135 c 1
 217 149 111 246 111 257 c 0
 111 262 116 264 121 269 c 0
 125 273 128 275 132 275 c 0
 137 275 251 154 251 154 c 1
 302 204 349 258 361 263 c 0
 366 265 370 266 374 266 c 0
 383 266 389 262 389 258 c 0
 389 257 262 140 262 140 c 1
 277 121 370 33 381 19 c 0
 383 16 384 14 384 12 c 0
 384 9 382 7 376 7 c 0
 372 7 367 8 364 9 c 0
 355 12 242 122 242 122 c 1
EndSplineSet
Validated: 1
EndChar

StartChar: Oslash
Encoding: 216 216 143
Width: 480
Flags: W
HStem: -12 30<179.227 297.217> 426 17<321.075 399.169>
VStem: 77 41<72.2791 218.25> 440 28<362.377 396.572> 504 31<228.509 374.545>
AnchorPoint: "above" 391 500 basechar 0
LayerCount: 2
Fore
SplineSet
603 387 m 0
 603 381 601 385 518 334 c 2
 105 78 l 2
 66 53 40 38 34 38 c 0
 32 38 28 40 28 43 c 0
 28 48 31 45 104 89 c 1
 516 346 l 2
 552 368 583 390 599 390 c 0
 601 390 603 389 603 387 c 0
EndSplineSet
Refer: 45 79 N 1 0 0 1 0 0 2
Validated: 5
EndChar

StartChar: Thorn
Encoding: 222 222 149
Width: 358
Flags: W
HStem: -13 21G<47 49> 329 28<333.961 404.351> 425 18<178.433 226.344>
VStem: 237 41<328.367 421.782> 422 42<236.298 317.453>
LayerCount: 2
Fore
SplineSet
140 97 m 1
 186 109 422 166 422 274 c 0
 422 301 404 329 367 329 c 0
 278 329 185 180 140 97 c 1
211 238 m 1
 263 304 324 357 395 357 c 0
 434 357 464 336 464 294 c 0
 464 162 174 93 133 81 c 1
 120 56 108 29 99 3 c 0
 96 -5 97 -5 71 -7 c 0
 51 -9 50 -13 48 -13 c 0
 46 -13 43 -12 43 -10 c 0
 43 -7 48 -2 58 17 c 0
 237 356 237 371 237 389 c 0
 237 415 219 425 200 425 c 0
 187 425 157 421 127 391 c 0
 121 385 118 381 116 381 c 0
 114 381 113 382 113 384 c 0
 113 386 117 391 124 398 c 0
 157 432 198 443 217 443 c 0
 259 443 278 420 278 393 c 0
 278 354 239 285 211 238 c 1
EndSplineSet
Validated: 1
EndChar

StartChar: germandbls
Encoding: 223 223 150
Width: 333
Flags: W
HStem: -397 16<-273 -221.877> -14 8<145.26 180.035> 221 12<103.016 134> 562 20<408.882 451.5>
VStem: -304 34<-376.149 -350.629> 90 31<3.83371 41.9762> 227 36<245.025 293.544> 306 42<105.703 205.504> 430 33<497.192 561.796>
LayerCount: 2
Fore
SplineSet
67 199 m 0
 64 197 63 196 62 196 c 0
 61 196 60 197 60 198 c 0
 60 199 60 200 63 202 c 0
 69 206 103 233 124 233 c 0
 129 233 135 232 141 230 c 1
 165 274 212 364 270 445 c 0
 338 540 409 582 445 582 c 0
 458 582 463 563 463 554 c 0
 463 520 445 492 427 466 c 1
 368 389 263 326 263 269 c 0
 263 227 348 249 348 167 c 0
 348 89 231 -14 158 -14 c 0
 137 -14 91 -4 90 15 c 0
 90 24 115 57 121 57 c 1
 121 57 122 57 122 55 c 0
 122 52 121 49 121 42 c 0
 121 18 134 -6 163 -6 c 0
 212 -6 306 84 306 160 c 0
 306 234 227 204 227 247 c 0
 227 312 309 340 411 475 c 0
 426 495 430 512 430 536 c 0
 430 548 423 562 415 562 c 0
 391 562 364 534 306 453 c 0
 209 316 121 118 4 -94 c 0
 -63 -216 -147 -397 -260 -397 c 0
 -286 -397 -304 -377 -304 -361 c 0
 -304 -358 -294 -354 -288 -351 c 0
 -273 -343 -272 -340 -270 -340 c 0
 -269 -340 -268 -341 -268 -342 c 0
 -268 -343 -270 -344 -270 -346 c 0
 -270 -368 -253 -381 -236 -381 c 0
 -168 -381 -85 -208 -27 -96 c 2
 134 217 l 1
 125 220 119 221 113 221 c 0
 95 221 68 199 67 199 c 0
EndSplineSet
Validated: 1
EndChar

StartChar: ae
Encoding: 230 230 157
Width: 369
Flags: W
HStem: -4 10<231 293.383> 0 17<56.5 104.848> 219 12<179.529 231.958 321.928 357.5>
VStem: 31 38<18.4371 115.531> 184 37<13.5645 77.8921> 343 32<187.639 225.427>
AnchorPoint: "above" 282 274 basechar 0
LayerCount: 2
Fore
SplineSet
266 187 m 1x7c
 299 217 333 233 349 233 c 0
 366 233 375 226 375 213 c 0
 375 188 321 159 230 95 c 1
 224 78 221 62 221 50 c 0
 221 24 236 6 270 6 c 0
 314 6 368 40 404 71 c 0
 430 94 449 118 453 124 c 0
 455 127 456 127 457 127 c 0
 458 127 459 126 459 125 c 0
 459 124 459 124 458 122 c 0
 443 102 425 84 406 67 c 0
 330 0 288 -4 239 -4 c 0xbc
 223 -4 184 6 184 39 c 0
 184 47 184 53 186 62 c 1
 163 42 109 0 72 0 c 0
 41 0 31 23 31 51 c 0
 31 126 125 231 206 231 c 0
 238 231 256 214 266 187 c 1x7c
259 180 m 1
 250 201 235 219 208 219 c 0
 142 219 69 118 69 52 c 0
 69 35 74 17 97 17 c 0x7c
 110 17 133 25 188 71 c 1
 203 117 230 153 259 180 c 1
234 104 m 1
 307 157 343 187 343 208 c 0
 343 212 341 219 332 219 c 0
 297 219 255 158 234 104 c 1
EndSplineSet
Validated: 1
EndChar

StartChar: eth
Encoding: 240 240 167
Width: 259
Flags: W
HStem: -8 12<68.3524 113.105> 202 17<167.06 209.235>
VStem: 29 39<6.88599 104.487> 235 22<206 294.799>
LayerCount: 2
Fore
SplineSet
235 206 m 1
 235 304 196 394 160 452 c 1
 93 416 99 416 92 416 c 0
 86 416 82 423 82 426 c 0
 82 430 104 436 153 461 c 1
 137 485 121 506 103 524 c 0
 100 527 97 528 97 530 c 0
 97 532 113 543 121 543 c 0
 125 543 131 542 134 539 c 0
 152 521 169 499 183 475 c 1
 228 494 235 498 240 498 c 0
 244 498 248 497 248 495 c 0
 248 493 245 492 242 491 c 0
 225 485 206 475 188 466 c 1
 233 387 257 289 257 215 c 0
 257 61 139 -8 82 -8 c 0
 55 -8 29 7 29 42 c 0
 29 126 143 219 201 219 c 0
 219 219 228 213 235 206 c 1
231 158 m 1
 226 185 206 202 184 202 c 0
 134 202 68 111 68 53 c 0
 68 23 77 4 100 4 c 0
 138 4 214 65 231 158 c 1
EndSplineSet
Validated: 1
EndChar

StartChar: divide
Encoding: 247 247 174
Width: 326
Flags: W
HStem: 72 43<145.102 188.09> 150 24<90.7949 325.471> 212 43<221.102 264.09>
VStem: 144 45<72.7406 114.028> 220 45<212.741 254.028>
LayerCount: 2
Fore
SplineSet
172 115 m 0
 182 115 189 109 189 100 c 0
 189 85 176 72 161 72 c 0
 151 72 144 78 144 87 c 0
 144 101 159 115 172 115 c 0
248 255 m 0
 258 255 265 249 265 240 c 0
 265 225 252 212 237 212 c 0
 227 212 220 218 220 227 c 0
 220 241 235 255 248 255 c 0
269 174 m 0
 279 174 322 175 329 175 c 0
 330 175 331 175 331 174 c 0
 331 172 329 170 326 163 c 0
 323 156 323 150 320 150 c 0
 307 150 204 154 156 154 c 0
 127 154 94 152 86 152 c 0
 85 152 84 152 84 153 c 0
 84 155 89 159 92 164 c 0
 96 171 97 177 100 177 c 0
 124 177 212 174 269 174 c 0
EndSplineSet
Validated: 1
EndChar

StartChar: oslash
Encoding: 248 248 175
Width: 268
Flags: W
HStem: -59 21G<7.5 10.5> -9 13<81.7792 121.32> 210 11<168.982 195.639> 236 22<212 238.969>
VStem: 31 37<7.43739 112.393> 195 27<179.699 201> 251 10<153.218 160 169.25 210.859>
AnchorPoint: "above" 239 274 basechar 0
LayerCount: 2
Fore
SplineSet
337 291 m 2
 22 -53 l 2
 19 -56 13 -59 8 -59 c 0
 7 -59 6 -59 6 -58 c 0
 6 -57 7 -55 9 -53 c 2
 325 293 l 2
 330 298 332 300 335 300 c 0
 338 300 340 298 340 296 c 0
 340 295 339 293 337 291 c 2
EndSplineSet
Refer: 77 111 N 1 0 0 1 0 0 2
Validated: 5
EndChar

StartChar: thorn
Encoding: 254 254 181
Width: 262
Flags: W
HStem: -533 21G<-313.5 -310> -25 20<60.0997 157.114> 209 25<217.649 263> 376 14<166.01 204.5>
VStem: 189 34<327.594 375.882> 245 39<154.392 221.051>
LayerCount: 2
Fore
SplineSet
189 363 m 0
 189 370 185 376 177 376 c 0
 163 376 149 369 137 361 c 0
 134 359 133 358 132 358 c 0
 131 358 130 359 130 360 c 0
 130 361 130 362 133 364 c 0
 134 365 167 390 196 390 c 0
 213 390 223 379 223 366 c 0
 223 355 220 353 168 259 c 2
 94 126 l 1
 167 198 225 234 258 234 c 0
 268 234 284 229 284 200 c 0
 284 152 186 46 49 10 c 1
 64 2 88 -5 108 -5 c 0
 202 -5 257 38 292 67 c 0
 319 90 342 118 346 124 c 0
 348 127 349 127 350 127 c 0
 351 127 352 126 352 125 c 0
 352 124 352 124 351 122 c 0
 334 99 316 79 297 62 c 0
 230 2 157 -25 78 -25 c 0
 57 -25 35 -19 19 -11 c 1
 -88 -208 -120 -297 -219 -474 c 0
 -248 -526 -308 -533 -312 -533 c 0
 -315 -533 -318 -532 -318 -530 c 0
 -318 -524 -310 -525 -292 -511 c 0
 -275 -498 -251 -476 6 -2 c 1
 3 1 3 1 3 2 c 0
 3 6 12 12 14 12 c 1
 64 103 103 185 145 268 c 0
 172 322 189 354 189 363 c 0
74 88 m 1
 37 19 l 1
 149 41 245 144 245 180 c 0
 245 205 232 209 223 209 c 0
 197 209 116 139 74 88 c 1
EndSplineSet
Validated: 1
EndChar

StartChar: dcroat
Encoding: 273 273 200
Width: 341
Flags: W
HStem: 0 17<57.5 112.804 227.787 284.828> 219 12<178.6 231.02> 362 20<268.674 425.361> 651 14<549.815 576.5>
VStem: 31 39<18.3217 115.531> 189 33<16.6653 72.3939> 567 22<592.503 650.826>
LayerCount: 2
Fore
SplineSet
438 386 m 0
 439 386 440 385 440 384 c 0
 440 383 423 366 408 366 c 0
 332 364 348 366 264 362 c 0
 263 362 262 362 262 363 c 0
 262 368 279 382 287 382 c 0
 331 384 403 386 438 386 c 0
EndSplineSet
Refer: 66 100 N 1 0 0 1 0 0 2
Validated: 5
EndChar

StartChar: eogonek
Encoding: 281 281 208
Width: 217
Flags: W
HStem: -113 8<34 74.8062> -8 13<86.6153 140.896> 219 14<172.57 205.5>
VStem: 0 31<-100.829 -52.1545> 30 39<10.9243 78.8914> 191 32<187.639 225.427>
LayerCount: 2
Fore
SplineSet
78 95 m 1xec
 72 78 69 62 69 50 c 0xec
 69 18 84 5 118 5 c 0
 162 5 216 40 252 71 c 0
 278 94 297 118 301 124 c 0
 303 127 304 127 305 127 c 0
 306 127 307 126 307 125 c 0
 307 124 307 124 306 122 c 0
 269 74 219 34 172 10 c 0
 151 0 126 -8 96 -8 c 1
 62 -27 31 -46 31 -76 c 0
 31 -92 45 -105 63 -105 c 0
 73 -105 81 -101 83 -101 c 0
 85 -101 87 -101 87 -102 c 0
 87 -104 57 -113 43 -113 c 0
 25 -113 0 -109 0 -85 c 0xf4
 0 -54 30 -37 87 -8 c 1
 56 -6 30 6 30 39 c 0
 30 47 32 55 34 64 c 1
 27 59 15 48 14 48 c 0
 13 48 13 49 13 50 c 0
 13 51 13 52 14 53 c 0
 18 57 28 65 36 71 c 1
 69 173 166 233 197 233 c 0
 214 233 223 226 223 213 c 0
 223 188 169 159 78 95 c 1xec
82 104 m 1
 155 157 191 187 191 208 c 0
 191 212 189 219 180 219 c 0
 145 219 103 158 82 104 c 1
EndSplineSet
Validated: 1
EndChar

StartChar: Hbar
Encoding: 294 294 221
Width: 572
Flags: W
HStem: -12 24<369.5 454.727> 184 18<221 348.491> 219 20<501 504> 303 17<160.415 437.255> 318 14<496.843 571.093> 429 14<182.181 233.035>
VStem: 248 39<334.577 424.561> 339 50<14.7892 106.683>
LayerCount: 2
Fore
SplineSet
554 318 m 0xef
 464 306 300 303 255 303 c 0
 217 303 166 305 157 305 c 0
 155 305 154 305 154 306 c 0
 154 310 179 321 182 321 c 0
 229 321 232 320 264 320 c 0xf7
 525 320 549 332 576 332 c 0
 578 332 579 332 579 331 c 0
 579 328 561 319 554 318 c 0xef
EndSplineSet
Refer: 38 72 N 1 0 0 1 0 0 2
Validated: 5
EndChar

StartChar: hbar
Encoding: 295 295 222
Width: 335
Flags: W
HStem: -4 17<240.77 282.911> 234 20<249.23 297.5> 514 20<226.674 383.361> 690 24<451.443 498>
VStem: 26 41<-1.5083 48.0069> 214 41<13.2244 98.4049> 288 35<165.555 233.303> 468 40<606.502 702.949>
LayerCount: 2
Fore
SplineSet
396 538 m 0
 397 538 398 537 398 536 c 0
 398 535 381 518 366 518 c 0
 290 516 306 518 222 514 c 0
 221 514 220 514 220 515 c 0
 220 520 237 534 245 534 c 0
 289 536 361 538 396 538 c 0
EndSplineSet
Refer: 70 104 N 1 0 0 1 0 0 2
Validated: 5
EndChar

StartChar: dotlessi
Encoding: 305 305 232
Width: 187
Flags: W
HStem: -4 17<75.9957 130.657> 213 11<92.5348 128>
VStem: 44 40<14.723 91.0197> 118 34<156.52 212.735>
AnchorPoint: "above" 185 306 basechar 0
LayerCount: 2
Fore
SplineSet
62 196 m 4
 61 196 60 197 60 198 c 4
 60 199 60 200 63 202 c 4
 79 213 98 224 118 224 c 4
 138 224 152 215 152 193 c 0
 152 165 84 82 84 39 c 0
 84 19 98 13 119 13 c 0
 144 13 188 42 217 66 c 0
 240 86 264 113 271 124 c 0
 273 127 274 127 275 127 c 0
 276 127 277 126 277 125 c 0
 277 124 277 124 276 122 c 0
 258 98 240 79 222 63 c 0
 206 48 143 -4 90 -4 c 0
 62 -4 44 10 44 33 c 0
 44 87 118 164 118 195 c 0
 118 204 112 213 103 213 c 4
 89 213 79 207 67 199 c 4
 64 197 63 196 62 196 c 4
EndSplineSet
Validated: 1
EndChar

StartChar: IJ
Encoding: 306 306 233
Width: 834
Flags: W
HStem: -424 14<227.833 273.181> -6 9<101.5 159.341> 388 10<221.318 282 544.318 605> 475 12<245.773 285.306 568.773 608.306>
VStem: 38 35<33.039 88.1625> 159 39<-393.439 -235.512> 170 28<406.474 449.57> 301 23<426.24 466.241> 493 28<406.474 449.57> 624 23<426.24 466.241>
LayerCount: 2
Fore
SplineSet
502 -29 m 1xfdc0
 461 -39 421 -50 387 -67 c 0
 257 -134 199 -200 198 -321 c 0
 198 -376 217 -410 251 -410 c 0
 292 -410 321 -379 349 -338 c 0
 423 -228 462 -127 502 -29 c 1xfdc0
73 81 m 0
 73 45 106 3 141 3 c 0
 179 3 206 42 235 104 c 0
 295 230 352 324 410 405 c 1
 387 398 315 389 288 388 c 1
 270 365 218 315 185 287 c 0
 183 285 175 279 173 279 c 0
 172 279 171 280 171 281 c 0
 171 283 174 287 179 291 c 0
 199 307 254 363 274 388 c 1
 229 388 170 392 170 422 c 0xfbc0
 170 463 250 487 282 487 c 0
 304 487 324 480 324 459 c 0
 324 442 307 416 296 399 c 1
 333 401 373 406 406 418 c 0
 419 423 456 428 469 428 c 0
 472 428 473 427 473 425 c 0
 473 422 463 419 459 413 c 0
 403 333 367 273 325 193 c 1
 446 231 536 312 597 388 c 1
 552 388 493 392 493 422 c 0
 493 463 573 487 605 487 c 0
 627 487 647 480 647 459 c 0
 647 442 630 416 619 399 c 1
 656 401 696 406 729 418 c 0
 742 423 779 428 792 428 c 0
 795 428 796 427 796 425 c 0
 796 422 787 419 782 413 c 0
 704 319 670 239 610 112 c 2
 555 -5 l 1
 588 3 619 11 648 26 c 0
 671 38 695 56 713 71 c 0
 739 94 758 118 762 124 c 0
 764 127 765 127 766 127 c 0
 767 127 768 126 768 125 c 0
 768 124 768 124 767 122 c 0
 730 73 698 44 651 19 c 0
 620 2 584 -9 548 -18 c 1
 493 -132 432 -250 372 -334 c 0
 344 -373 297 -424 235 -424 c 0
 188 -424 159 -390 159 -318 c 0
 159 -230 226 -122 385 -52 c 0
 428 -33 469 -23 508 -15 c 1
 524 25 541 64 561 104 c 1
 596 180 642 267 687 335 c 2
 733 405 l 1
 710 398 638 389 611 388 c 1
 576 344 472 232 319 182 c 1
 284 112 l 2
 256 55 208 -6 121 -6 c 0
 82 -6 38 21 38 68 c 0
 38 72 44 77 50 83 c 0
 66 99 78 117 80 117 c 0
 81 117 83 117 83 115 c 0
 83 113 73 108 73 81 c 0
282 398 m 1
 291 411 301 428 301 441 c 0
 301 463 284 475 262 475 c 0
 236 475 198 463 198 427 c 0
 198 398 242 398 282 398 c 1
605 398 m 1
 614 411 624 428 624 441 c 0
 624 463 607 475 585 475 c 0
 559 475 521 463 521 427 c 0
 521 398 565 398 605 398 c 1
EndSplineSet
Validated: 1
EndChar

StartChar: ij
Encoding: 307 307 234
Width: 361
Flags: W
HStem: -500 14<-206.858 -144.889> -4 17<75.9957 130.657> 206 20G<334 345> 213 11<92.5348 128> 315 53<182.6 221.798 369.6 408.798>
VStem: -326 40<-430.044 -288.776> 44 40<14.723 91.0197> 118 34<156.52 212.735> 179 46<316.719 365.635> 366 46<316.719 365.635>
LayerCount: 2
Fore
SplineSet
197 -25 m 1xcfc0
 -235 -133 -286 -292 -286 -359 c 0
 -286 -425 -242 -486 -168 -486 c 0
 -82 -486 1 -374 41 -303 c 2
 197 -25 l 1xcfc0
304 197 m 0
 310 209 326 226 342 226 c 0xefc0
 348 226 357 221 357 213 c 0xdfc0
 357 207 353 201 351 197 c 0
 343 185 337 175 330 166 c 1
 300 109 270 52 237 -5 c 1
 258 0 276 6 293 12 c 0
 340 30 367 46 396 71 c 0
 422 94 441 118 445 124 c 0
 447 127 448 127 449 127 c 0
 450 127 451 126 451 125 c 0
 451 124 451 124 450 122 c 0
 413 73 372 39 314 13 c 0
 288 1 260 -8 231 -16 c 1
 67 -299 l 2
 15 -388 -76 -500 -194 -500 c 0
 -266 -500 -326 -447 -326 -372 c 0
 -326 -132 97 -39 203 -14 c 1
 238 50 269 121 304 197 c 0
EndSplineSet
Refer: 601 775 N 1 0 0 1 190 32 2
Refer: 71 105 N 1 0 0 1 0 0 2
Validated: 5
EndChar

StartChar: kgreenlandic
Encoding: 312 312 239
Width: 287
Flags: W
HStem: -9 17<156.219 221.257> -2 21G<25 30> 203 22<246.738 302.235> 214 10<91.3557 130>
VStem: 122 30<165.824 213.464>
LayerCount: 2
Fore
SplineSet
152 196 m 0x58
 152 184 139 160 127 137 c 1
 183 196 261 225 294 225 c 0
 300 225 310 224 310 222 c 0
 310 218 289 203 278 203 c 0
 277 203 273 205 264 205 c 0
 213 205 125 145 125 82 c 0
 125 60 130 8 192 8 c 0
 239 8 283 37 322 71 c 0
 348 94 367 118 371 124 c 0
 373 127 374 127 375 127 c 0
 376 127 377 126 377 125 c 0
 377 124 377 124 376 122 c 0
 361 102 346 85 328 69 c 0
 321 62 255 -9 172 -9 c 0xa8
 116 -9 91 20 91 64 c 0
 91 67 92 72 92 72 c 1
 79 47 65 23 60 10 c 0
 57 4 50 2 45 2 c 0
 41 2 33 -2 27 -2 c 0
 23 -2 20 0 20 6 c 0
 20 9 22 11 25 16 c 0
 35 38 57 76 84 124 c 0
 107 165 122 190 122 198 c 0
 122 207 112 214 103 214 c 0
 88 214 78 205 66 197 c 0
 64 196 63 196 62 196 c 0
 60 196 60 197 60 198 c 0
 60 200 72 208 78 212 c 0
 91 221 106 224 120 224 c 0
 140 224 152 218 152 196 c 0x58
EndSplineSet
Validated: 1
EndChar

StartChar: Lslash
Encoding: 321 321 248
Width: 384
Flags: W
HStem: -152 25<445.443 555.979> -91 20<624.5 627.5> -12 21<70.5 119.474> 128 27<148.795 186.167> 200 24<187.155 221.196> 424 19<287.078 334.086>
VStem: 47 30<-0.5 49.1073> 340 39<333.368 423.386>
LayerCount: 2
Fore
SplineSet
327 275 m 0
 364 297 418 332 430 332 c 0
 432 332 433 330 433 329 c 0
 433 324 428 321 332 265 c 0
 245 214 187 200 180 200 c 0
 178 200 177 201 177 202 c 0
 177 206 196 220 211 224 c 0
 257 236 291 254 327 275 c 0
EndSplineSet
Refer: 42 76 N 1 0 0 1 0 0 2
Validated: 5
EndChar

StartChar: lslash
Encoding: 322 322 249
Width: 218
Flags: W
HStem: -11 14<78.5 137.187> 690 24<448.443 495>
VStem: 47 38<4.77221 88.8181> 465 40<606.502 702.949>
LayerCount: 2
Fore
SplineSet
271 479 m 0
 358 529 389 566 408 566 c 0
 410 566 410 565 410 565 c 1
 410 561 337 506 276 471 c 0
 223 440 169 419 163 419 c 0
 161 419 160 419 160 420 c 0
 160 424 174 438 182 441 c 0
 216 454 245 464 271 479 c 0
EndSplineSet
Refer: 74 108 N 1 0 0 1 0 0 2
Validated: 5
EndChar

StartChar: Eng
Encoding: 330 330 257
Width: 455
Flags: W
HStem: -288 20<47 117.892> -65 20G<166.5 169> -16 21G<45 49> 404 32<283.306 316.996 552.621 592.793>
VStem: 17 34<-254.685 -167.292> 85 35<124 145.717> 297 41<48 403.998>
LayerCount: 2
Fore
SplineSet
339 -15 m 0
 249 -201 157 -288 67 -288 c 0
 27 -288 17 -254 17 -235 c 0
 17 -194 35 -135 116 -77 c 0
 129 -67 165 -45 168 -45 c 0
 170 -45 170 -46 170 -47 c 0
 170 -51 146 -62 122 -83 c 0
 80 -120 51 -171 51 -212 c 0
 51 -229 61 -268 100 -268 c 0
 141 -268 191 -251 302 -28 c 1
 300 -12 297 9 297 36 c 2
 299 380 l 2
 299 402 299 404 296 404 c 0
 290 404 285 394 281 386 c 2
 87 18 l 2
 79 2 69 2 59 -5 c 0
 51 -10 52 -16 46 -16 c 0
 44 -16 43 -15 43 -14 c 0
 43 -11 55 13 65 38 c 0
 74 62 85 90 85 115 c 0
 85 131 82 147 77 147 c 0
 72 147 68 142 64 142 c 0
 63 142 62 144 62 145 c 0
 62 146 70 150 78 155 c 0
 85 159 90 164 94 164 c 0
 101 164 112 157 116 146 c 0
 118 140 120 132 120 124 c 1
 274 407 l 1
 281 422 298 436 324 436 c 0
 335 436 341 429 341 406 c 2
 338 48 l 1
 388 156 506 375 532 401 c 0
 542 410 565 437 591 437 c 0
 604 437 615 430 615 426 c 0
 615 421 612 419 604 412 c 0
 592 401 579 387 576 387 c 0
 574 387 573 389 573 390 c 0
 573 394 568 399 561 399 c 0
 551 399 543 394 535 382 c 0
 466 283 368 45 339 -15 c 0
EndSplineSet
Validated: 1
EndChar

StartChar: eng
Encoding: 331 331 258
Width: 314
Flags: W
HStem: -180 20<-13.1944 36.3296> -92 20G<-34 -30.5> -14 21G<35.5 43> 207 21<224.945 264.916> 214 14<96.0096 134.5>
VStem: -61 25<-141.392 -88.0155> 119 34<160.139 213.882> 251 36<127.159 206.961>
LayerCount: 2
Fore
SplineSet
84 124 m 0xf7
 92 139 119 188 119 201 c 0
 119 208 115 214 107 214 c 0
 93 214 79 207 67 199 c 0
 64 197 63 196 62 196 c 0
 61 196 60 197 60 198 c 0
 60 199 60 200 63 202 c 0
 64 203 97 228 126 228 c 0xef
 143 228 153 217 153 204 c 0
 153 194 143 175 133 157 c 1
 188 204 232 226 258 226 c 0
 281 226 287 206 287 190 c 0
 287 139 198 -16 168 -59 c 0
 130 -112 61 -180 -11 -180 c 0
 -52 -180 -61 -148 -61 -134 c 0
 -61 -121 -54 -109 -44 -91 c 0
 -40 -85 -36 -72 -32 -72 c 0
 -29 -72 -29 -74 -29 -76 c 0
 -29 -81 -36 -102 -36 -114 c 0
 -36 -132 -17 -160 22 -160 c 0
 48 -160 94 -145 151 -50 c 0
 158 -39 251 124 251 182 c 0
 251 200 245 207 232 207 c 0
 205 207 127 143 124 137 c 0
 122 133 101 95 101 94 c 2
 66 29 l 1
 51 4 46 -14 40 -14 c 0
 31 -14 19 -1 19 7 c 0
 19 17 41 44 84 124 c 0xf7
EndSplineSet
Validated: 1
EndChar

StartChar: oe
Encoding: 339 339 266
Width: 397
Flags: W
HStem: -9 13<81.7792 123.238 268.377 317.164> 210 11<168.982 195.514> 219 14<350.715 385.5> 236 22<212 239.274>
VStem: 31 37<7.43739 112.393> 195 27<167.195 201> 210 39<10.7496 86.9803> 251 10<152.643 211.257> 371 32<183.114 218.823>
AnchorPoint: "above" 305 274 basechar 0
LayerCount: 2
Fore
SplineSet
275 132 m 1xb980
 299 133 327 147 342 160 c 0
 363 178 371 196 371 208 c 0
 371 212 369 219 360 219 c 0
 330 219 297 176 275 132 c 1xb980
253 141 m 1
 291 192 345 233 377 233 c 0
 394 233 403 226 403 213 c 0
 403 192 367 163 353 153 c 0
 335 140 305 127 271 125 c 1
 257 96 249 67 249 50 c 0
 249 18 264 5 298 5 c 0
 342 5 396 40 432 71 c 0
 458 94 477 118 481 124 c 0
 483 127 484 127 485 127 c 0
 486 127 487 126 487 125 c 0
 487 124 487 124 486 122 c 0
 449 74 399 34 352 10 c 0
 331 0 305 -8 278 -8 c 0
 243 -8 210 2 210 39 c 0xbb80
 210 48 211 57 214 67 c 1
 181 23 134 -9 85 -9 c 0
 51 -9 31 7 31 42 c 0
 31 126 116 221 195 221 c 1xdd80
 196 233 203 258 221 258 c 0
 226 258 237 257 245 247 c 0
 255 235 261 217 261 192 c 0
 261 175 258 158 253 141 c 1
240 131 m 1
 215 145 198 180 195 210 c 1xdd80
 133 210 68 112 68 41 c 0
 68 26 77 4 100 4 c 0
 154 4 215 67 240 131 c 1
244 144 m 1
 248 159 251 173 251 186 c 0
 251 214 233 236 229 236 c 0
 223 236 222 222 222 216 c 1
 226 215 231 210 231 206 c 0
 231 203 226 200 225 200 c 0
 224 200 223 201 222 201 c 1
 222 185 229 159 244 144 c 1
EndSplineSet
Validated: 1
EndChar

StartChar: Tbar
Encoding: 358 358 285
Width: 364
Flags: W
HStem: -14 21<75 105.5> 320 24<202.872 408.162> 414 21<176.264 318 370 493.525> 516 21<195.902 214.358> 544 8<246.999 300.128>
VStem: 333 43<436.69 525.361>
LayerCount: 2
Fore
SplineSet
426 348 m 0
 427 348 428 347 428 346 c 0
 428 342 419 338 410 333 c 0
 402 328 396 324 392 324 c 0
 315 322 276 324 192 320 c 0
 191 320 190 320 190 321 c 0
 190 326 220 344 228 344 c 0
 272 346 391 348 426 348 c 0
EndSplineSet
Refer: 50 84 N 1 0 0 1 0 0 2
Validated: 5
EndChar

StartChar: longs
Encoding: 383 383 309
Width: 160
Flags: W
HStem: -397 16<-273 -221.877> 221 12<103.495 134> 690 24<450.644 495>
VStem: -304 34<-376.149 -350.629> 476 35<630.344 689.285>
LayerCount: 2
Fore
SplineSet
511 688 m 0
 511 654 491 623 473 597 c 0
 467 589 448 580 442 580 c 0
 441 580 440 580 440 581 c 0
 440 585 476 621 476 667 c 0
 476 682 463 690 455 690 c 0
 413 690 346 564 279 440 c 0
 187 269 105 88 4 -94 c 0
 -63 -216 -147 -397 -260 -397 c 0
 -286 -397 -304 -377 -304 -361 c 0
 -304 -358 -294 -354 -288 -351 c 0
 -273 -343 -272 -340 -270 -340 c 0
 -269 -340 -268 -341 -268 -342 c 0
 -268 -343 -270 -344 -270 -346 c 0
 -270 -368 -253 -381 -236 -381 c 0
 -168 -381 -85 -208 -27 -96 c 2
 134 217 l 1
 125 220 119 221 113 221 c 0
 99 221 77 204 66 197 c 0
 64 196 63 196 62 196 c 0
 60 196 60 197 60 198 c 0
 60 200 72 208 78 212 c 0
 90 220 110 233 124 233 c 0
 129 233 135 232 141 230 c 1
 258 448 l 1
 328 576 358 638 429 688 c 0
 453 706 473 714 488 714 c 0
 502 714 511 699 511 688 c 0
EndSplineSet
Validated: 1
EndChar

StartChar: uni0180
Encoding: 384 384 310
Width: 331
Flags: W
HStem: -10 20<131.669 177.282> 229 20<241.372 304.5> 514 20<226.674 383.361> 690 24<451.443 498>
VStem: 68 37<26.8421 130.05> 305 34<143.654 220.679> 468 40<606.502 702.949>
LayerCount: 2
Fore
SplineSet
396 538 m 0
 397 538 398 537 398 536 c 0
 398 535 381 518 366 518 c 0
 290 516 306 518 222 514 c 0
 221 514 220 514 220 515 c 0
 220 520 237 534 245 534 c 0
 289 536 361 538 396 538 c 0
EndSplineSet
Refer: 64 98 N 1 0 0 1 0 0 2
Validated: 5
EndChar

StartChar: uni0181
Encoding: 385 385 311
Width: 450
Flags: W
HStem: -82 21G<63 67> -12 13<218.473 277.693> 238 8<330.758 374.228> 426 17<312.022 393.63>
VStem: 36 33<-71.5668 -8.11148> 133 35<33.6388 70.1085> 170 34<344.016 386.332> 405 45<107.39 227.025> 417 46<331.651 416.946>
LayerCount: 2
Fore
SplineSet
243 1 m 0xff
 306 1 405 71 405 185 c 1xff
 404 214 387 238 354 238 c 0
 316 238 303 221 287 221 c 0
 284 221 282 225 280 228 c 0
 279 230 276 231 276 234 c 0
 276 241 299 240 308 243 c 0
 356 259 417 324 417 381 c 0
 417 416 385 426 347 426 c 0
 340 426 335 426 326 425 c 1
 282 361 215 253 178 187 c 0
 145 128 114 74 90 20 c 0
 80 -2 69 -40 69 -73 c 0
 69 -78 69 -82 65 -82 c 0
 61 -82 55 -75 48 -66 c 0
 44 -60 36 -52 36 -48 c 0
 36 -38 75 50 163 192 c 1
 309 424 l 1
 262 419 204 406 204 379 c 0
 204 369 209 362 217 354 c 0
 221 350 226 351 226 348 c 0
 226 343 206 332 196 332 c 0
 183 332 170 344 170 354 c 0
 170 375 194 398 224 411 c 0
 272 432 322 443 375 443 c 0
 413 443 463 437 463 398 c 0xfe80
 463 327 385 260 330 243 c 1
 340 244 359 246 368 246 c 0
 410 246 450 229 450 170 c 0
 450 120 404 71 371 43 c 0
 339 16 294 -12 224 -12 c 0
 172 -12 133 26 133 62 c 0
 133 66 145 67 154 72 c 0
 165 78 168 82 170 82 c 0
 171 82 172 81 172 80 c 0
 172 78 168 76 168 74 c 0
 168 38 211 1 243 1 c 0xff
EndSplineSet
Validated: 1
EndChar

StartChar: uni0182
Encoding: 386 386 312
Width: 450
Flags: W
HStem: -82 21G<63 67> -16 16<207.809 274.795> 234 22<283.026 368.901> 399 22<310.034 440.652> 432 20G<276.5 286.5 522 526.5>
VStem: 36 33<-71.5668 -11.4772> 133 35<26.7646 70.1085> 404 44<110.481 213.998>
LayerCount: 2
Fore
SplineSet
163 192 m 0
 222 293 268 370 268 412 c 1
 248 418 244 420 244 426 c 0
 244 435 271 452 282 452 c 0
 291 452 294 439 302 435 c 0
 318 427 357 421 393 421 c 0
 480 421 518 452 526 452 c 0
 527 452 528 452 528 451 c 0
 528 441 448 399 359 399 c 0
 339 399 316 402 299 405 c 1
 273 342 240 297 192 212 c 1
 235 233 305 256 349 256 c 0
 403 256 448 238 448 178 c 0
 448 101 348 -16 219 -16 c 0
 163 -16 133 27 133 62 c 0
 133 66 145 67 154 72 c 0
 165 78 168 82 170 82 c 0
 171 82 172 81 172 80 c 0
 172 78 168 76 168 74 c 0
 168 48 187 0 241 0 c 0
 360 0 404 120 404 164 c 0
 404 214 366 234 315 234 c 0
 269 234 203 207 184 198 c 1
 151 139 114 74 90 20 c 0
 80 -2 69 -40 69 -73 c 0
 69 -78 69 -82 65 -82 c 0
 61 -82 55 -75 48 -66 c 0
 44 -60 36 -52 36 -48 c 0
 36 -38 79 48 163 192 c 0
EndSplineSet
Validated: 1
EndChar

StartChar: uni018A
Encoding: 394 394 314
Width: 597
Flags: W
HStem: -10 13<358.06 431.671> -8 21<100.684 152.244> 148 28<169.957 224> 434 9<328.41 410.628> 503 12<351.161 402.682>
VStem: 65 28<18.761 71.6484> 170 35<342.213 386.767> 420 40<442.192 498.405> 585 43<150.355 336.882>
LayerCount: 2
Fore
SplineSet
240 93 m 1x7f80
 220 121 202 148 180 148 c 0
 138 148 93 81 93 45 c 0
 93 26 103 13 133 13 c 0
 157 13 200 34 240 93 c 1x7f80
279 120 m 1
 304 76 320 3 389 3 c 0xbf80
 508 3 585 143 585 258 c 0
 585 358 536 410 452 427 c 1
 452 427 346 214 279 120 c 1
460 463 m 1
 459 455 458 446 455 437 c 1
 571 418 628 348 628 234 c 0
 628 106 520 -10 390 -10 c 0xbf80
 315 -10 291 27 249 81 c 1
 234 64 219 48 204 35 c 0
 172 8 135 -8 113 -8 c 0x7f80
 89 -8 65 2 65 28 c 0
 65 83 157 176 214 176 c 0
 234 176 252 159 267 138 c 1
 331 252 387 372 411 433 c 1
 401 434 391 434 380 434 c 0
 312 434 205 407 205 376 c 0
 205 356 226 350 226 348 c 0
 226 343 206 332 196 332 c 0
 183 332 170 344 170 354 c 0
 170 407 291 443 383 443 c 0
 394 443 405 443 415 442 c 1
 418 449 419 457 420 464 c 1
 420 492 405 503 370 503 c 0
 336 503 307 477 303 477 c 0
 301 477 300 478 300 480 c 0
 300 482 338 515 387 515 c 0
 414 515 460 506 460 463 c 1
EndSplineSet
Validated: 1
EndChar

StartChar: uni018E
Encoding: 398 398 316
Width: 390
Flags: W
HStem: -18 24<140.472 228.35> 250 34<283.921 325.127> 423 20<276.417 360.11>
VStem: 38 36<53.1234 98.5> 228 20<373.005 396.941> 349 39<107.174 227.075> 393 35<316.648 401.12>
LayerCount: 2
Fore
SplineSet
248 371 m 0
 247 368 247 365 244 365 c 0
 241 365 240 369 238 373 c 0
 231 390 228 391 228 401 c 0
 228 426 293 443 337 443 c 0
 415 443 428 394 428 365 c 0
 428 308 370 283 350 274 c 1
 357 268 388 236 388 180 c 0
 388 64 256 -18 163 -18 c 0
 104 -18 38 13 38 68 c 0
 38 72 44 77 50 83 c 0
 66 99 78 117 80 117 c 0
 81 117 83 117 83 115 c 0
 83 113 74 103 74 94 c 0
 74 56 125 6 200 6 c 0
 309 6 349 103 349 159 c 0
 349 195 334 235 305 250 c 0
 294 256 280 250 280 259 c 0
 280 264 295 284 302 284 c 0
 311 284 319 280 329 280 c 0
 358 280 393 305 393 353 c 0
 393 392 369 423 319 423 c 0
 252 423 249 374 248 371 c 0
EndSplineSet
Validated: 1
EndChar

StartChar: uni0191
Encoding: 401 401 318
Width: 384
Flags: W
HStem: -150 24<-75.2216 1.56502> 201 20<153.682 217 271 352.913> 414 21<206.264 320 371 512.928> 533 10<265.18 308.634>
VStem: 334 42<436.55 524.458> 366 2<225.846 226>
AnchorPoint: "above" 353 466 basechar 0
LayerCount: 2
Fore
SplineSet
228 221 m 1xf4
 267 292 302 363 320 414 c 1
 306 414 290 413 274 412 c 0
 151 406 152 381 146 381 c 0
 144 381 143 382 143 384 c 0
 143 386 147 391 154 398 c 0
 165 409 186 421 212 426 c 0
 244 432 283 434 327 435 c 1
 332 451 334 464 334 474 c 0
 334 498 328 533 285 533 c 0
 251 533 235 515 227 508 c 0
 224 505 221 501 219 501 c 0
 218 501 216 501 216 503 c 0
 216 505 221 510 224 513 c 0
 242 530 266 543 293 543 c 0
 344 543 376 523 376 469 c 0xf8
 376 460 375 449 371 436 c 1
 422 437 478 440 538 447 c 0
 561 450 563 449 565 449 c 0
 567 449 575 449 568 444 c 0
 547 430 529 426 503 423 c 0
 448 417 406 416 363 415 c 1
 347 371 317 307 271 222 c 1
 366 225 366 226 366 226 c 0
 367 226 368 226 368 225 c 0
 368 223 365 220 360 216 c 0
 348 207 349 202 260 202 c 1
 176 50 140 -20 81 -83 c 0
 58 -108 6 -150 -56 -150 c 0
 -94 -150 -125 -119 -125 -99 c 0
 -125 -93 -117 -95 -105 -88 c 0
 -93 -81 -88 -75 -83 -75 c 0
 -78 -75 -75 -91 -72 -96 c 0
 -60 -117 -41 -126 -17 -126 c 0
 8 -126 35 -106 56 -79 c 0
 78 -51 126 38 217 201 c 1
 132 201 131 189 123 189 c 0
 123 189 122 189 122 190 c 0
 122 193 131 200 141 205 c 0
 156 213 167 221 228 221 c 1xf4
EndSplineSet
Validated: 1
EndChar

StartChar: florin
Encoding: 402 402 319
Width: 219
Flags: W
HStem: -243 20<-134.889 -94.1083> 462 19<341.567 389>
VStem: -185 34<-213.79 -138.506>
LayerCount: 2
Fore
SplineSet
70 48 m 1
 -60 -40 -151 -104 -151 -173 c 0
 -151 -213 -125 -223 -103 -223 c 0
 -56 -223 12 -71 70 48 c 1
119 80 m 1
 55 -33 -29 -243 -132 -243 c 0
 -159 -243 -185 -229 -185 -191 c 0
 -185 -112 -69 -36 78 65 c 1
 150 209 267 481 378 481 c 0
 400 481 413 472 413 464 c 0
 413 456 391 434 384 434 c 0
 379 434 380 462 356 462 c 0
 293 462 259 342 127 96 c 1
 203 149 287 206 297 212 c 0
 299 213 300 213 301 213 c 0
 302 213 303 212 303 211 c 0
 303 209 291 201 285 197 c 0
 269 187 197 137 119 80 c 1
EndSplineSet
Validated: 1
EndChar

StartChar: Ohorn
Encoding: 416 416 320
Width: 480
Flags: W
HStem: -12 30<179.227 297.217> 394 24<524.212 580.579> 426 17<321.075 400.467> 436 20G<607 609>
VStem: 77 41<72.7178 218.547> 440 28<358.173 396.572> 504 31<228.509 382.374> 605 6<441.199 455.999>
AnchorPoint: "above" 420 500 basechar 0
AnchorPoint: "cedilla" 219 0 basechar 0
AnchorPoint: "below" 194 -50 basechar 0
LayerCount: 2
Fore
SplineSet
77 125 m 0xdf
 77 193 118 276 159 326 c 0
 218 398 300 443 384 443 c 0
 418 443 468 416 468 389 c 0
 468 381 461 371 455 360 c 0
 449 347 445 334 441 334 c 0
 438 334 436 336 436 339 c 0
 436 345 440 353 440 361 c 0
 440 387 414 426 363 426 c 0xef
 284 426 223 384 178 317 c 0
 147 271 118 211 118 153 c 0
 118 73 165 18 236 18 c 0
 366 18 504 154 504 297 c 0
 504 326 498 357 490 379 c 0
 481 403 471 408 471 417 c 0
 471 420 489 444 497 444 c 0
 514 444 521 418 547 418 c 0
 573 418 605 429 605 452 c 0
 605 454 606 456 608 456 c 0
 610 456 611 454 611 452 c 0
 611 421 577 394 537 394 c 0
 532 394 528 394 524 395 c 1
 531 369 535 338 535 315 c 0
 535 136 346 -12 223 -12 c 0
 149 -12 77 37 77 125 c 0xdf
EndSplineSet
Validated: 1
EndChar

StartChar: ohorn
Encoding: 417 417 321
Width: 268
Flags: W
HStem: -9 13<81.7792 121.781> 200 21<196.157 228.835 261.298 324.941> 210 11<168.918 219.567> 238 20G<218 229.5 350 352>
VStem: 31 37<7.43739 112.393> 212 45<218.52 254.569> 251 10<156.088 202.781> 348 6<243.964 258.999>
AnchorPoint: "above" 239 274 basechar 0
AnchorPoint: "cedilla" 91 0 basechar 0
AnchorPoint: "below" 66 -50 basechar 0
LayerCount: 2
Fore
SplineSet
261 203 m 1xbb
 261 200 261 196 261 192 c 0
 261 97 173 -9 85 -9 c 0
 51 -9 31 7 31 42 c 0
 31 126 116 221 195 221 c 0xbb
 223 221 231 210 231 206 c 0
 231 203 226 200 225 200 c 0xdb
 224 200 220 210 195 210 c 0
 133 210 68 112 68 41 c 0
 68 26 77 4 100 4 c 0
 164 4 251 101 251 192 c 0xbb
 251 197 250 202 248 207 c 1
 225 218 212 237 212 249 c 0
 212 254 215 258 221 258 c 0
 238 258 251 245 257 224 c 1xbd
 264 220 274 218 289 218 c 0
 315 218 348 232 348 255 c 0
 348 257 349 259 351 259 c 0
 353 259 354 257 354 255 c 0
 354 224 320 199 285 199 c 0
 276 199 268 201 261 203 c 1xbb
EndSplineSet
Validated: 1
EndChar

StartChar: uni0237
Encoding: 567 567 336
Width: 174
Flags: W
HStem: -500 14<-393.858 -331.903> 210 13<94.2168 153.5>
VStem: -513 40<-430.044 -278.096> 116 45<160.085 217.884>
AnchorPoint: "above" 185 306 basechar 0
LayerCount: 2
Fore
SplineSet
10 -21 m 1
 -53 -33 -118 -40 -175 -59 c 0
 -313 -105 -473 -208 -473 -359 c 0
 -473 -425 -429 -486 -355 -486 c 0
 -269 -486 -185 -374 -146 -303 c 2
 10 -21 l 1
149 223 m 0
 158 223 161 219 161 213 c 0
 161 195 83 47 53 -4 c 1
 88 4 159 29 210 73 c 0
 240 99 254 118 258 124 c 0
 260 127 261 127 262 127 c 0
 263 127 264 126 264 125 c 0
 264 124 264 124 263 122 c 0
 247 101 231 83 213 67 c 0
 171 30 116 3 48 -14 c 1
 -120 -299 l 2
 -173 -389 -263 -500 -381 -500 c 0
 -453 -500 -513 -447 -513 -372 c 0
 -513 -187 -318 -90 -179 -49 c 0
 -108 -28 -45 -23 15 -12 c 1
 15 -12 116 178 116 203 c 0
 116 209 107 210 101 210 c 0
 90 210 79 207 67 199 c 0
 64 197 63 196 62 196 c 0
 61 196 60 197 60 198 c 0
 60 199 60 200 63 202 c 0
 72 208 92 223 149 223 c 0
EndSplineSet
Validated: 1
EndChar

StartChar: circumflex
Encoding: 710 710 337
Width: 226
Flags: W
HStem: 272 83
VStem: 103 159
LayerCount: 2
Fore
SplineSet
232 355 m 4
 234 355 235 354 236 351 c 4
 244 328 248 313 262 286 c 4
 263 285 258 283 252 280 c 4
 248 278 243 272 241 272 c 4
 240 272 240 271 240 272 c 4
 232 292 225 308 214 331 c 5
 118 278 l 6
 109 273 104 273 103 273 c 4
 102 273 102 274 102 274 c 5
 102 277 134 293 215 347 c 4
 219 350 227 355 232 355 c 4
EndSplineSet
Validated: 1
EndChar

StartChar: uni02C9
Encoding: 713 713 339
Width: 230
Flags: W
HStem: 301 14<114.054 290.902>
VStem: 114 177<301.077 313.977>
AnchorPoint: "above" 182 274 mark 0
LayerCount: 2
Fore
SplineSet
118 315 m 0
 172 315 247 314 283 314 c 0
 289 314 291 312 291 309 c 0
 291 301 277 300 262 300 c 0
 220 300 234 301 121 301 c 0
 116 301 114 305 114 309 c 0
 114 312 116 315 118 315 c 0
EndSplineSet
Validated: 1
EndChar

StartChar: breve
Encoding: 728 728 340
Width: 226
Flags: W
HStem: 290 14<188.467 223.952>
VStem: 150 24<313.062 354.786>
LayerCount: 2
Fore
SplineSet
190 290 m 0
 158 290 150 310 150 327 c 0
 150 334 152 341 155 349 c 0
 157 354 172 362 178 362 c 0
 179 362 179 361 179 361 c 2
 179 360 174 350 174 339 c 0
 174 316 192 304 213 304 c 0
 228 304 259 310 285 348 c 0
 287 350 293 355 300 358 c 0
 305 360 308 361 309 361 c 2
 310 361 l 1
 310 355 249 290 190 290 c 0
EndSplineSet
Validated: 1
EndChar

StartChar: dotaccent
Encoding: 729 729 341
Width: 216
Flags: W
HStem: 283 53<179.6 218.798>
VStem: 176 46<284.719 333.635>
LayerCount: 2
Fore
SplineSet
176 301 m 0
 176 315 191 336 207 336 c 0
 215 336 222 328 222 318 c 0
 222 304 209 283 192 283 c 0
 182 283 176 290 176 301 c 0
EndSplineSet
Validated: 1
EndChar

StartChar: ring
Encoding: 730 730 342
Width: 200
Flags: W
HStem: 299 11<180.019 212.355> 378 12<184.339 216.137>
VStem: 150 17<319.317 361.033> 229 18<327.332 368.342>
AnchorPoint: "above" 182 274 mark 0
LayerCount: 2
Fore
SplineSet
200 378 m 0
 180 378 167 359 167 339 c 0
 167 324 181 310 195 310 c 0
 213 310 229 325 229 347 c 0
 229 360 218 378 200 378 c 0
150 333 m 0
 150 364 178 390 210 390 c 0
 231 390 247 376 247 356 c 0
 247 327 220 299 189 299 c 0
 167 299 150 313 150 333 c 0
EndSplineSet
Validated: 1
EndChar

StartChar: ogonek
Encoding: 731 731 343
Width: 200
Flags: W
HStem: -113 8<9 49.8062>
VStem: -25 31<-100.829 -52.3253>
AnchorPoint: "cedilla" 80 0 mark 0
LayerCount: 2
Fore
SplineSet
83 3 m 0
 84 3 85 2 85 1 c 0
 85 -1 56 -16 48 -21 c 0
 31 -32 6 -50 6 -76 c 0
 6 -92 20 -105 38 -105 c 0
 48 -105 56 -101 58 -101 c 0
 60 -101 62 -101 62 -102 c 0
 62 -104 32 -113 18 -113 c 0
 0 -113 -25 -109 -25 -85 c 0
 -25 -56 6 -38 31 -24 c 0
 34 -22 82 3 83 3 c 0
EndSplineSet
Validated: 1
EndChar

StartChar: tilde
Encoding: 732 732 344
Width: 246
Flags: W
HStem: 273 17<207 251.852> 321 17<152.148 196>
VStem: 99 206
AnchorPoint: "above" 182 274 mark 0
LayerCount: 2
Fore
SplineSet
180 338 m 0
 212 338 216 290 246 290 c 0
 259 290 279 309 292 325 c 0
 296 330 300 337 303 337 c 0
 304 337 305 336 305 335 c 0
 305 326 260 273 224 273 c 0
 190 273 186 321 158 321 c 0
 145 321 125 302 112 286 c 0
 108 281 104 274 101 274 c 0
 100 274 99 275 99 276 c 0
 99 285 144 338 180 338 c 0
EndSplineSet
Validated: 1
EndChar

StartChar: hungarumlaut
Encoding: 733 733 345
Width: 239
Flags: W
HStem: 273 80 273 87
VStem: 194 140
AnchorPoint: "above" 182 274 mark 0
LayerCount: 2
Fore
SplineSet
261 357 m 0x60
 264 359 267 360 269 360 c 0
 271 360 271 358 271 356 c 0
 271 351 265 342 260 339 c 0
 164 287 147 273 139 273 c 0
 138 273 137 274 137 275 c 0
 137 276 146 281 261 357 c 0x60
EndSplineSet
Refer: 110 180 S 1 0 0 1 76 0 2
Validated: 1
EndChar

StartChar: uni0374
Encoding: 884 884 346
Width: 143
Flags: W
HStem: -178 139
VStem: 103 20<-118.328 -72.3298>
LayerCount: 2
Fore
SplineSet
97 -39 m 0
 111 -39 123 -70 123 -83 c 0
 123 -125 81 -161 54 -177 c 0
 52 -178 51 -178 51 -178 c 2
 49 -178 48 -177 48 -176 c 0
 48 -173 50 -170 54 -167 c 0
 77 -153 103 -128 103 -95 c 0
 103 -73 79 -63 79 -56 c 0
 79 -49 94 -39 97 -39 c 0
EndSplineSet
Validated: 1
EndChar

StartChar: tonos
Encoding: 900 900 347
Width: 230
Flags: W
HStem: 271 114
VStem: 166 118
AnchorPoint: "above" 182 274 mark 0
AnchorPoint: "greekabove" 182 274 mark 0
LayerCount: 2
Fore
SplineSet
169 276 m 5
 266 376 l 6
 270 380 276 385 277 385 c 4
 280 385 284 374 284 371 c 4
 284 368 283 366 280 364 c 4
 236 326 215 312 173 275 c 4
 172 273 169 271 168 271 c 4
 167 271 166 271 166 272 c 4
 166 273 169 276 169 276 c 5
EndSplineSet
Validated: 1
EndChar

StartChar: Gamma
Encoding: 915 915 350
Width: 346
Flags: W
HStem: -13 21G<17 26> 412 33<349.957 494.644>
LayerCount: 2
Fore
SplineSet
150 378 m 0
 148 376 147 374 144 376 c 0
 141 378 143 380 145 383 c 0
 156 397 173 417 213 424 c 0
 291 438 386 425 518 441 c 0
 541 444 543 445 545 445 c 0
 547 445 555 445 548 440 c 0
 527 426 509 422 483 419 c 0
 404 410 360 414 296 412 c 1
 275 373 258 338 198 219 c 0
 155 133 115 60 85 0 c 0
 82 -6 73 -10 69 -10 c 0
 61 -11 32 -13 20 -13 c 0
 14 -13 13 -13 13 -10 c 0
 13 -7 27 -9 39 9 c 0
 75 65 126 157 165 230 c 0
 170 238 229 352 252 410 c 1
 189 406 176 402 150 378 c 0
EndSplineSet
Validated: 1
EndChar

StartChar: Delta
Encoding: 916 916 351
Width: 490
Flags: W
HStem: 0 16<57.0015 240.832> 428 20G<458.5 462>
VStem: 11 46<6.5 40.1338> 412 50<182.139 399.999> 423 39<33.0373 248.875>
LayerCount: 2
Fore
SplineSet
23 0 m 2xf0
 14 0 11 4 11 9 c 0
 11 37 128 130 371 386 c 0
 409 426 411 430 438 441 c 0
 444 443 456 448 461 448 c 0
 463 448 465 446 465 442 c 0
 465 425 462 408 462 222 c 0
 462 131 468 51 468 50 c 0
 468 9 442 0 405 0 c 2
 23 0 l 2xf0
423 49 m 0xe8
 423 153 412 362 412 397 c 0xf0
 412 399 410 400 409 400 c 0
 407 400 402 395 396 389 c 0
 370 360 57 24 57 20 c 0
 57 17 59 16 63 16 c 0
 423 16 423 34 423 49 c 0xe8
EndSplineSet
Validated: 1
EndChar

StartChar: Iota
Encoding: 921 921 356
Width: 247
Flags: W
HStem: 424 19<325.372 357.946> 434 9<238.138 271.5>
AnchorPoint: "greekabove" 173 400 basechar 0
LayerCount: 2
Fore
SplineSet
121 124 m 0x80
 151 179 276 408 276 422 c 0
 276 428 269 432 261 434 c 0
 250 437 238 436 238 439 c 0
 238 441 242 443 246 443 c 0
 259 443 275 441 305 441 c 0
 327 441 353 443 367 443 c 0x40
 371 443 372 440 372 439 c 0
 372 433 334 432 329 424 c 0
 251 295 212 224 142 84 c 0
 98 -4 118 -1 52 -5 c 0
 35 -6 20 -9 17 -9 c 0
 11 -9 9 -7 9 -5 c 0
 9 -3 11 0 15 0 c 0
 44 3 58 8 121 124 c 0x80
EndSplineSet
Validated: 1
EndChar

StartChar: Lambda
Encoding: 923 923 358
Width: 490
Flags: W
HStem: -7 11<-24.7738 -4.32886> -4 17<372.5 434.453> 431 20G<457.5 461>
VStem: 346 44<15.2053 237.755> 403 61<384.852 403.999>
AnchorPoint: "greekabove" 280 400 basechar 0
AnchorPoint: "above" 470 500 basechar 0
AnchorPoint: "cedilla" 395 0 basechar 0
AnchorPoint: "below" 178 -50 basechar 0
LayerCount: 2
Fore
SplineSet
453 415 m 0xb8
 422 332 390 161 390 89 c 0
 390 31 403 13 422 13 c 0
 449 13 496 46 525 71 c 0
 551 94 570 118 574 124 c 0
 576 127 577 127 578 127 c 0
 579 127 580 126 580 125 c 0
 580 124 580 124 579 122 c 0
 542 73 509 45 463 18 c 0
 437 3 412 -4 393 -4 c 0x78
 352 -4 346 24 346 77 c 0
 346 190 403 369 403 401 c 0
 403 403 403 404 402 404 c 0
 400 404 394 396 388 390 c 2
 186 153 l 1
 130 89 80 35 51 11 c 0
 39 2 27 -1 8 -3 c 0
 0 -4 -9 -7 -19 -7 c 0
 -22 -7 -25 -6 -25 -3 c 0
 -25 1 -21 3 -17 4 c 0
 -8 7 6 14 15 22 c 0
 99 95 199 189 373 392 c 0
 409 434 411 431 438 442 c 0
 444 444 455 451 460 451 c 0
 462 451 464 449 464 447 c 2
 464 446 l 2
 464 437 454 420 453 415 c 0xb8
EndSplineSet
Validated: 1
EndChar

StartChar: Xi
Encoding: 926 926 361
Width: 455
Flags: W
HStem: -14 22<258.269 361.492> 22 22<61.5082 161.862> 187 22<320.558 400.492> 211 22<193.508 273.442> 387 22<428.88 519.492> 421 22<250.63 346.219>
LayerCount: 2
Fore
SplineSet
114 44 m 0
 207 44 248 8 346 8 c 0
 376 8 385 13 407 28 c 0
 412 32 418 38 420 38 c 0
 421 38 422 37 422 36 c 0
 422 34 419 32 412 26 c 0
 366 -11 323 -14 309 -14 c 0
 211 -14 170 22 77 22 c 0
 47 22 38 17 16 2 c 0
 11 -2 5 -8 3 -8 c 0
 2 -8 1 -7 1 -6 c 0
 1 -4 4 -2 11 4 c 0
 57 41 100 44 114 44 c 0
348 187 m 0
 292 187 264 211 209 211 c 0
 179 211 170 206 148 191 c 0
 143 187 137 181 135 181 c 0
 134 181 133 182 133 183 c 0
 133 185 136 187 143 193 c 0
 189 230 232 233 246 233 c 0
 302 233 330 209 385 209 c 0
 415 209 424 214 446 229 c 0
 451 233 457 239 459 239 c 0
 460 239 461 238 461 237 c 0
 461 235 458 233 451 227 c 0
 405 190 362 187 348 187 c 0
194 398 m 0
 224 430 278 443 306 443 c 0
 384 443 427 409 504 409 c 0
 534 409 543 414 565 429 c 0
 570 433 576 439 578 439 c 0
 579 439 580 438 580 437 c 0
 580 435 577 433 570 427 c 0
 524 390 481 387 467 387 c 0
 389 387 348 421 269 421 c 0
 239 421 218 412 197 391 c 0
 191 385 188 381 186 381 c 0
 184 381 183 382 183 384 c 0
 183 386 187 391 194 398 c 0
EndSplineSet
Validated: 1
EndChar

StartChar: Pi
Encoding: 928 928 363
Width: 424
Flags: W
HStem: -14 17<256 318.655> 429 20G<604 606>
VStem: 246 53<-8.0625 49.8013>
LayerCount: 2
Fore
SplineSet
116 381 m 0
 114 381 113 382 113 384 c 0
 113 386 117 391 124 398 c 0
 135 409 156 421 182 426 c 0
 260 440 446 429 578 445 c 0
 601 448 603 449 605 449 c 0
 607 449 615 449 608 444 c 0
 587 430 569 426 543 423 c 0
 527 421 510 420 493 419 c 1
 326 84 l 2
 304 40 299 22 299 11 c 0
 299 6 304 3 311 3 c 0
 324 3 339 11 343 11 c 0
 344 11 346 10 346 9 c 0
 346 0 301 -14 259 -14 c 0
 253 -14 246 -9 246 -3 c 0
 246 19 266 43 307 124 c 0
 375 258 399 300 448 417 c 1
 396 415 342 415 295 414 c 1
 242 289 110 45 84 -1 c 0
 80 -8 78 -14 23 -14 c 0
 17 -14 16 -14 16 -11 c 0
 16 -8 30 -9 41 8 c 0
 106 108 200 282 254 412 c 1
 251 412 247 412 244 412 c 0
 121 406 122 381 116 381 c 0
EndSplineSet
Validated: 1
EndChar

StartChar: Sigma
Encoding: 931 931 365
Width: 465
Flags: W
HStem: -14 19<245.925 339.95> 0 29<36.8405 243.849> 420 23<298.246 517.759>
VStem: 216 45<269.322 416.374> 246 42<228.626 315.893> 406 33<53.783 109.146> 518 47<399.338 440.5>
LayerCount: 2
Fore
SplineSet
16 -12 m 0x6e
 14 -12 12 -11 12 -8 c 0
 12 6 105 121 222 209 c 0
 234 218 246 229 246 235 c 0x6e
 246 245 216 331 216 411 c 0
 216 420 227 425 234 430 c 0
 241 436 245 443 258 443 c 2
 556 443 l 2
 563 443 565 441 565 440 c 0
 565 433 558 427 550 412 c 0
 530 375 529 364 517 357 c 0
 505 350 504 343 497 343 c 0
 496 343 495 344 495 346 c 0
 495 351 518 380 518 407 c 0
 518 413 509 420 486 420 c 0
 396 420 261 419 261 413 c 0
 261 408 261 404 261 399 c 0x76
 261 287 288 255 288 248 c 0
 288 240 275 234 253 219 c 0
 178 167 96 94 46 18 c 1
 81 23 134 29 155 29 c 0x6e
 224 29 248 5 311 5 c 0
 401 5 406 65 406 79 c 0
 406 93 396 98 396 101 c 0
 396 107 421 118 425 118 c 0
 430 118 439 110 439 99 c 0
 439 50 375 -14 283 -14 c 0xae
 239 -14 196 0 152 0 c 0
 121 0 35 -12 16 -12 c 0x6e
EndSplineSet
Validated: 1
EndChar

StartChar: Phi
Encoding: 934 934 368
Width: 435
Flags: W
HStem: 56 21<227.281 276.846> 424 20<418 449.572> 432 8<336.003 356.015>
VStem: 89 36<122.952 226.413> 440 37<207.074 311.286>
LayerCount: 2
Fore
SplineSet
227 78 m 1x98
 233 77 239 77 245 77 c 0
 362 77 440 179 440 254 c 0
 440 298 414 332 372 347 c 1
 310 242 268 160 227 78 c 1x98
173 60 m 1
 122 72 89 109 89 160 c 0
 89 269 233 371 345 377 c 1
 355 397 361 412 361 416 c 0
 361 429 352 432 340 432 c 0
 337 432 336 434 336 436 c 0
 336 438 340 440 344 440 c 0xb8
 368 440 370 439 398 439 c 0
 420 439 442 444 456 444 c 0
 460 444 461 440 461 439 c 0
 461 433 423 432 418 424 c 2xd8
 388 374 l 1
 445 363 477 324 477 274 c 0
 477 163 332 60 217 56 c 1
 190 -3 198 -1 140 -5 c 0
 123 -6 108 -9 105 -9 c 0
 99 -9 97 -7 97 -5 c 0
 97 -3 99 0 103 0 c 0
 125 2 139 6 173 60 c 1
125 180 m 0
 125 137 150 103 189 87 c 1
 334 355 l 1
 334 355 325 356 320 356 c 0
 193 356 125 246 125 180 c 0
EndSplineSet
Validated: 1
EndChar

StartChar: Psi
Encoding: 936 936 370
Width: 523
Flags: W
HStem: 135 26<253.14 265> 425 18<178.47 220.575 464.065 498.572> 434 9<376.138 409.5> 474 21<587.326 608.923>
VStem: 178 46<179.595 299.861> 228 43<321.54 423.837> 614 33<412.618 471.744>
AnchorPoint: "greekabove" 93 400 basechar 0
LayerCount: 2
Fore
SplineSet
217 443 m 0xde
 255 443 271 420 271 393 c 0
 271 352 224 284 224 230 c 0
 224 198 244 171 279 161 c 1
 325 245 414 410 414 422 c 0
 414 428 407 432 399 434 c 0
 388 437 376 436 376 439 c 0
 376 441 380 443 384 443 c 0
 397 443 413 441 443 441 c 0
 465 441 491 443 505 443 c 0xbe
 509 443 510 440 510 439 c 0
 510 433 472 432 467 424 c 0
 404 320 366 253 317 157 c 1
 377 162 484 208 579 364 c 0
 602 402 613 422 614 447 c 0
 614 469 595 474 587 474 c 0
 581 474 580 472 578 472 c 0
 577 472 576 473 576 474 c 0
 576 475 577 477 581 480 c 0
 590 487 602 495 616 495 c 0
 624 495 647 491 647 465 c 0
 647 440 634 417 612 380 c 0
 525 239 408 146 306 135 c 1
 280 84 l 2
 235 -4 256 -1 190 -5 c 0
 173 -6 158 -9 155 -9 c 0
 149 -9 147 -7 147 -5 c 0
 147 -3 149 0 153 0 c 0
 188 4 201 18 265 135 c 1
 222 140 178 177 178 222 c 0
 178 276 228 342 228 387 c 0
 228 404 226 425 197 425 c 0
 184 425 157 421 127 391 c 0
 121 385 118 381 116 381 c 0
 114 381 113 382 113 384 c 0
 113 386 117 391 124 398 c 0
 157 432 198 443 217 443 c 0xde
EndSplineSet
Validated: 1
EndChar

StartChar: Omega
Encoding: 937 937 371
Width: 602
Flags: W
HStem: -54 22<576.449 646.569> -28 21G<367 371.5> -17 26<14.4795 158> 428 15<377.56 476.539>
VStem: 102 42<80.7973 238.924> 593 40<203.909 342.695>
AnchorPoint: "below" 277 -50 basechar 0
AnchorPoint: "greekabove" 220 400 basechar 0
LayerCount: 2
Fore
SplineSet
158 9 m 1xbc
 121 53 102 97 102 154 c 0
 102 265 226 443 449 443 c 0
 531 443 633 393 633 284 c 0
 633 232 611 147 445 22 c 1
 498 15 568 -32 639 -32 c 0
 653 -32 657 -26 661 -26 c 0
 662 -26 663 -27 663 -28 c 0
 663 -31 642 -54 609 -54 c 0
 550 -54 454 -5 414 -2 c 1
 398 -14 375 -28 368 -28 c 0xdc
 366 -28 363 -26 363 -22 c 0
 363 -5 396 4 415 16 c 0
 503 75 593 149 593 265 c 0
 593 370 508 428 428 428 c 0
 232 428 144 257 144 173 c 0
 144 58 220 24 220 7 c 0
 220 2 205 -4 194 -9 c 0
 185 -13 177 -17 170 -17 c 0
 147 -17 105 -14 0 -14 c 0
 -1 -14 -2 -13 -2 -13 c 2
 -2 -12 8 -8 16 -3 c 0
 26 3 32 9 35 9 c 0
 44 9 74 7 93 7 c 0
 115 7 136 8 158 9 c 1xbc
EndSplineSet
Validated: 1
EndChar

StartChar: alpha
Encoding: 945 945 379
Width: 343
Flags: W
HStem: -2 19<61.5 118.633 240.999 294.371> 222 9<185.467 214.646>
VStem: 31 38<19.2079 107.742> 195 29<54.6243 91.718> 223 29<133.522 220.743>
AnchorPoint: "above" 238 274 basechar 0
AnchorPoint: "below" 111 -50 basechar 0
LayerCount: 2
Fore
SplineSet
195 60 m 1xf0
 154 20 112 -2 75 -2 c 0
 48 -2 31 23 31 50 c 0
 31 119 136 231 211 231 c 0
 245 231 252 213 252 191 c 0xe8
 252 158 237 136 229 108 c 1
 262 143 301 188 317 208 c 0
 318 210 321 211 323 211 c 0
 324 211 324 211 325 210 c 0
 325 209 325 208 324 207 c 0
 306 184 264 133 226 92 c 1
 225 86 224 79 224 72 c 0
 224 51 233 15 270 15 c 0
 302 15 349 46 378 71 c 0
 404 94 423 118 427 124 c 0
 429 127 430 127 431 127 c 0
 432 127 433 126 433 125 c 0
 433 124 433 124 432 122 c 0
 395 73 362 45 316 18 c 0
 290 3 270 -2 247 -2 c 0
 214 -2 197 27 195 60 c 1xf0
195 73 m 1xf0
 197 119 223 154 223 195 c 0xe8
 223 209 219 222 200 222 c 0
 151 222 69 120 69 54 c 0
 69 32 76 17 101 17 c 0
 123 17 161 41 195 73 c 1xf0
EndSplineSet
Validated: 1
EndChar

StartChar: beta
Encoding: 946 946 380
Width: 367
Flags: W
HStem: -14 17<145.339 203.552> 227 23<220.704 278.75> 233 10<234.65 302.5> 416 30<323.157 386.684>
VStem: -211 41<-702.094 -620.617> 334 32<107.148 213.595> 394 32<334.226 409.458>
LayerCount: 2
Fore
SplineSet
353 416 m 0xbe
 146 416 -83 -323 -128 -484 c 0
 -161 -602 -168 -670 -170 -691 c 0
 -171 -698 -182 -700 -190 -702 c 0
 -198 -704 -199 -706 -208 -706 c 0
 -210 -706 -211 -705 -211 -703 c 0
 -211 -699 -181 -577 -155 -489 c 0
 -50 -137 168 446 383 446 c 0
 422 446 426 404 426 382 c 0
 426 345 372 258 309 240 c 1
 353 229 366 196 366 179 c 0
 366 39 220 -14 148 -14 c 0
 127 -14 94 -2 94 15 c 0
 94 22 95 30 95 36 c 0
 94 45 91 50 91 56 c 0
 91 57 92 60 94 60 c 0
 102 60 119 3 184 3 c 0
 269 3 334 83 334 165 c 0
 334 206 306 233 288 233 c 0xbe
 269 233 245 227 230 227 c 0
 224 227 218 228 218 232 c 0
 218 238 229 250 234 250 c 0xde
 248 250 253 243 280 243 c 0
 292 243 310 244 334 261 c 0
 361 281 394 331 394 374 c 0
 394 404 377 416 353 416 c 0xbe
EndSplineSet
Validated: 1
EndChar

StartChar: gamma
Encoding: 947 947 381
Width: 246
Flags: W
HStem: -382 24<-123.864 -82.9424>
VStem: -165 35<-355.404 -276.884> 84 31<22.9409 197.8>
LayerCount: 2
Fore
SplineSet
71 -21 m 1
 -58 -169 -130 -264 -130 -324 c 0
 -130 -345 -120 -358 -98 -358 c 0
 -59 -358 -18 -309 8 -252 c 0
 51 -159 62 -89 71 -21 c 1
74 2 m 1
 78 26 84 86 84 122 c 0
 84 151 83 176 75 192 c 0
 73 196 71 198 69 198 c 0
 67 198 65 196 62 196 c 0
 61 196 60 197 60 198 c 0
 60 199 60 200 63 202 c 0
 71 207 88 218 91 218 c 0
 95 218 98 216 103 209 c 0
 110 199 115 172 115 137 c 0
 115 110 112 78 108 41 c 1
 222 174 292 233 355 276 c 1
 365 281 373 285 376 285 c 0
 378 285 378 283 378 282 c 0
 378 280 367 274 358 269 c 0
 245 191 152 69 103 15 c 1
 84 -81 63 -168 34 -229 c 0
 -18 -339 -88 -382 -119 -382 c 0
 -153 -382 -165 -362 -165 -331 c 0
 -165 -247 40 -36 74 2 c 1
EndSplineSet
Validated: 1
EndChar

StartChar: delta
Encoding: 948 948 382
Width: 286
Flags: W
HStem: -4 12<84.4664 127.815> 694 21<402.857 462.145>
VStem: 31 40<10.3774 118.274> 208 30<281.525 485.74> 234 28<120.246 230.18> 489 26<599.733 668.63>
LayerCount: 2
Fore
SplineSet
441 715 m 0xf4
 488 715 515 691 515 655 c 0
 515 631 492 562 482 562 c 0
 481 562 480 563 480 564 c 0
 480 573 489 577 489 608 c 0
 489 675 463 694 423 694 c 0
 352 694 238 567 238 440 c 0xf4
 238 364 262 238 262 186 c 0xec
 262 101 190 -4 87 -4 c 0
 49 -4 31 16 31 50 c 0
 31 158 156 218 221 232 c 1
 219 242 208 330 208 390 c 0
 208 584 375 715 441 715 c 0xf4
223 224 m 1
 141 204 71 138 71 50 c 0
 71 34 73 8 105 8 c 0
 187 8 234 104 234 156 c 0xec
 234 179 225 212 223 224 c 1
EndSplineSet
Validated: 1
EndChar

StartChar: epsilon
Encoding: 949 949 383
Width: 227
Flags: W
HStem: -10 15<90.2721 147.616> 124 22<126.472 159.707> 220 14<148.098 198.5>
VStem: 24 38<18.5656 93.3759> 91 26<152.93 197.7>
AnchorPoint: "above" 201 274 basechar 0
LayerCount: 2
Fore
SplineSet
127 5 m 0
 174 5 226 40 262 71 c 0
 288 94 307 118 311 124 c 0
 313 127 314 127 315 127 c 0
 316 127 317 126 317 125 c 0
 317 124 317 124 316 122 c 0
 279 74 229 34 182 10 c 0
 161 0 129 -10 102 -10 c 0
 60 -10 24 6 24 49 c 0
 24 95 83 128 103 136 c 1
 93 144 91 159 91 166 c 0
 91 202 140 234 186 234 c 0
 211 234 228 218 228 207 c 0
 228 205 205 192 203 192 c 0
 199 192 192 220 162 220 c 0
 137 220 117 212 117 182 c 0
 117 165 133 146 141 146 c 0
 146 146 155 148 160 148 c 0
 166 148 171 147 171 145 c 0
 171 141 164 137 158 134 c 0
 148 130 143 124 133 124 c 0
 129 124 128 125 124 125 c 0
 113 125 62 93 62 60 c 0
 62 22 90 5 127 5 c 0
EndSplineSet
Validated: 1
EndChar

StartChar: zeta
Encoding: 950 950 384
Width: 380
Flags: W
HStem: -252 18<135.174 184.859> 681 35<614.936 773.739> 685 54<492.36 546.97>
VStem: 50 34<-195.211 -140.85> 62 38<8.02328 129.907> 261 39<-173.104 -94.8692>
LayerCount: 2
Fore
SplineSet
203 -69 m 1x94
 111 -117 84 -126 84 -161 c 0
 84 -179 122 -234 166 -234 c 0
 212 -234 260 -192 261 -141 c 0
 261 -106 237 -85 203 -69 c 1x94
100 62 m 0xcc
 100 -16 171 -19 228 -48 c 1
 296 -12 363 26 415 71 c 0
 441 94 460 118 464 124 c 0
 466 127 467 127 468 127 c 0
 469 127 470 126 470 125 c 0
 470 124 470 124 469 122 c 0
 453 101 437 83 420 68 c 0
 388 38 330 0 236 -51 c 1
 266 -65 300 -87 300 -121 c 0
 300 -184 209 -250 141 -252 c 1
 84 -252 50 -194 50 -179 c 0xd4
 50 -136 95 -116 194 -65 c 1
 142 -43 62 -29 62 48 c 0
 62 216 350 580 595 685 c 1
 530 693 461 714 461 721 c 0
 461 723 484 739 488 739 c 0xac
 489 739 551 707 639 701 c 1
 672 711 707 716 740 716 c 0
 765 716 782 712 782 708 c 0
 782 697 747 681 679 681 c 0
 652 681 634 682 614 684 c 1
 398 586 100 258 100 62 c 0xcc
EndSplineSet
Validated: 1
EndChar

StartChar: eta
Encoding: 951 951 385
Width: 290
Flags: W
HStem: -8 21G<16.5 20.5> 207 19<230.957 268.5> 214 14<95.7407 134.5>
VStem: 99 17<-382.422 -196.977> 119 34<159.656 213.882> 246 36<157.501 216.49>
AnchorPoint: "below" 29 -50 basechar 0
AnchorPoint: "above" 228 274 basechar 0
LayerCount: 2
Fore
SplineSet
133 156 m 1xbc
 157 173 187 194 215 209 c 0
 227 215 249 226 265 226 c 0
 272 226 282 223 282 207 c 0
 282 173 218 86 167 -47 c 0
 116 -181 116 -261 116 -284 c 0
 116 -352 132 -432 132 -440 c 0
 132 -445 129 -449 127 -449 c 0
 121 -449 99 -379 99 -278 c 0
 99 -183 118 -108 142 -40 c 0
 186 83 246 173 246 195 c 0
 246 200 246 207 239 207 c 0xdc
 230 207 216 201 201 193 c 0
 185 185 131 148 127 142 c 0
 125 138 101 94 101 93 c 2
 51 4 l 2
 47 -3 42 0 31 -4 c 0
 23 -7 23 -8 18 -8 c 0
 15 -8 12 -6 12 -3 c 0
 12 1 22 16 38 43 c 0
 52 67 62 83 84 124 c 0
 92 139 119 188 119 201 c 0
 119 208 115 214 107 214 c 0
 93 214 79 207 67 199 c 0
 64 197 63 196 62 196 c 0
 61 196 60 197 60 198 c 0
 60 199 60 200 63 202 c 0
 67 205 97 228 126 228 c 0
 143 228 153 217 153 204 c 0
 153 194 143 174 133 156 c 1xbc
EndSplineSet
Validated: 1
EndChar

StartChar: theta
Encoding: 952 952 386
Width: 355
Flags: W
HStem: -4 15<96 148.188> 168 12<333.899 373.394> 214 10<93.5009 128> 676 18<420.761 467>
VStem: 60 36<14.8835 110.416> 122 33<159.881 213.809> 250 28<235.439 394.51> 462 28<522.599 668.99>
LayerCount: 2
Fore
SplineSet
120 224 m 0
 136 224 155 218 155 199 c 0
 155 152 96 111 96 53 c 0
 96 29 107 11 128 11 c 0
 182 11 247 85 305 175 c 1
 273 191 250 234 250 284 c 0
 250 392 311 602 395 669 c 0
 400 673 429 694 452 694 c 0
 482 694 490 671 490 615 c 0
 490 523 426 335 332 187 c 1
 339 183 346 180 354 180 c 0
 384 180 408 195 418 202 c 0
 421 204 422 205 423 205 c 0
 424 205 425 204 425 203 c 0
 425 202 425 201 422 199 c 0
 394 180 369 168 335 168 c 0
 330 168 325 169 320 170 c 1
 251 65 178 -4 108 -4 c 0
 84 -4 60 12 60 50 c 0
 60 70 69 99 84 124 c 0
 100 152 122 179 122 197 c 0
 122 209 109 214 104 214 c 0
 90 214 79 207 67 199 c 0
 64 197 63 196 62 196 c 0
 61 196 60 197 60 198 c 0
 60 199 60 200 63 202 c 0
 67 205 91 224 120 224 c 0
318 197 m 1
 405 340 462 515 462 600 c 0
 462 656 455 676 428 676 c 0
 419 676 411 670 404 663 c 0
 348 606 278 428 278 298 c 0
 278 257 295 218 318 197 c 1
EndSplineSet
Validated: 1
EndChar

StartChar: kappa
Encoding: 954 954 388
Width: 287
Flags: W
HStem: -6 16<191.127 243.612> 116 11<123.205 159.5> 213 11<92.5348 128>
VStem: 117 32<156.74 212.907>
LayerCount: 2
Fore
SplineSet
118 224 m 0
 138 224 149 213 149 198 c 0
 149 184 137 162 119 133 c 1
 259 224 l 2
 264 227 272 228 278 228 c 0
 286 228 287 227 287 224 c 0
 287 222 286 219 281 216 c 0
 229 185 168 150 123 124 c 1
 131 126 141 127 151 127 c 0
 168 127 187 108 193 96 c 0
 211 61 196 10 237 10 c 0
 252 10 289 40 317 66 c 0
 341 88 367 118 371 124 c 0
 373 127 374 127 375 127 c 0
 376 127 377 126 377 125 c 0
 377 124 377 124 376 122 c 0
 359 100 334 74 317 58 c 0
 272 17 239 -6 217 -6 c 0
 166 -6 186 50 163 88 c 0
 147 113 132 116 125 116 c 0
 119 116 113 114 108 113 c 1
 88 78 66 34 52 2 c 0
 49 -4 38 -3 30 -5 c 0
 25 -6 19 -8 16 -8 c 0
 14 -8 12 -8 12 -6 c 0
 12 2 28 24 44 52 c 0
 60 80 65 88 84 124 c 0
 102 158 117 186 117 198 c 0
 117 207 112 213 103 213 c 0
 89 213 79 207 67 199 c 0
 64 197 63 196 62 196 c 0
 61 196 60 197 60 198 c 0
 60 199 60 200 63 202 c 0
 79 213 98 224 118 224 c 0
EndSplineSet
Validated: 1
EndChar

StartChar: lambda
Encoding: 955 955 389
Width: 388
Flags: W
HStem: -19 21G<1.5 5> -2 16<285.252 341.216> 612 22<156.212 208.076>
VStem: 256 34<206.988 548.846> 256 27<62.5748 411.319>
LayerCount: 2
Fore
SplineSet
315 -2 m 0x68
 256 -2 256 136 256 212 c 1
 6 -17 7 -19 3 -19 c 0
 0 -19 -1 -16 -1 -11 c 0
 -1 0 6 20 14 26 c 0
 101 92 191 166 256 222 c 1
 256 399 256 399 256 399 c 2
 256 560 224 612 175 612 c 0
 138 612 116 588 102 549 c 0
 99 543 80 533 72 533 c 0
 71 533 69 533 69 534 c 0
 69 551 132 634 200 634 c 0
 286 634 290 476 290 413 c 0xb0
 290 378 283 288 283 203 c 0
 283 106 295 14 331 14 c 0
 356 14 405 56 423 71 c 0
 449 94 468 118 472 124 c 0
 474 127 475 127 476 127 c 0
 477 127 478 126 478 125 c 0
 478 124 478 124 477 122 c 0
 455 93 435 72 413 54 c 0
 391 36 340 -2 315 -2 c 0x68
EndSplineSet
Validated: 1
EndChar

StartChar: mu
Encoding: 956 956 390
Width: 309
Flags: W
HStem: -8 20<55 106.709 199 254.182> 203 20G<147.5 150.5 298.5 303>
VStem: 26 32<24 68.5554> 180 34<10.2801 60.5116>
LayerCount: 2
Fore
SplineSet
94 12 m 0
 133 12 180 54 196 71 c 1
 211 104 261 193 270 204 c 0
 284 219 295 223 302 223 c 0
 304 223 306 221 306 219 c 0
 306 210 273 146 231 92 c 1
 220 68 214 48 214 29 c 0
 214 19 220 10 230 10 c 0
 311 10 391 127 397 127 c 0
 398 127 399 126 399 125 c 0
 399 121 375 95 348 66 c 0
 294 10 234 -10 206 -10 c 0
 192 -10 180 -5 180 13 c 0
 180 23 183 36 188 49 c 1
 152 22 102 -8 64 -8 c 0
 46 -8 36 -1 31 7 c 1
 -202 -335 -392 -440 -405 -440 c 0
 -406 -440 -406 -440 -406 -439 c 0
 -406 -430 -238 -368 26 24 c 1
 26 57 98 184 118 204 c 0
 124 210 132 215 134 216 c 0
 135 216 147 223 148 223 c 0
 153 223 154 222 154 216 c 0
 154 210 119 141 58 47 c 1
 58 40 59 12 94 12 c 0
EndSplineSet
Validated: 1
EndChar

StartChar: nu
Encoding: 957 957 391
Width: 264
Flags: W
HStem: -10 21G<52 56.5> 213 13<93.1937 131>
VStem: 111 35<146.503 212.785> 282 32<206.313 285.784>
LayerCount: 2
Fore
SplineSet
146 198 m 0
 146 178 132 147 119 118 c 0
 107 91 94 59 83 30 c 1
 132 71 180 104 229 148 c 1
 254 172 282 207 282 243 c 0
 282 288 258 287 258 293 c 0
 258 295 269 301 279 301 c 0
 290 301 314 286 314 258 c 0
 314 212 278 175 239 141 c 0
 195 103 142 68 101 34 c 0
 74 11 59 -10 54 -10 c 0
 50 -10 46 -1 46 5 c 0
 46 33 70 87 84 124 c 0
 93 146 111 181 111 200 c 0
 111 210 105 213 100 213 c 0
 92 213 79 207 67 199 c 0
 64 197 63 196 62 196 c 0
 61 196 60 197 60 198 c 0
 60 199 60 200 63 202 c 0
 64 203 93 226 122 226 c 0
 140 226 146 211 146 198 c 0
EndSplineSet
Validated: 1
EndChar

StartChar: xi
Encoding: 958 958 392
Width: 326
Flags: W
HStem: -252 18<80.1745 128.641> 359 24<373.327 403.397> 681 35<558.22 660.009> 687 52<440.106 486.808>
VStem: -5 34<-195.211 -144.641> 72 30<39.4368 153.392> 206 39<-170.582 -97.3183> 293 31<412.67 520.814>
LayerCount: 2
Fore
SplineSet
72 82 m 0xef
 72 182 159 281 260 339 c 0
 284 353 308 364 331 371 c 1
 306 389 293 424 293 458 c 0
 293 574 443 662 511 687 c 1
 463 696 420 717 420 720 c 0
 420 722 440 739 443 739 c 0xdf
 448 739 486 708 557 701 c 1
 583 711 611 716 636 716 c 0
 655 716 667 712 667 708 c 0
 666 697 639 681 587 681 c 0
 566 681 552 682 537 684 c 1
 370 627 324 536 324 474 c 0
 324 423 349 392 373 381 c 1
 380 382 386 383 392 383 c 0
 401 383 410 381 410 378 c 0
 410 374 406 373 398 367 c 0
 392 363 380 359 368 359 c 0
 359 359 353 360 346 363 c 1
 319 359 291 347 264 332 c 0
 190 290 102 202 102 99 c 0
 102 30 151 -4 188 -40 c 1
 251 -6 312 29 360 71 c 0
 386 94 405 118 409 124 c 0
 411 127 412 127 413 127 c 0
 414 127 415 126 415 125 c 0
 415 124 415 124 414 122 c 0
 398 101 382 83 365 68 c 0
 334 39 280 3 193 -45 c 1
 221 -72 245 -94 245 -119 c 0
 245 -120 245 -120 245 -121 c 0
 242 -184 154 -250 86 -252 c 1
 29 -252 -5 -194 -5 -179 c 0
 -5 -139 64 -104 154 -58 c 1
 120 -20 72 16 72 82 c 0xef
206 -141 m 0
 206 -116 184 -92 158 -63 c 1
 79 -104 29 -129 29 -161 c 0
 29 -179 67 -234 111 -234 c 0
 157 -234 205 -192 206 -141 c 0
EndSplineSet
Validated: 1
EndChar

StartChar: pi
Encoding: 960 960 394
Width: 343
Flags: W
HStem: -20 15<221.688 265.773> 190 21<167.464 243> 196 28<62 120> 210 14<86.25 119>
VStem: 9 28<-18.986 10.1094> 183 27<0.822021 92.7836>
LayerCount: 2
Fore
SplineSet
67 199 m 0x9c
 64 197 63 196 62 196 c 0
 61 196 60 197 60 198 c 0
 60 199 60 200 63 202 c 0
 78 213 91 224 120 224 c 0xac
 162 224 210 211 258 211 c 0
 284 211 310 215 334 226 c 0
 340 229 344 230 346 230 c 0
 347 230 347 229 347 229 c 1
 347 223 294 195 270 191 c 1
 248 146 210 85 210 42 c 0
 210 8 224 -5 238 -5 c 0
 295 -5 361 52 374 63 c 0
 400 86 419 110 423 116 c 0
 425 119 426 119 427 119 c 0
 428 119 429 118 429 117 c 0
 429 116 429 116 428 114 c 0
 391 65 358 37 312 10 c 0
 286 -5 258 -20 229 -20 c 0
 218 -20 183 -15 183 37 c 0
 183 82 223 149 243 190 c 1xcc
 212 191 175 199 149 204 c 1
 140 182 145 187 57 21 c 0
 51 11 39 -12 37 -17 c 0
 36 -20 33 -21 30 -21 c 0
 24 -21 14 -15 11 -6 c 0
 10 -4 9 -1 9 1 c 0
 9 11 25 23 75 116 c 0
 86 136 112 191 119 210 c 1
 82 210 76 205 67 199 c 0x9c
EndSplineSet
Validated: 1
EndChar

StartChar: rho
Encoding: 961 961 395
Width: 280
Flags: W
HStem: -14 20<88.9723 148.619> 213 22<197.023 256>
VStem: 248 34<101.171 204.414>
AnchorPoint: "above" 259 274 basechar 0
LayerCount: 2
Fore
SplineSet
58 99 m 0
 121 196 203 235 239 235 c 0
 273 235 282 196 282 173 c 0
 282 63 170 -14 104 -14 c 0
 56 -14 36 3 36 10 c 0
 36 12 42 12 50 17 c 0
 58 21 65 30 67 30 c 0
 71 30 90 6 128 6 c 0
 192 6 248 89 248 155 c 0
 248 188 236 213 208 213 c 0
 165 213 101 140 84 114 c 0
 -40 -74 -187 -385 -254 -652 c 0
 -255 -656 -272 -655 -281 -660 c 0
 -288 -664 -299 -670 -301 -670 c 1
 -301 -670 -302 -670 -302 -669 c 0
 -302 -668 -131 -190 58 99 c 0
EndSplineSet
Validated: 1
EndChar

StartChar: sigma1
Encoding: 962 962 396
Width: 258
Flags: W
HStem: -71 20<36.6195 90.3513> -48 20G<45 47> 210 20<182.789 245.5>
VStem: 12 33<-46.3008 -38.9368> 48 36<56.8501 130.967> 123 32<-29.8919 9.91965> 239 33<190.904 203.517>
LayerCount: 2
Fore
SplineSet
202 210 m 0
 134 210 84 141 84 91 c 0
 84 44 155 43 155 0 c 0
 155 -34 85 -71 51 -71 c 0
 28 -71 12 -53 12 -50 c 0
 12 -48 21 -43 30 -38 c 0
 37 -34 44 -28 46 -28 c 1
 46 -28 47 -28 47 -29 c 0
 47 -30 45 -32 45 -33 c 0
 45 -38 64 -51 81 -51 c 0
 88 -51 123 -48 123 -19 c 0
 123 22 48 29 48 77 c 0
 48 157 164 230 232 230 c 0
 259 230 272 208 272 203 c 0
 272 197 263 195 254 190 c 0
 246 185 243 180 241 180 c 0
 239 180 239 181 239 182 c 0
 239 193 221 210 202 210 c 0
EndSplineSet
Validated: 1
EndChar

StartChar: sigma
Encoding: 963 963 397
Width: 303
Flags: W
HStem: -9 13<81.7792 121.597> 193 20<249.863 347.64> 210 14<167.304 214.252>
VStem: 31 37<7.43739 111.979> 234 21<116.107 193.155>
AnchorPoint: "below" 386 -100 basechar 0
AnchorPoint: "above" 235 274 basechar 0
LayerCount: 2
Fore
SplineSet
249 197 m 1xd8
 252 189 255 181 255 156 c 0
 255 101 173 -9 85 -9 c 0
 51 -9 31 7 31 42 c 0
 31 114 102 224 213 224 c 0xb8
 240 224 270 213 319 213 c 0
 340 213 367 216 389 232 c 0
 394 235 397 238 399 238 c 0
 401 238 401 237 401 236 c 0
 401 235 362 193 289 193 c 0
 281 193 265 194 249 197 c 1xd8
195 210 m 0
 133 210 68 112 68 41 c 0
 68 26 77 4 100 4 c 0
 166 4 234 91 234 151 c 0
 234 201 207 210 195 210 c 0
EndSplineSet
Validated: 1
EndChar

StartChar: tau
Encoding: 964 964 398
Width: 233
Flags: W
HStem: -3 17<86.5 165.622> 215 17<98.7398 133.533 164.809 264.661>
VStem: 52 37<18.8621 96.4887>
LayerCount: 2
Fore
SplineSet
317 123 m 0
 319 126 320 126 321 126 c 0
 322 126 323 125 323 124 c 0
 323 123 323 123 322 121 c 0
 275 59 242 41 225 31 c 0
 175 2 139 -3 95 -3 c 0
 78 -3 52 13 52 38 c 0
 52 55 56 72 84 124 c 0
 98 150 123 195 134 214 c 1
 124 215 116 215 112 215 c 0
 96 215 83 209 66 197 c 0
 64 196 63 196 62 196 c 0
 60 196 60 197 60 198 c 0
 60 200 72 208 78 212 c 0
 90 220 111 232 129 232 c 0
 156 232 201 230 219 230 c 0
 241 230 264 232 276 241 c 0
 279 243 281 245 282 245 c 0
 283 245 283 245 283 244 c 0
 283 241 275 230 263 222 c 0
 249 212 227 209 218 209 c 0
 205 209 186 210 167 211 c 1
 120 131 89 77 89 52 c 0
 89 33 103 14 124 14 c 0
 171 14 204 28 221 38 c 0
 275 69 307 108 317 123 c 0
EndSplineSet
Validated: 1
EndChar

StartChar: upsilon
Encoding: 965 965 399
Width: 323
Flags: W
HStem: -10 17<118.706 173.874> 170 11<308.699 347.156> 213 20G<289 294.5> 214 10<94.1529 128>
VStem: 62 36<16.7848 114.278> 122 33<157.879 213.846> 260 35<184.544 229.563> 270 29<102.495 173>
AnchorPoint: "above" 225 274 basechar 0
LayerCount: 2
Fore
SplineSet
391 199 m 0xee
 378 190 345 170 324 170 c 0
 314 170 306 171 299 173 c 1
 299 53 199 -10 127 -10 c 0
 72 -10 62 36 62 56 c 0
 62 76 70 99 84 124 c 0
 93 140 122 177 122 197 c 0
 122 209 113 214 104 214 c 0
 92 214 79 207 67 199 c 0
 64 197 63 196 62 196 c 0
 61 196 60 197 60 198 c 0
 60 199 60 200 63 202 c 0
 67 205 92 224 120 224 c 0
 136 224 155 218 155 199 c 0
 155 170 129 137 113 110 c 0
 102 91 98 73 98 58 c 0
 98 16 128 7 151 7 c 0
 226 7 270 93 270 172 c 0xdd
 270 199 260 198 260 216 c 0
 260 226 285 233 293 233 c 0
 296 233 296 231 296 230 c 0
 296 222 295 219 295 209 c 0
 295 198 306 181 327 181 c 0
 346 181 370 190 387 202 c 0
 390 204 391 205 392 205 c 0
 393 205 394 204 394 203 c 0
 394 202 394 201 391 199 c 0xee
EndSplineSet
Validated: 1
EndChar

StartChar: phi
Encoding: 966 966 400
Width: 348
Flags: W
HStem: -521 18<70.6909 137.88> -10 20<116.102 126> 204 20<284.999 329> 212 12<91.5232 128>
VStem: -26 28<-439.658 -316.916> 62 37<18.4605 115.175> 117 34<154.958 211.736> 309 33<126.682 203.447>
LayerCount: 2
Fore
SplineSet
156 8 m 1xef
 248 8 309 119 309 174 c 0
 309 189 302 204 290 204 c 0
 270 203 237 162 156 8 c 1xef
151 195 m 4
 151 161 99 103 99 58 c 4
 99 31 114 15 136 10 c 5
 206 145 258 222 320 224 c 4xef
 338 224 342 205 342 192 c 4
 342 103 245 0 147 -9 c 5
 49 -204 2 -304 2 -378 c 4
 2 -445 46 -503 112 -503 c 4
 176 -503 224 -450 235 -436 c 4
 240 -430 239 -429 242 -429 c 4
 243 -429 244 -430 244 -431 c 4
 244 -432 244 -433 243 -435 c 4
 228 -456 169 -521 88 -521 c 4
 17 -521 -26 -458 -26 -392 c 4
 -26 -316 30 -198 126 -10 c 5
 90 -7 62 22 62 56 c 4
 62 76 71 99 84 124 c 4
 94 143 117 184 117 199 c 4
 117 208 112 212 103 212 c 4
 89 212 79 207 67 199 c 4
 64 197 63 196 62 196 c 4
 61 196 60 197 60 198 c 4
 60 199 60 200 63 202 c 4
 79 213 98 224 118 224 c 4xdf
 138 224 151 217 151 195 c 4
EndSplineSet
Validated: 1
EndChar

StartChar: chi
Encoding: 967 967 401
Width: 263
Flags: W
HStem: -251 11<278.741 338.111>
VStem: 60 38<196.001 212.228> 358 6<329.365 338.999>
LayerCount: 2
Fore
SplineSet
136 66 m 1
 184 116 217 152 301 250 c 0
 344 301 357 333 358 336 c 0
 359 339 360 339 361 339 c 0
 362 339 364 338 364 337 c 2
 364 334 l 1
 355 313 357 310 298 236 c 0
 236 158 189 108 139 54 c 1
 152 -4 168 -65 193 -128 c 0
 224 -206 256 -240 312 -240 c 0
 344 -240 381 -216 409 -189 c 0
 433 -165 451 -140 455 -134 c 0
 457 -131 459 -130 460 -130 c 0
 462 -130 464 -130 464 -132 c 0
 464 -133 464 -133 463 -135 c 0
 429 -183 407 -210 360 -236 c 0
 334 -250 317 -251 298 -251 c 0
 229 -251 176 -207 153 -133 c 0
 140 -91 122 -28 109 22 c 1
 66 -26 l 1
 -72 -181 l 2
 -76 -186 -95 -194 -105 -194 c 0
 -108 -194 -110 -193 -110 -191 c 0
 -110 -189 -108 -186 -104 -181 c 2
 36 -37 l 1
 106 36 l 1
 68 188 65 196 62 196 c 4
 61 196 60 197 60 198 c 4
 60 199 60 200 63 202 c 4
 73 209 91 220 96 220 c 7
 98 220 98 219 98 217 c 4
 98 207 104 196 136 66 c 1
EndSplineSet
Validated: 1
EndChar

StartChar: psi
Encoding: 968 968 402
Width: 371
Flags: W
HStem: -456 27<-232.199 -162.581> 212 20<386.001 439.021> 212 12<91.5232 128>
VStem: -282 38<-420.174 -367.841> 62 37<18.4116 115.175> 117 34<154.958 211.736>
LayerCount: 2
Fore
SplineSet
151 195 m 0xbc
 151 161 99 103 99 58 c 0
 99 27 119 10 147 8 c 1
 179 71 210 136 238 198 c 0
 239 201 250 207 258 210 c 0
 266 213 278 211 276 208 c 0
 242 148 206 79 169 8 c 1
 223 11 257 32 297 108 c 0
 319 150 351 232 427 232 c 0
 443 232 458 217 458 215 c 0
 458 210 435 195 428 195 c 0
 427 195 426 196 426 196 c 1
 417 205 408 212 397 212 c 0xdc
 336 212 330 11 160 -8 c 1
 91 -135 41 -265 -42 -352 c 0
 -117 -430 -178 -456 -220 -456 c 0
 -249 -456 -282 -431 -282 -406 c 0
 -282 -378 -273 -373 -255 -363 c 0
 -246 -358 -237 -350 -233 -350 c 0
 -232 -350 -232 -351 -232 -352 c 0
 -232 -354 -244 -375 -244 -392 c 0
 -244 -420 -210 -429 -187 -429 c 0
 -144 -429 -101 -398 -53 -346 c 0
 20 -266 70 -142 138 -10 c 1
 82 -10 62 30 62 56 c 0
 62 76 71 99 84 124 c 0
 94 143 117 184 117 199 c 0
 117 208 112 212 103 212 c 0
 89 212 79 207 67 199 c 0
 64 197 63 196 62 196 c 0
 61 196 60 197 60 198 c 0
 60 199 60 200 63 202 c 0
 79 213 98 224 118 224 c 0
 138 224 151 217 151 195 c 0xbc
EndSplineSet
Validated: 1
EndChar

StartChar: omega
Encoding: 969 969 403
Width: 369
Flags: W
HStem: -13 17<214.5 259.268> -6 14<81.5 123.812> 162 18<350.002 387.323> 212 12<92.8175 139>
VStem: 41 35<15.678 117.388> 122 39<185.489 218.809> 167 33<21.5659 96.2854> 322 29<66.2244 162.134>
AnchorPoint: "below" 154 -50 basechar 0
AnchorPoint: "above" 258 274 basechar 0
LayerCount: 2
Fore
SplineSet
41 50 m 0x7f
 41 139 122 180 122 204 c 0
 122 209 119 212 115 212 c 0
 94 212 83 210 67 199 c 0
 64 197 63 196 62 196 c 0
 61 196 60 197 60 198 c 0
 60 199 60 200 63 202 c 0
 84 216 101 224 126 224 c 0
 152 224 161 222 161 214 c 0
 161 187 76 146 76 62 c 0
 76 30 92 8 112 8 c 0x7f
 126 8 146 15 167 45 c 1
 167 112 197 125 197 125 c 1
 200 127 213 132 215 132 c 0
 220 132 222 128 222 123 c 0
 222 110 215 87 200 64 c 1
 201 37 219 4 247 4 c 0
 301 4 322 81 322 117 c 0
 322 161 302 181 302 197 c 0
 302 202 325 216 333 216 c 0
 341 216 334 180 379 180 c 0
 400 180 427 199 432 202 c 0
 435 204 436 205 437 205 c 0
 438 205 439 204 439 203 c 0
 439 202 439 201 436 199 c 0
 426 192 387 162 349 162 c 1
 350 154 351 144 351 135 c 0
 351 20 256 -13 223 -13 c 0xbf
 206 -13 187 -7 176 13 c 0
 173 18 172 22 170 28 c 1
 151 12 119 -6 91 -6 c 0
 72 -6 41 8 41 50 c 0x7f
EndSplineSet
Validated: 1
EndChar

StartChar: uni03D0
Encoding: 976 976 409
Width: 294
Flags: W
HStem: -11 26<114.669 183.409> 196 17<66.9305 90.6663> 228 20<241.291 294.9> 626 21<449.785 490>
VStem: 69 44<26.8189 137.741> 303 31<142.32 224.324> 469 37<538.457 636.283>
LayerCount: 2
Fore
SplineSet
81 213 m 3
 85 213 98 201 125 199 c 1
 217 355 229 375 240 395 c 0
 320 537 373 610 464 643 c 0
 471 646 481 647 483 647 c 0
 497 647 506 638 506 616 c 0
 506 520 392 357 311 288 c 0
 297 276 275 259 252 244 c 1
 262 246 268 248 285 248 c 0
 308 248 334 240 334 207 c 0
 334 103 214 -11 135 -11 c 0
 96 -11 70 22 69 65 c 0
 69 83 73 103 83 122 c 0
 90 137 102 159 117 185 c 1
 84 185 68 196 62 196 c 0
 61 196 60 197 60 198 c 0
 60 199 60 200 63 202 c 0
 73 209 78 213 81 213 c 3
148 178 m 1
 131 146 113 118 113 84 c 0
 113 43 135 15 165 15 c 0
 233 15 303 118 303 179 c 0
 303 218 293 228 269 228 c 0
 238 228 173 205 148 178 c 1
298 293 m 0
 358 351 469 523 469 610 c 0
 469 620 466 626 459 626 c 0
 417 626 316 474 253 362 c 2
 165 206 l 1
 200 212 263 260 298 293 c 0
EndSplineSet
Validated: 1
EndChar

StartChar: Upsilon1
Encoding: 978 978 411
Width: 420
Flags: W
HStem: -16 21G<125 128> 424 19<176.995 235.826 549.743 605>
VStem: 279 36<246.274 393.28> 586 40<386.69 418.205>
AnchorPoint: "above" 425 500 basechar 0
LayerCount: 2
Fore
SplineSet
250 135 m 0
 219 78 191 22 180 5 c 0
 173 -6 164 0 140 -9 c 0
 130 -13 130 -16 126 -16 c 0
 124 -16 121 -15 121 -13 c 0
 121 -10 135 4 145 20 c 0
 249 188 279 270 279 333 c 0
 279 407 227 424 198 424 c 0
 185 424 157 421 127 391 c 0
 121 385 118 381 116 381 c 0
 114 381 113 382 113 384 c 0
 113 386 117 391 124 398 c 0
 157 432 198 443 217 443 c 0
 266 443 315 413 315 335 c 0
 315 308 302 251 281 200 c 1
 310 235 l 1
 404 346 457 385 504 412 c 0
 526 425 565 443 596 443 c 0
 614 443 626 427 626 416 c 0
 626 389 565 360 554 360 c 0
 553 360 552 361 552 362 c 0
 552 371 586 373 586 394 c 0
 586 403 578 419 560 419 c 0
 537 419 522 412 508 405 c 0
 466 381 402 320 327 234 c 1
 327 234 262 157 250 135 c 0
EndSplineSet
Validated: 1
EndChar

StartChar: endash
Encoding: 8211 8211 416
Width: 483
Flags: W
HStem: 154 20<92.0012 483.415>
LayerCount: 2
Fore
SplineSet
340 174 m 0
 350 174 479 175 486 175 c 0
 487 175 488 175 488 174 c 0
 488 172 486 170 483 163 c 0
 480 156 480 150 477 150 c 0
 464 150 307 154 259 154 c 0
 230 154 104 153 86 152 c 0
 85 152 84 152 84 153 c 0
 84 155 89 159 92 164 c 0
 96 171 97 177 100 177 c 0
 124 177 283 174 340 174 c 0
EndSplineSet
Validated: 1
EndChar

StartChar: emdash
Encoding: 8212 8212 417
Width: 683
Flags: W
HStem: 154 20<92.0012 683.415>
LayerCount: 2
Fore
SplineSet
440 174 m 0
 450 174 679 175 686 175 c 0
 687 175 688 175 688 174 c 0
 688 172 686 170 683 163 c 0
 680 156 680 150 677 150 c 0
 664 150 407 154 359 154 c 0
 330 154 104 153 86 152 c 0
 85 152 84 152 84 153 c 0
 84 155 89 159 92 164 c 0
 96 171 97 177 100 177 c 0
 124 177 383 174 440 174 c 0
EndSplineSet
Validated: 1
EndChar

StartChar: quoteleft
Encoding: 8216 8216 418
Width: 170
Flags: W
HStem: 231 212
VStem: 150 31<257.058 337.62>
LayerCount: 2
Fore
SplineSet
181 296 m 0
 181 260 205 252 205 250 c 0
 205 249 197 245 189 240 c 0
 181 235 176 231 172 231 c 0
 168 231 150 252 150 277 c 0
 150 319 174 369 225 413 c 0
 246 431 267 443 274 443 c 0
 275 443 276 443 276 442 c 0
 276 439 263 439 232 408 c 0
 203 379 181 340 181 296 c 0
EndSplineSet
Validated: 1
EndChar

StartChar: bullet
Encoding: 8226 8226 424
Width: 254
Flags: W
HStem: 92 158<118.494 217.232>
VStem: 88 157<119.123 219.347>
LayerCount: 2
Fore
SplineSet
173 250 m 0
 213 250 245 217 245 178 c 0
 245 112 191 92 159 92 c 0
 119 92 88 122 88 160 c 0
 88 208 125 250 173 250 c 0
EndSplineSet
Validated: 1
EndChar

StartChar: exclamdbl
Encoding: 8252 8252 426
Width: 362
Flags: HMW
LayerCount: 2
Fore
SplineSet
249 85 m 0
 248 82 244 78 238 78 c 0
 234 78 230 80 230 85 c 0
 230 90 263 175 297 234 c 0
 337 304 402 384 439 421 c 0
 446 428 463 428 474 428 c 0
 480 428 498 422 498 413 c 0
 498 410 497 409 496 409 c 0
 495 409 494 410 490 410 c 0
 448 410 362 294 321 227 c 0
 298 190 260 128 249 85 c 0
EndSplineSet
Refer: 12 46 N 1 0 0 1 124 -16 2
Refer: 451 33 N 1 0 0 1 0 0 2
Validated: 1
EndChar

StartChar: fraction
Encoding: 8260 8260 427
Width: 314
Flags: W
HStem: -55 21G<-24 -19.5> 440 7<446 446.611>
LayerCount: 2
Fore
SplineSet
-23 -55 m 0
 -25 -55 -26 -54 -26 -53 c 0
 -26 -50 -24 -48 -21 -46 c 2
 424 438 l 2
 429 444 435 447 440 447 c 0
 443 447 447 445 447 442 c 1
 447 442 447 440 446 440 c 2
 1 -46 l 2
 -3 -50 -16 -55 -23 -55 c 0
EndSplineSet
Validated: 1
EndChar

StartChar: Euro
Encoding: 8364 8364 428
Width: 473
Flags: W
HStem: -12 16<218.057 307.296> 172 18<64.9925 117 168 370.458> 233 18<98.2126 146 194 401.056> 421 22<380.864 460.524>
VStem: 106 50<43.429 171.969> 493 32<385.312 398.051>
LayerCount: 2
Fore
SplineSet
500 372 m 0
 499 369 498 367 496 367 c 0
 494 367 493 370 493 372 c 0
 488 396 456 421 421 421 c 0
 372 421 342 404 325 394 c 1
 275 361 226 311 194 251 c 1
 214 251 235 250 256 250 c 0
 313 250 384 251 400 251 c 0
 402 251 403 249 403 248 c 0
 403 237 388 233 378 233 c 0
 323 233 256 236 186 236 c 1
 179 220 173 204 168 188 c 1
 262 188 347 189 371 189 c 0
 373 189 375 188 375 186 c 0
 375 183 371 182 367 178 c 0
 363 174 358 171 353 171 c 0
 338 171 284 174 234 174 c 0
 214 174 189 173 164 173 c 1
 159 152 156 131 156 110 c 0
 156 49 199 4 257 4 c 0
 343 4 390 61 431 115 c 0
 433 118 434 119 436 119 c 0
 438 119 439 112 439 104 c 0
 439 93 436 75 434 72 c 0
 395 22 330 -12 240 -12 c 0
 165 -12 106 32 106 106 c 0
 106 128 110 150 117 173 c 1
 94 173 75 172 65 172 c 0
 62 172 60 173 60 175 c 0
 60 179 76 190 82 190 c 0
 96 190 92 188 123 188 c 1
 129 204 137 219 146 235 c 1
 128 234 110 234 95 234 c 0
 92 234 91 235 91 236 c 0
 91 238 94 238 97 241 c 0
 104 248 102 253 114 253 c 0
 121 253 136 253 156 252 c 1
 196 314 255 370 318 405 c 0
 363 431 408 443 453 443 c 0
 508 443 525 410 525 404 c 0
 525 395 505 387 500 372 c 0
EndSplineSet
Validated: 1
EndChar

StartChar: trademark
Encoding: 8482 8482 429
Width: 526
Flags: W
HStem: 185 16<461.745 494.698> 227 21G<152 161 279.5 281.5> 385 19<145.2 190.156 375.704 401.796> 400 11<463.816 487.636> 406 9<254.747 309.934> 440 8<186.104 213.765>
VStem: 222 26<410.225 437.915> 322 26<349.001 402.025> 402 25<377 384.145> 421 31<204.744 282.128> 489 30<356.039 399.953>
LayerCount: 2
Fore
SplineSet
182 320 m 0xd7a0
 194 344 204 365 216 396 c 1
 180 396 148 386 146 386 c 0
 144 386 143 390 143 392 c 0
 143 399 182 403 219 406 c 1
 220 410 222 417 222 422 c 0
 222 431 215 440 198 440 c 0
 186 440 175 426 168 426 c 0
 167 426 164 428 164 430 c 0
 164 439 194 448 204 448 c 0
 224 448 248 440 248 410 c 1
 269 412 287 415 302 415 c 0
 336 415 348 395 348 375 c 0
 348 373 348 369 346 364 c 1
 358 380 379 404 400 404 c 0
 412 404 427 401 427 377 c 1xefa0
 441 393 463 411 486 411 c 0
 501 411 519 406 519 387 c 0
 519 363 452 275 452 239 c 0
 452 213 464 201 482 201 c 0
 505 201 527 231 530 231 c 0
 532 231 533 230 533 229 c 0
 533 228 533 228 532 226 c 0
 531 224 503 185 466 185 c 0
 443 185 421 194 421 234 c 0
 421 286 489 365 489 390 c 0
 489 396 484 400 476 400 c 0xd760
 460 400 436 378 425 359 c 0
 423 356 417 344 413 344 c 0
 406 344 389 347 389 349 c 0
 389 351 402 356 402 374 c 0
 402 379 399 385 388 385 c 0
 373 385 354 356 346 342 c 0
 336 326 283 227 280 227 c 0
 279 227 255 230 255 239 c 0
 255 244 284 285 295 305 c 0
 302 318 322 354 322 380 c 0
 322 393 311 406 296 406 c 0xefa0
 278 406 246 400 246 400 c 1
 239 379 225 347 212 321 c 0
 200 297 168 230 154 230 c 0
 150 230 133 230 133 235 c 0
 133 238 164 286 182 320 c 0xd7a0
EndSplineSet
Validated: 1
EndChar

StartChar: estimated
Encoding: 8494 8494 431
Width: 443
Flags: W
HStem: -6 23<180.35 272.062> 419 23<337.882 388.5>
VStem: 85 39<56.97 159.016> 372 39<376.107 417.683>
LayerCount: 2
Fore
SplineSet
137 186 m 1
 257 272 372 346 372 393 c 0
 372 409 360 419 343 419 c 0
 279 419 169 287 137 186 c 1
196 -6 m 0
 139 -6 85 31 85 86 c 0
 85 105 88 125 93 145 c 1
 93 145 32 95 22 95 c 0
 21 95 20 96 20 97 c 0
 20 99 78 143 96 156 c 1
 145 323 315 442 381 442 c 0
 396 442 411 433 411 416 c 0
 411 362 265 271 134 175 c 1
 128 153 124 131 124 108 c 0
 124 53 177 17 233 17 c 0
 291 17 328 32 372 71 c 0
 398 94 417 118 421 124 c 0
 423 127 424 127 425 127 c 0
 426 127 427 126 427 125 c 0
 427 124 427 124 426 122 c 0
 409 100 394 82 377 67 c 0
 301 -2 231 -6 196 -6 c 0
EndSplineSet
Validated: 1
EndChar

StartChar: minus
Encoding: 8722 8722 432
Width: 368
Flags: W
HStem: 152 25<92.3664 368.551>
VStem: 84 289<154.1 172.9>
LayerCount: 2
Fore
SplineSet
281 173 m 0
 306 173 364 175 371 175 c 0
 372 175 373 175 373 174 c 0
 373 172 371 170 368 163 c 0
 365 156 365 150 362 150 c 0
 349 150 222 154 174 154 c 0
 145 154 94 152 86 152 c 0
 85 152 84 152 84 153 c 0
 84 155 89 159 92 164 c 0
 96 171 97 177 100 177 c 0
 124 177 224 173 281 173 c 0
EndSplineSet
Validated: 1
EndChar

StartChar: uni2219
Encoding: 8729 8729 433
Width: 219
Flags: W
HStem: 155 67<146.819 193.519>
VStem: 138 64<163.007 213.365>
LayerCount: 2
Fore
SplineSet
138 175 m 0
 138 196 160 222 183 222 c 0
 195 222 202 214 202 202 c 0
 202 181 181 155 158 155 c 0
 146 155 138 163 138 175 c 0
EndSplineSet
Validated: 1
EndChar

StartChar: spade
Encoding: 9824 9824 435
Width: 399
Flags: W
HStem: -8 15<133.194 162.703> 423 20G<246.5 252.5>
VStem: 61 358<139.056 232.265>
LayerCount: 2
Fore
SplineSet
315 329 m 0
 354 274 419 247 419 190 c 0
 419 137 361 102 323 102 c 0
 291 102 273 127 248 136 c 1
 252 74 277 52 293 29 c 0
 312 2 334 8 334 3 c 0
 334 0 332 -8 329 -8 c 0
 324 -8 280 -5 254 -5 c 0
 217 -5 144 -8 138 -8 c 0
 135 -8 133 -2 133 1 c 0
 133 6 144 4 150 7 c 0
 158 10 217 39 224 138 c 1
 192 134 169 108 133 108 c 0
 97 108 61 136 61 179 c 0
 61 244 135 260 202 373 c 0
 229 418 223 428 236 436 c 0
 241 439 243 443 250 443 c 0
 255 443 266 399 315 329 c 0
EndSplineSet
Validated: 1
EndChar

StartChar: uni2661
Encoding: 9825 9825 436
Width: 473
Flags: W
HStem: 423 20<159.552 218.301 395.411 453.812>
VStem: 69 34<266.338 368.95> 517 34<265.581 369.526>
LayerCount: 2
Fore
SplineSet
445 443 m 0
 505 443 551 386 551 326 c 0
 551 208 375 140 326 4 c 0
 325 1 319 -4 310 -9 c 0
 301 -14 294 -15 293 -13 c 0
 288 1 282 13 275 26 c 0
 211 137 69 206 69 308 c 0
 69 387 147 443 205 443 c 0
 262 443 293 408 314 355 c 1
 346 419 399 443 445 443 c 0
327 316 m 0
 326 313 319 307 310 302 c 0
 301 297 294 296 293 298 c 0
 286 322 265 423 175 423 c 0
 117 423 103 355 103 326 c 0
 103 220 243 157 308 45 c 0
 310 41 313 36 315 32 c 1
 381 143 517 206 517 308 c 0
 517 381 460 423 415 423 c 0
 380 423 353 410 327 316 c 0
EndSplineSet
Validated: 1
EndChar

StartChar: uni2662
Encoding: 9826 9826 437
Width: 363
Flags: W
HStem: -14 40<198.5 237.967> 406 40<217.254 254.5>
VStem: 60 39<185.064 226.063> 358 35<197.127 236.286>
LayerCount: 2
Fore
SplineSet
212 421 m 0
 216 426 220 428 230 435 c 0
 239 441 243 446 252 446 c 0
 257 446 256 427 323 323 c 1
 378 235 393 229 393 223 c 0
 393 218 391 215 388 211 c 0
 306 115 280 70 239 7 c 0
 230 -7 211 -14 201 -14 c 0
 196 -14 194 -4 189 5 c 0
 81 187 60 187 60 198 c 0
 60 205 74 217 137 305 c 0
 168 348 192 392 212 421 c 0
156 138 m 1
 193 87 225 26 228 26 c 0
 232 26 280 100 352 193 c 0
 356 199 358 203 358 207 c 0
 358 216 305 288 291 309 c 0
 267 347 230 406 226 406 c 0
 220 406 167 327 151 302 c 0
 100 223 99 225 99 214 c 0
 99 205 121 184 156 138 c 1
EndSplineSet
Validated: 1
EndChar

StartChar: club
Encoding: 9827 9827 438
Width: 526
Flags: W
HStem: -8 15<183.194 213.371 355.31 383.452> 105 192<120.736 222.782 350.166 457.012> 423 20G<262.5 319>
VStem: 196 188<300.65 409.692> 274 24<80.5634 142>
LayerCount: 2
Fore
SplineSet
394 105 m 0xf0
 322 105 336 138 298 142 c 1xe8
 301 76 321 51 341 28 c 0
 351 15 362 10 370 8 c 0
 376 6 384 6 384 3 c 0xf0
 384 0 382 -8 379 -8 c 0
 374 -8 330 -5 304 -5 c 0
 267 -5 194 -8 188 -8 c 0
 185 -8 183 -2 183 1 c 0
 183 6 194 4 200 7 c 0
 203 8 218 16 225 24 c 0
 248 46 271 78 274 143 c 1xe8
 247 140 232 105 181 105 c 0
 122 105 89 143 89 201 c 0
 89 259 129 295 170 295 c 0
 184 295 200 295 224 283 c 1
 206 306 196 325 196 349 c 0
 196 400 235 443 290 443 c 0
 348 443 384 404 384 356 c 0
 384 336 368 304 349 283 c 1
 374 296 391 297 406 297 c 0
 470 297 484 239 484 202 c 0
 484 138 450 105 394 105 c 0xf0
EndSplineSet
Validated: 1
EndChar

StartChar: uni2664
Encoding: 9828 9828 439
Width: 399
Flags: W
HStem: -5 10<133.071 156.114 183.006 264.473> 108 20<129.25 172.012 312.678 372.655> 423 20G<246.5 252.5>
VStem: 61 34<152.697 225.993> 385 34<144.082 219.368>
LayerCount: 2
Fore
SplineSet
229 83 m 1
 219 42 183 10 183 9 c 0
 183 6 191 5 202 5 c 0
 215 5 268 9 268 11 c 0
 268 17 238 50 229 83 c 1
315 329 m 0
 354 274 419 247 419 190 c 0
 419 137 361 102 323 102 c 0
 291 102 273 127 248 136 c 1
 252 74 277 52 293 29 c 0
 312 2 334 8 334 3 c 0
 334 0 332 -8 329 -8 c 0
 324 -8 280 -5 254 -5 c 0
 217 -5 144 -8 138 -8 c 0
 135 -8 133 -2 133 1 c 0
 133 6 144 4 150 7 c 0
 158 10 217 39 224 138 c 1
 192 134 169 108 133 108 c 0
 97 108 61 136 61 179 c 0
 61 244 135 260 202 373 c 0
 229 418 223 428 236 436 c 0
 241 439 243 443 250 443 c 0
 255 443 266 399 315 329 c 0
236 398 m 1
 172 277 95 261 95 197 c 0
 95 157 128 128 163 128 c 0
 191 128 216 159 262 159 c 0
 301 159 317 122 353 122 c 0
 382 122 385 161 385 172 c 0
 385 229 322 261 287 312 c 0
 264 345 247 370 236 398 c 1
EndSplineSet
Validated: 1
EndChar

StartChar: heart
Encoding: 9829 9829 440
Width: 473
Flags: W
HStem: 423 20G<176 233.5 422 475>
LayerCount: 2
Fore
SplineSet
445 443 m 0
 505 443 551 386 551 326 c 0
 551 208 375 140 326 4 c 0
 325 1 319 -4 310 -9 c 0
 301 -14 294 -15 293 -13 c 0
 288 1 282 13 275 26 c 0
 211 137 69 206 69 308 c 0
 69 387 147 443 205 443 c 0
 262 443 293 408 314 355 c 1
 346 419 399 443 445 443 c 0
EndSplineSet
Validated: 1
EndChar

StartChar: diamond
Encoding: 9830 9830 441
Width: 363
Flags: W
HStem: -14 21G<209.5 217> 426 20G<241.5 248.5>
VStem: 69 318<178.42 245.797>
LayerCount: 2
Fore
SplineSet
211 421 m 0
 215 426 217 432 227 439 c 0
 236 445 237 446 246 446 c 0
 251 446 256 427 323 323 c 1
 378 235 387 215 387 209 c 0
 387 204 385 201 382 197 c 0
 309 93 290 70 249 7 c 0
 240 -7 222 -14 212 -14 c 0
 207 -14 205 -4 200 5 c 0
 92 187 69 200 69 211 c 0
 69 218 74 224 137 312 c 0
 168 355 191 392 211 421 c 0
EndSplineSet
Validated: 1
EndChar

StartChar: uni2667
Encoding: 9831 9831 442
Width: 424
Flags: W
HStem: -5 10<152.071 175.123 202.006 283.473 332.932 352.553> 105 19<124.157 187.696 336.372 394.526> 142 19<267 289.793> 259 21G<193.5 201 283 285.5> 279 18<108.892 163.507 329.359 383.808> 427 16<220.933 276.54>
VStem: 58 24<166.301 250.596> 165 22<326.687 393.591> 243 24<77.4318 142> 321 32<310.316 397.315> 427 26<154.7 240.929>
LayerCount: 2
Fore
SplineSet
82 212 m 0xefe0
 82 168 112 124 160 124 c 0
 185 124 221 161 270 161 c 0
 309 161 328 125 368 125 c 0
 413 125 427 179 427 195 c 0
 427 244 390 279 350 279 c 0xefe0
 325 279 287 259 284 259 c 0
 282 259 281 260 281 262 c 0
 281 265 321 305 321 351 c 0
 321 398 284 427 238 427 c 0
 221 427 187 417 187 369 c 0
 187 325 229 279 229 278 c 0
 229 276 206 259 196 259 c 0xf7e0
 191 259 147 279 127 279 c 0
 89 279 82 233 82 212 c 0xefe0
248 83 m 1
 238 42 202 10 202 9 c 0
 202 6 210 5 221 5 c 0
 234 5 287 9 287 11 c 0
 287 17 257 50 248 83 c 1
363 105 m 0
 291 105 305 138 267 142 c 1
 270 76 290 51 310 28 c 0
 320 15 331 10 339 8 c 0
 345 6 353 6 353 3 c 0
 353 0 351 -8 348 -8 c 0
 343 -8 299 -5 273 -5 c 0
 236 -5 163 -8 157 -8 c 0
 154 -8 152 -2 152 1 c 0
 152 6 163 4 169 7 c 0
 172 8 187 16 194 24 c 0
 217 46 240 78 243 143 c 1
 216 140 201 105 150 105 c 0
 91 105 58 143 58 201 c 0
 58 259 98 295 139 295 c 0
 153 295 169 295 193 283 c 1
 175 306 165 325 165 349 c 0
 165 400 204 443 259 443 c 0
 317 443 353 404 353 356 c 0
 353 336 337 304 318 283 c 1
 343 296 360 297 375 297 c 0
 439 297 453 239 453 202 c 0
 453 138 419 105 363 105 c 0
EndSplineSet
Validated: 1
EndChar

StartChar: uni2766
Encoding: 10086 10086 443
Width: 496
Flags: W
HStem: -149 8<177.26 215.544> -98 20G<150 154> 291 11<516.891 575.108> 332 6<560.362 597.351> 353 14<124.784 172.778 580.669 636.802> 366 10<643.814 665.345> 408 6<495.577 522.824> 413 18<262.315 306> 425 10<375.045 413.25> 465 6<215.667 250.585> 591 10<242.979 302.341>
VStem: 66 40<387 417.225> 122 31<-131.166 -93.0238> 158 17<498.362 545.1> 260 19<253.582 305.22> 266 234<-90 212> 306 39<353.327 406.657> 336 39<563.653 571.839> 450 13<339.746 377.443> 646 21<359.225 365.999>
LayerCount: 2
Fore
SplineSet
189 491 m 1xf07d10
 203 565 311 576 311 581 c 0
 311 586 287 591 266 591 c 0
 221 591 175 560 175 527 c 0
 175 513 180 501 189 491 c 1xf07d10
208 477 m 1
 216 473 226 471 236 471 c 0
 248 471 261 477 268 487 c 0
 281 505 278 533 295 548 c 0
 313 564 336 565 336 567 c 0xf07c50
 336 570 327 572 320 572 c 0
 280 572 208 549 208 477 c 1
648 365 m 1
 648 365 648 366 647 366 c 0
 643 366 613 357 596 357 c 0
 538 357 544 408 512 408 c 0xf67c10
 500 408 489 404 480 395 c 1
 514 365 542 338 582 338 c 0
 614 338 648 362 648 365 c 1
466 378 m 1
 462 366 463 361 463 361 c 1xf07c30
 463 326 509 302 554 302 c 0
 604 302 646 351 646 355 c 0
 646 356 645 356 644 356 c 0
 643 356 612 332 574 332 c 0
 531 332 493 356 466 378 c 1
274 601 m 0
 330 601 375 571 375 566 c 0
 375 564 370 564 368 564 c 0
 287 564 311 517 278 484 c 0
 268 474 250 465 233 465 c 0
 225 465 216 466 208 468 c 1
 211 447 224 426 238 409 c 1
 257 421 277 431 298 431 c 0xf97c50
 314 431 333 426 341 409 c 1
 373 433 385 435 399 435 c 0
 428 435 451 420 473 401 c 1
 485 412 504 414 520 414 c 0
 566 414 561 366 606 366 c 0
 634 366 659 376 665 376 c 0xf6fc50
 666 376 667 376 667 375 c 0
 667 373 665 369 661 364 c 0
 642 340 601 291 542 291 c 0
 485 291 450 316 450 353 c 0
 450 364 452 372 459 383 c 1
 430 406 419 425 393 425 c 0
 379 425 368 420 344 402 c 1
 345 398 345 395 345 390 c 0
 345 359 279 317 279 284 c 0xf8feb0
 279 271 281 255 307 235 c 1
 333 245 350 272 396 272 c 0
 439 272 500 251 500 173 c 0
 500 47 407 97 293 -84 c 0
 270 -122 235 -149 190 -149 c 0
 169 -149 123 -139 122 -120 c 0
 122 -111 147 -78 153 -78 c 1
 153 -78 154 -78 154 -80 c 0
 154 -83 153 -86 153 -93 c 0
 153 -117 166 -141 195 -141 c 0
 231 -141 266 -106 266 -74 c 0xf8fd10
 266 24 76 40 76 162 c 0
 76 243 145 273 176 273 c 0
 230 273 248 236 278 232 c 1
 267 244 260 257 260 274 c 0
 260 318 306 332 306 378 c 0
 306 395 294 413 280 413 c 0xf17e90
 246 413 197 353 137 353 c 0
 93 353 66 421 66 421 c 2
 66 422 67 423 68 423 c 0
 73 423 106 410 106 408 c 0
 112 381 123 367 151 367 c 0xfa7e90
 174 367 196 382 219 397 c 1
 199 421 189 452 188 475 c 1
 171 484 158 499 158 521 c 0
 158 561 226 601 274 601 c 0
EndSplineSet
Validated: 1
EndChar

StartChar: uni2767
Encoding: 10087 10087 444
Width: 697
Flags: W
HStem: -23 77<467.5 774> 264 10<289.323 330.637> 382 11<465.617 542.149> 429 14<142.181 224.902> 441 11<438 480.918> 486 11<454.853 500.702>
VStem: 245 18<293.764 356.348> 423 15<419.549 441> 808 32<64.1503 111.099>
LayerCount: 2
Fore
SplineSet
587 378 m 1xef80
 578 447 520 486 468 486 c 0
 457 486 440 477 438 452 c 1
 501 452 559 421 587 378 c 1xef80
571 375 m 1
 546 420 493 439 438 441 c 1
 441 416 461 393 484 393 c 0
 498 393 508 398 525 398 c 0
 540 398 560 383 571 375 c 1
368 293 m 1
 350 324 329 359 291 388 c 1
 274 371 263 351 263 329 c 0
 263 305 272 274 313 274 c 0
 337 274 354 284 368 293 c 1
169 429 m 0xf780
 140 429 117 421 87 391 c 0
 81 385 78 380 76 380 c 0
 74 380 73 381 73 383 c 0
 73 385 77 391 84 398 c 0
 117 432 151 443 187 443 c 0xf780
 232 443 267 431 299 407 c 1
 341 437 390 447 423 451 c 1
 426 489 466 497 483 497 c 0
 539 497 599 452 599 370 c 0
 599 351 593 330 588 330 c 0
 583 330 555 387 510 387 c 0
 495 387 484 382 469 382 c 0
 443 382 425 415 423 441 c 1xef80
 394 440 344 430 307 402 c 1
 340 376 385 325 425 211 c 1
 445 218 427 257 464 287 c 0
 474 295 499 307 528 307 c 0
 556 307 587 295 611 257 c 0
 651 194 668 54 769 54 c 0
 779 54 789 57 797 63 c 0
 804 69 808 76 808 84 c 0
 808 95 800 106 787 115 c 0
 781 120 778 121 775 123 c 0
 773 124 774 125 774 125 c 1
 774 125 776 126 778 126 c 0
 789 126 825 118 832 114 c 0
 838 110 840 104 840 98 c 0
 840 85 831 71 823 63 c 0
 751 -12 585 -23 538 -23 c 0
 397 -23 286 39 286 123 c 0
 286 163 317 208 370 208 c 0
 384 208 397 205 408 200 c 1
 397 232 385 261 371 288 c 1
 343 271 321 264 299 264 c 0
 256 264 245 294 245 319 c 0
 245 344 257 371 283 394 c 1
 250 418 214 429 169 429 c 0xf780
EndSplineSet
Validated: 1
EndChar

StartChar: uniFB00
Encoding: 64256 64256 445
Width: 376
Flags: W
HStem: -598 25<-405.123 -342.327> -530 20<-181.349 -120.746> 674 21<452.239 516> 733 21<651.753 718.5>
VStem: -442 32<-536.063 -386.752> -260 34<-455.398 -364.178> 711 34<642.739 722.809>
AnchorPoint: "above" 537 788 basechar 0
LayerCount: 2
Fore
SplineSet
269 79 m 1
 122 -193 71 -285 17 -374 c 0
 -9 -417 -72 -530 -168 -530 c 0
 -197 -530 -218 -520 -232 -505 c 1
 -286 -565 -360 -598 -379 -598 c 0
 -430 -598 -442 -500 -442 -446 c 0
 -442 -281 -76 -37 49 54 c 1
 84 124 l 2
 173 303 249 436 295 512 c 0
 330 569 399 695 502 695 c 0
 530 695 541 669 545 652 c 1
 587 706 640 754 701 754 c 0
 736 754 745 713 745 700 c 0
 745 673 738 658 723 634 c 0
 721 630 712 623 703 619 c 0
 694 615 689 614 691 618 c 0
 706 642 711 656 711 682 c 0
 711 710 692 733 671 733 c 0
 641 733 609 730 520 574 c 0
 448 449 340 221 277 95 c 1
 434 202 l 2
 437 204 438 205 439 205 c 0
 440 205 441 204 441 203 c 0
 441 202 441 201 438 199 c 0
 422 189 347 136 269 79 c 1
-218 -456 m 1
 -176 -387 -130 -292 -80 -193 c 1
 -163 -267 -226 -340 -226 -410 c 0
 -226 -424 -224 -440 -218 -456 c 1
307 225 m 1
 100 79 l 1
 -6 -116 l 1
 25 -91 l 2
 98 -32 127 -15 218 53 c 1
 307 225 l 1
511 603 m 1
 512 609 512 616 512 623 c 0
 512 651 493 674 472 674 c 0
 442 674 406 668 316 505 c 0
 290 458 193 274 106 94 c 1
 313 236 l 1
 418 443 493 575 511 603 c 1
209 35 m 1
 148 -10 110 -36 49 -85 c 2
 -20 -141 l 1
 -98 -283 -174 -419 -209 -474 c 1
 -196 -494 -175 -510 -140 -510 c 0
 -116 -510 -84 -505 -15 -390 c 0
 40 -299 209 35 209 35 c 1
38 33 m 1
 -405 -292 -410 -408 -410 -448 c 0
 -410 -475 -400 -573 -356 -573 c 0
 -330 -573 -272 -531 -242 -493 c 1
 -255 -472 -260 -447 -260 -428 c 0
 -260 -345 -173 -256 -67 -166 c 1
 -33 -98 3 -30 38 33 c 1
EndSplineSet
Validated: 1
LCarets2: 1 0 
Ligature2: "'liga' Standard Ligatures lookup" f f
EndChar

StartChar: uniFB02
Encoding: 64258 64258 446
Width: 387
Flags: W
HStem: -530 20<-351.887 -290.746> -11 14<247.5 306.187> 653 20<446.977 507> 690 24<617.728 664>
VStem: -430 34<-472.93 -364.046> 216 38<4.77221 89.4256> 634 40<605.286 702.949>
LayerCount: 2
Fore
SplineSet
372 295 m 1
 444 359 516 432 574 512 c 0
 610 562 634 616 634 670 c 0
 634 681 629 690 621 690 c 0
 568 690 443 433 372 295 c 1
536 633 m 1
 553 653 573 672 595 688 c 0
 619 706 642 714 657 714 c 0
 671 714 674 698 674 692 c 0
 674 626 638 561 586 499 c 0
 514 413 436 338 362 275 c 1
 299 153 254 68 254 34 c 0
 254 18 265 3 283 3 c 0
 329 3 388 41 423 71 c 0
 449 94 468 118 472 124 c 0
 474 127 475 127 476 127 c 0
 477 127 478 126 478 125 c 0
 478 124 478 124 477 122 c 0
 440 73 407 45 361 18 c 0
 326 -2 285 -11 262 -11 c 0
 233 -11 216 4 216 30 c 0
 216 56 229 79 253 124 c 2
 311 233 l 1
 226 165 149 112 98 76 c 1
 -49 -196 -99 -285 -153 -374 c 0
 -179 -417 -242 -530 -338 -530 c 0
 -412 -530 -430 -466 -430 -428 c 0
 -430 -322 -288 -207 -145 -91 c 0
 -72 -32 -43 -15 48 53 c 1
 84 124 l 1
 145 242 206 349 270 465 c 0
 310 537 391 673 494 673 c 0
 520 673 532 650 536 633 c 1
504 590 m 1
 504 593 504 597 504 601 c 0
 504 629 485 653 464 653 c 0
 434 653 402 649 313 493 c 0
 241 368 167 218 104 92 c 1
 158 129 238 184 320 251 c 1
 424 447 l 2
 450 496 474 545 504 590 c 1
39 35 m 1
 -22 -10 -60 -36 -121 -85 c 0
 -256 -195 -396 -306 -396 -410 c 0
 -396 -450 -379 -510 -310 -510 c 0
 -286 -510 -254 -505 -185 -390 c 0
 -130 -299 39 35 39 35 c 1
EndSplineSet
Validated: 1
LCarets2: 1 0 
Ligature2: "'liga' Standard Ligatures lookup" f l
EndChar

